G04 #@! TF.GenerationSoftware,KiCad,Pcbnew,(5.1.2-1)-1*
G04 #@! TF.CreationDate,2019-08-11T18:03:35-06:00*
G04 #@! TF.ProjectId,triple_hub75_v1,74726970-6c65-45f6-9875-6237355f7631,rev?*
G04 #@! TF.SameCoordinates,Original*
G04 #@! TF.FileFunction,Legend,Top*
G04 #@! TF.FilePolarity,Positive*
%FSLAX46Y46*%
G04 Gerber Fmt 4.6, Leading zero omitted, Abs format (unit mm)*
G04 Created by KiCad (PCBNEW (5.1.2-1)-1) date 2019-08-11 18:03:35*
%MOMM*%
%LPD*%
G04 APERTURE LIST*
%ADD10C,0.150000*%
%ADD11C,0.254000*%
%ADD12C,0.120000*%
%ADD13C,0.010000*%
G04 APERTURE END LIST*
D10*
X183332380Y-109545238D02*
X182856190Y-109878571D01*
X183332380Y-110116666D02*
X182332380Y-110116666D01*
X182332380Y-109735714D01*
X182380000Y-109640476D01*
X182427619Y-109592857D01*
X182522857Y-109545238D01*
X182665714Y-109545238D01*
X182760952Y-109592857D01*
X182808571Y-109640476D01*
X182856190Y-109735714D01*
X182856190Y-110116666D01*
X182427619Y-109164285D02*
X182380000Y-109116666D01*
X182332380Y-109021428D01*
X182332380Y-108783333D01*
X182380000Y-108688095D01*
X182427619Y-108640476D01*
X182522857Y-108592857D01*
X182618095Y-108592857D01*
X182760952Y-108640476D01*
X183332380Y-109211904D01*
X183332380Y-108592857D01*
X183427619Y-108402380D02*
X183427619Y-107640476D01*
X183332380Y-107402380D02*
X182332380Y-107402380D01*
X183046666Y-107069047D01*
X182332380Y-106735714D01*
X183332380Y-106735714D01*
X182332380Y-106354761D02*
X182332380Y-105735714D01*
X182713333Y-106069047D01*
X182713333Y-105926190D01*
X182760952Y-105830952D01*
X182808571Y-105783333D01*
X182903809Y-105735714D01*
X183141904Y-105735714D01*
X183237142Y-105783333D01*
X183284761Y-105830952D01*
X183332380Y-105926190D01*
X183332380Y-106211904D01*
X183284761Y-106307142D01*
X183237142Y-106354761D01*
X180792380Y-109545238D02*
X180316190Y-109878571D01*
X180792380Y-110116666D02*
X179792380Y-110116666D01*
X179792380Y-109735714D01*
X179840000Y-109640476D01*
X179887619Y-109592857D01*
X179982857Y-109545238D01*
X180125714Y-109545238D01*
X180220952Y-109592857D01*
X180268571Y-109640476D01*
X180316190Y-109735714D01*
X180316190Y-110116666D01*
X179887619Y-109164285D02*
X179840000Y-109116666D01*
X179792380Y-109021428D01*
X179792380Y-108783333D01*
X179840000Y-108688095D01*
X179887619Y-108640476D01*
X179982857Y-108592857D01*
X180078095Y-108592857D01*
X180220952Y-108640476D01*
X180792380Y-109211904D01*
X180792380Y-108592857D01*
X180887619Y-108402380D02*
X180887619Y-107640476D01*
X180792380Y-107402380D02*
X179792380Y-107402380D01*
X180506666Y-107069047D01*
X179792380Y-106735714D01*
X180792380Y-106735714D01*
X179887619Y-106307142D02*
X179840000Y-106259523D01*
X179792380Y-106164285D01*
X179792380Y-105926190D01*
X179840000Y-105830952D01*
X179887619Y-105783333D01*
X179982857Y-105735714D01*
X180078095Y-105735714D01*
X180220952Y-105783333D01*
X180792380Y-106354761D01*
X180792380Y-105735714D01*
X177300000Y-109592857D02*
X177252380Y-109688095D01*
X177252380Y-109830952D01*
X177300000Y-109973809D01*
X177395238Y-110069047D01*
X177490476Y-110116666D01*
X177680952Y-110164285D01*
X177823809Y-110164285D01*
X178014285Y-110116666D01*
X178109523Y-110069047D01*
X178204761Y-109973809D01*
X178252380Y-109830952D01*
X178252380Y-109735714D01*
X178204761Y-109592857D01*
X178157142Y-109545238D01*
X177823809Y-109545238D01*
X177823809Y-109735714D01*
X177347619Y-109164285D02*
X177300000Y-109116666D01*
X177252380Y-109021428D01*
X177252380Y-108783333D01*
X177300000Y-108688095D01*
X177347619Y-108640476D01*
X177442857Y-108592857D01*
X177538095Y-108592857D01*
X177680952Y-108640476D01*
X178252380Y-109211904D01*
X178252380Y-108592857D01*
X178347619Y-108402380D02*
X178347619Y-107640476D01*
X178252380Y-107402380D02*
X177252380Y-107402380D01*
X177966666Y-107069047D01*
X177252380Y-106735714D01*
X178252380Y-106735714D01*
X177347619Y-106307142D02*
X177300000Y-106259523D01*
X177252380Y-106164285D01*
X177252380Y-105926190D01*
X177300000Y-105830952D01*
X177347619Y-105783333D01*
X177442857Y-105735714D01*
X177538095Y-105735714D01*
X177680952Y-105783333D01*
X178252380Y-106354761D01*
X178252380Y-105735714D01*
X175188571Y-109783333D02*
X175236190Y-109640476D01*
X175283809Y-109592857D01*
X175379047Y-109545238D01*
X175521904Y-109545238D01*
X175617142Y-109592857D01*
X175664761Y-109640476D01*
X175712380Y-109735714D01*
X175712380Y-110116666D01*
X174712380Y-110116666D01*
X174712380Y-109783333D01*
X174760000Y-109688095D01*
X174807619Y-109640476D01*
X174902857Y-109592857D01*
X174998095Y-109592857D01*
X175093333Y-109640476D01*
X175140952Y-109688095D01*
X175188571Y-109783333D01*
X175188571Y-110116666D01*
X175712380Y-108592857D02*
X175712380Y-109164285D01*
X175712380Y-108878571D02*
X174712380Y-108878571D01*
X174855238Y-108973809D01*
X174950476Y-109069047D01*
X174998095Y-109164285D01*
X175807619Y-108402380D02*
X175807619Y-107640476D01*
X175712380Y-107402380D02*
X174712380Y-107402380D01*
X175426666Y-107069047D01*
X174712380Y-106735714D01*
X175712380Y-106735714D01*
X174807619Y-106307142D02*
X174760000Y-106259523D01*
X174712380Y-106164285D01*
X174712380Y-105926190D01*
X174760000Y-105830952D01*
X174807619Y-105783333D01*
X174902857Y-105735714D01*
X174998095Y-105735714D01*
X175140952Y-105783333D01*
X175712380Y-106354761D01*
X175712380Y-105735714D01*
X172220000Y-109592857D02*
X172172380Y-109688095D01*
X172172380Y-109830952D01*
X172220000Y-109973809D01*
X172315238Y-110069047D01*
X172410476Y-110116666D01*
X172600952Y-110164285D01*
X172743809Y-110164285D01*
X172934285Y-110116666D01*
X173029523Y-110069047D01*
X173124761Y-109973809D01*
X173172380Y-109830952D01*
X173172380Y-109735714D01*
X173124761Y-109592857D01*
X173077142Y-109545238D01*
X172743809Y-109545238D01*
X172743809Y-109735714D01*
X173172380Y-108592857D02*
X173172380Y-109164285D01*
X173172380Y-108878571D02*
X172172380Y-108878571D01*
X172315238Y-108973809D01*
X172410476Y-109069047D01*
X172458095Y-109164285D01*
X173267619Y-108402380D02*
X173267619Y-107640476D01*
X173172380Y-107402380D02*
X172172380Y-107402380D01*
X172886666Y-107069047D01*
X172172380Y-106735714D01*
X173172380Y-106735714D01*
X172267619Y-106307142D02*
X172220000Y-106259523D01*
X172172380Y-106164285D01*
X172172380Y-105926190D01*
X172220000Y-105830952D01*
X172267619Y-105783333D01*
X172362857Y-105735714D01*
X172458095Y-105735714D01*
X172600952Y-105783333D01*
X173172380Y-106354761D01*
X173172380Y-105735714D01*
X167140000Y-107949904D02*
X167092380Y-108045142D01*
X167092380Y-108188000D01*
X167140000Y-108330857D01*
X167235238Y-108426095D01*
X167330476Y-108473714D01*
X167520952Y-108521333D01*
X167663809Y-108521333D01*
X167854285Y-108473714D01*
X167949523Y-108426095D01*
X168044761Y-108330857D01*
X168092380Y-108188000D01*
X168092380Y-108092761D01*
X168044761Y-107949904D01*
X167997142Y-107902285D01*
X167663809Y-107902285D01*
X167663809Y-108092761D01*
X168092380Y-107473714D02*
X167092380Y-107473714D01*
X168092380Y-106902285D01*
X167092380Y-106902285D01*
X168092380Y-106426095D02*
X167092380Y-106426095D01*
X167092380Y-106188000D01*
X167140000Y-106045142D01*
X167235238Y-105949904D01*
X167330476Y-105902285D01*
X167520952Y-105854666D01*
X167663809Y-105854666D01*
X167854285Y-105902285D01*
X167949523Y-105949904D01*
X168044761Y-106045142D01*
X168092380Y-106188000D01*
X168092380Y-106426095D01*
X165552380Y-109545238D02*
X165076190Y-109878571D01*
X165552380Y-110116666D02*
X164552380Y-110116666D01*
X164552380Y-109735714D01*
X164600000Y-109640476D01*
X164647619Y-109592857D01*
X164742857Y-109545238D01*
X164885714Y-109545238D01*
X164980952Y-109592857D01*
X165028571Y-109640476D01*
X165076190Y-109735714D01*
X165076190Y-110116666D01*
X165552380Y-108592857D02*
X165552380Y-109164285D01*
X165552380Y-108878571D02*
X164552380Y-108878571D01*
X164695238Y-108973809D01*
X164790476Y-109069047D01*
X164838095Y-109164285D01*
X165647619Y-108402380D02*
X165647619Y-107640476D01*
X165552380Y-107402380D02*
X164552380Y-107402380D01*
X165266666Y-107069047D01*
X164552380Y-106735714D01*
X165552380Y-106735714D01*
X165552380Y-105735714D02*
X165552380Y-106307142D01*
X165552380Y-106021428D02*
X164552380Y-106021428D01*
X164695238Y-106116666D01*
X164790476Y-106211904D01*
X164838095Y-106307142D01*
X161806000Y-109592857D02*
X161758380Y-109688095D01*
X161758380Y-109830952D01*
X161806000Y-109973809D01*
X161901238Y-110069047D01*
X161996476Y-110116666D01*
X162186952Y-110164285D01*
X162329809Y-110164285D01*
X162520285Y-110116666D01*
X162615523Y-110069047D01*
X162710761Y-109973809D01*
X162758380Y-109830952D01*
X162758380Y-109735714D01*
X162710761Y-109592857D01*
X162663142Y-109545238D01*
X162329809Y-109545238D01*
X162329809Y-109735714D01*
X161853619Y-109164285D02*
X161806000Y-109116666D01*
X161758380Y-109021428D01*
X161758380Y-108783333D01*
X161806000Y-108688095D01*
X161853619Y-108640476D01*
X161948857Y-108592857D01*
X162044095Y-108592857D01*
X162186952Y-108640476D01*
X162758380Y-109211904D01*
X162758380Y-108592857D01*
X162853619Y-108402380D02*
X162853619Y-107640476D01*
X162758380Y-107402380D02*
X161758380Y-107402380D01*
X162472666Y-107069047D01*
X161758380Y-106735714D01*
X162758380Y-106735714D01*
X162758380Y-105735714D02*
X162758380Y-106307142D01*
X162758380Y-106021428D02*
X161758380Y-106021428D01*
X161901238Y-106116666D01*
X161996476Y-106211904D01*
X162044095Y-106307142D01*
X159694571Y-109783333D02*
X159742190Y-109640476D01*
X159789809Y-109592857D01*
X159885047Y-109545238D01*
X160027904Y-109545238D01*
X160123142Y-109592857D01*
X160170761Y-109640476D01*
X160218380Y-109735714D01*
X160218380Y-110116666D01*
X159218380Y-110116666D01*
X159218380Y-109783333D01*
X159266000Y-109688095D01*
X159313619Y-109640476D01*
X159408857Y-109592857D01*
X159504095Y-109592857D01*
X159599333Y-109640476D01*
X159646952Y-109688095D01*
X159694571Y-109783333D01*
X159694571Y-110116666D01*
X159313619Y-109164285D02*
X159266000Y-109116666D01*
X159218380Y-109021428D01*
X159218380Y-108783333D01*
X159266000Y-108688095D01*
X159313619Y-108640476D01*
X159408857Y-108592857D01*
X159504095Y-108592857D01*
X159646952Y-108640476D01*
X160218380Y-109211904D01*
X160218380Y-108592857D01*
X160313619Y-108402380D02*
X160313619Y-107640476D01*
X160218380Y-107402380D02*
X159218380Y-107402380D01*
X159932666Y-107069047D01*
X159218380Y-106735714D01*
X160218380Y-106735714D01*
X160218380Y-105735714D02*
X160218380Y-106307142D01*
X160218380Y-106021428D02*
X159218380Y-106021428D01*
X159361238Y-106116666D01*
X159456476Y-106211904D01*
X159504095Y-106307142D01*
X155106666Y-106156095D02*
X155106666Y-105679904D01*
X155392380Y-106251333D02*
X154392380Y-105918000D01*
X155392380Y-105584666D01*
X151900000Y-109592857D02*
X151852380Y-109688095D01*
X151852380Y-109830952D01*
X151900000Y-109973809D01*
X151995238Y-110069047D01*
X152090476Y-110116666D01*
X152280952Y-110164285D01*
X152423809Y-110164285D01*
X152614285Y-110116666D01*
X152709523Y-110069047D01*
X152804761Y-109973809D01*
X152852380Y-109830952D01*
X152852380Y-109735714D01*
X152804761Y-109592857D01*
X152757142Y-109545238D01*
X152423809Y-109545238D01*
X152423809Y-109735714D01*
X152852380Y-108592857D02*
X152852380Y-109164285D01*
X152852380Y-108878571D02*
X151852380Y-108878571D01*
X151995238Y-108973809D01*
X152090476Y-109069047D01*
X152138095Y-109164285D01*
X152947619Y-108402380D02*
X152947619Y-107640476D01*
X152852380Y-107402380D02*
X151852380Y-107402380D01*
X152566666Y-107069047D01*
X151852380Y-106735714D01*
X152852380Y-106735714D01*
X152852380Y-105735714D02*
X152852380Y-106307142D01*
X152852380Y-106021428D02*
X151852380Y-106021428D01*
X151995238Y-106116666D01*
X152090476Y-106211904D01*
X152138095Y-106307142D01*
X150217142Y-107529238D02*
X150264761Y-107576857D01*
X150312380Y-107719714D01*
X150312380Y-107814952D01*
X150264761Y-107957809D01*
X150169523Y-108053047D01*
X150074285Y-108100666D01*
X149883809Y-108148285D01*
X149740952Y-108148285D01*
X149550476Y-108100666D01*
X149455238Y-108053047D01*
X149360000Y-107957809D01*
X149312380Y-107814952D01*
X149312380Y-107719714D01*
X149360000Y-107576857D01*
X149407619Y-107529238D01*
X150312380Y-106624476D02*
X150312380Y-107100666D01*
X149312380Y-107100666D01*
X150312380Y-106291142D02*
X149312380Y-106291142D01*
X150312380Y-105719714D02*
X149740952Y-106148285D01*
X149312380Y-105719714D02*
X149883809Y-106291142D01*
X146820000Y-107695904D02*
X146772380Y-107791142D01*
X146772380Y-107934000D01*
X146820000Y-108076857D01*
X146915238Y-108172095D01*
X147010476Y-108219714D01*
X147200952Y-108267333D01*
X147343809Y-108267333D01*
X147534285Y-108219714D01*
X147629523Y-108172095D01*
X147724761Y-108076857D01*
X147772380Y-107934000D01*
X147772380Y-107838761D01*
X147724761Y-107695904D01*
X147677142Y-107648285D01*
X147343809Y-107648285D01*
X147343809Y-107838761D01*
X147772380Y-107219714D02*
X146772380Y-107219714D01*
X147772380Y-106648285D01*
X146772380Y-106648285D01*
X147772380Y-106172095D02*
X146772380Y-106172095D01*
X146772380Y-105934000D01*
X146820000Y-105791142D01*
X146915238Y-105695904D01*
X147010476Y-105648285D01*
X147200952Y-105600666D01*
X147343809Y-105600666D01*
X147534285Y-105648285D01*
X147629523Y-105695904D01*
X147724761Y-105791142D01*
X147772380Y-105934000D01*
X147772380Y-106172095D01*
X145184761Y-108100666D02*
X145232380Y-107957809D01*
X145232380Y-107719714D01*
X145184761Y-107624476D01*
X145137142Y-107576857D01*
X145041904Y-107529238D01*
X144946666Y-107529238D01*
X144851428Y-107576857D01*
X144803809Y-107624476D01*
X144756190Y-107719714D01*
X144708571Y-107910190D01*
X144660952Y-108005428D01*
X144613333Y-108053047D01*
X144518095Y-108100666D01*
X144422857Y-108100666D01*
X144327619Y-108053047D01*
X144280000Y-108005428D01*
X144232380Y-107910190D01*
X144232380Y-107672095D01*
X144280000Y-107529238D01*
X144232380Y-107243523D02*
X144232380Y-106672095D01*
X145232380Y-106957809D02*
X144232380Y-106957809D01*
X144708571Y-106005428D02*
X144756190Y-105862571D01*
X144803809Y-105814952D01*
X144899047Y-105767333D01*
X145041904Y-105767333D01*
X145137142Y-105814952D01*
X145184761Y-105862571D01*
X145232380Y-105957809D01*
X145232380Y-106338761D01*
X144232380Y-106338761D01*
X144232380Y-106005428D01*
X144280000Y-105910190D01*
X144327619Y-105862571D01*
X144422857Y-105814952D01*
X144518095Y-105814952D01*
X144613333Y-105862571D01*
X144660952Y-105910190D01*
X144708571Y-106005428D01*
X144708571Y-106338761D01*
X142168571Y-109783333D02*
X142216190Y-109640476D01*
X142263809Y-109592857D01*
X142359047Y-109545238D01*
X142501904Y-109545238D01*
X142597142Y-109592857D01*
X142644761Y-109640476D01*
X142692380Y-109735714D01*
X142692380Y-110116666D01*
X141692380Y-110116666D01*
X141692380Y-109783333D01*
X141740000Y-109688095D01*
X141787619Y-109640476D01*
X141882857Y-109592857D01*
X141978095Y-109592857D01*
X142073333Y-109640476D01*
X142120952Y-109688095D01*
X142168571Y-109783333D01*
X142168571Y-110116666D01*
X142692380Y-108592857D02*
X142692380Y-109164285D01*
X142692380Y-108878571D02*
X141692380Y-108878571D01*
X141835238Y-108973809D01*
X141930476Y-109069047D01*
X141978095Y-109164285D01*
X142787619Y-108402380D02*
X142787619Y-107640476D01*
X142692380Y-107402380D02*
X141692380Y-107402380D01*
X142406666Y-107069047D01*
X141692380Y-106735714D01*
X142692380Y-106735714D01*
X141692380Y-106354761D02*
X141692380Y-105735714D01*
X142073333Y-106069047D01*
X142073333Y-105926190D01*
X142120952Y-105830952D01*
X142168571Y-105783333D01*
X142263809Y-105735714D01*
X142501904Y-105735714D01*
X142597142Y-105783333D01*
X142644761Y-105830952D01*
X142692380Y-105926190D01*
X142692380Y-106211904D01*
X142644761Y-106307142D01*
X142597142Y-106354761D01*
X139200000Y-109592857D02*
X139152380Y-109688095D01*
X139152380Y-109830952D01*
X139200000Y-109973809D01*
X139295238Y-110069047D01*
X139390476Y-110116666D01*
X139580952Y-110164285D01*
X139723809Y-110164285D01*
X139914285Y-110116666D01*
X140009523Y-110069047D01*
X140104761Y-109973809D01*
X140152380Y-109830952D01*
X140152380Y-109735714D01*
X140104761Y-109592857D01*
X140057142Y-109545238D01*
X139723809Y-109545238D01*
X139723809Y-109735714D01*
X140152380Y-108592857D02*
X140152380Y-109164285D01*
X140152380Y-108878571D02*
X139152380Y-108878571D01*
X139295238Y-108973809D01*
X139390476Y-109069047D01*
X139438095Y-109164285D01*
X140247619Y-108402380D02*
X140247619Y-107640476D01*
X140152380Y-107402380D02*
X139152380Y-107402380D01*
X139866666Y-107069047D01*
X139152380Y-106735714D01*
X140152380Y-106735714D01*
X139152380Y-106354761D02*
X139152380Y-105735714D01*
X139533333Y-106069047D01*
X139533333Y-105926190D01*
X139580952Y-105830952D01*
X139628571Y-105783333D01*
X139723809Y-105735714D01*
X139961904Y-105735714D01*
X140057142Y-105783333D01*
X140104761Y-105830952D01*
X140152380Y-105926190D01*
X140152380Y-106211904D01*
X140104761Y-106307142D01*
X140057142Y-106354761D01*
X182808571Y-98607333D02*
X182856190Y-98464476D01*
X182903809Y-98416857D01*
X182999047Y-98369238D01*
X183141904Y-98369238D01*
X183237142Y-98416857D01*
X183284761Y-98464476D01*
X183332380Y-98559714D01*
X183332380Y-98940666D01*
X182332380Y-98940666D01*
X182332380Y-98607333D01*
X182380000Y-98512095D01*
X182427619Y-98464476D01*
X182522857Y-98416857D01*
X182618095Y-98416857D01*
X182713333Y-98464476D01*
X182760952Y-98512095D01*
X182808571Y-98607333D01*
X182808571Y-98940666D01*
X182427619Y-97988285D02*
X182380000Y-97940666D01*
X182332380Y-97845428D01*
X182332380Y-97607333D01*
X182380000Y-97512095D01*
X182427619Y-97464476D01*
X182522857Y-97416857D01*
X182618095Y-97416857D01*
X182760952Y-97464476D01*
X183332380Y-98035904D01*
X183332380Y-97416857D01*
X183427619Y-97226380D02*
X183427619Y-96464476D01*
X183332380Y-96226380D02*
X182332380Y-96226380D01*
X183046666Y-95893047D01*
X182332380Y-95559714D01*
X183332380Y-95559714D01*
X182427619Y-95131142D02*
X182380000Y-95083523D01*
X182332380Y-94988285D01*
X182332380Y-94750190D01*
X182380000Y-94654952D01*
X182427619Y-94607333D01*
X182522857Y-94559714D01*
X182618095Y-94559714D01*
X182760952Y-94607333D01*
X183332380Y-95178761D01*
X183332380Y-94559714D01*
X179840000Y-98416857D02*
X179792380Y-98512095D01*
X179792380Y-98654952D01*
X179840000Y-98797809D01*
X179935238Y-98893047D01*
X180030476Y-98940666D01*
X180220952Y-98988285D01*
X180363809Y-98988285D01*
X180554285Y-98940666D01*
X180649523Y-98893047D01*
X180744761Y-98797809D01*
X180792380Y-98654952D01*
X180792380Y-98559714D01*
X180744761Y-98416857D01*
X180697142Y-98369238D01*
X180363809Y-98369238D01*
X180363809Y-98559714D01*
X179887619Y-97988285D02*
X179840000Y-97940666D01*
X179792380Y-97845428D01*
X179792380Y-97607333D01*
X179840000Y-97512095D01*
X179887619Y-97464476D01*
X179982857Y-97416857D01*
X180078095Y-97416857D01*
X180220952Y-97464476D01*
X180792380Y-98035904D01*
X180792380Y-97416857D01*
X180887619Y-97226380D02*
X180887619Y-96464476D01*
X180792380Y-96226380D02*
X179792380Y-96226380D01*
X180506666Y-95893047D01*
X179792380Y-95559714D01*
X180792380Y-95559714D01*
X179792380Y-95178761D02*
X179792380Y-94559714D01*
X180173333Y-94893047D01*
X180173333Y-94750190D01*
X180220952Y-94654952D01*
X180268571Y-94607333D01*
X180363809Y-94559714D01*
X180601904Y-94559714D01*
X180697142Y-94607333D01*
X180744761Y-94654952D01*
X180792380Y-94750190D01*
X180792380Y-95035904D01*
X180744761Y-95131142D01*
X180697142Y-95178761D01*
X175712380Y-98369238D02*
X175236190Y-98702571D01*
X175712380Y-98940666D02*
X174712380Y-98940666D01*
X174712380Y-98559714D01*
X174760000Y-98464476D01*
X174807619Y-98416857D01*
X174902857Y-98369238D01*
X175045714Y-98369238D01*
X175140952Y-98416857D01*
X175188571Y-98464476D01*
X175236190Y-98559714D01*
X175236190Y-98940666D01*
X175712380Y-97416857D02*
X175712380Y-97988285D01*
X175712380Y-97702571D02*
X174712380Y-97702571D01*
X174855238Y-97797809D01*
X174950476Y-97893047D01*
X174998095Y-97988285D01*
X175807619Y-97226380D02*
X175807619Y-96464476D01*
X175712380Y-96226380D02*
X174712380Y-96226380D01*
X175426666Y-95893047D01*
X174712380Y-95559714D01*
X175712380Y-95559714D01*
X174807619Y-95131142D02*
X174760000Y-95083523D01*
X174712380Y-94988285D01*
X174712380Y-94750190D01*
X174760000Y-94654952D01*
X174807619Y-94607333D01*
X174902857Y-94559714D01*
X174998095Y-94559714D01*
X175140952Y-94607333D01*
X175712380Y-95178761D01*
X175712380Y-94559714D01*
X177300000Y-98297904D02*
X177252380Y-98393142D01*
X177252380Y-98536000D01*
X177300000Y-98678857D01*
X177395238Y-98774095D01*
X177490476Y-98821714D01*
X177680952Y-98869333D01*
X177823809Y-98869333D01*
X178014285Y-98821714D01*
X178109523Y-98774095D01*
X178204761Y-98678857D01*
X178252380Y-98536000D01*
X178252380Y-98440761D01*
X178204761Y-98297904D01*
X178157142Y-98250285D01*
X177823809Y-98250285D01*
X177823809Y-98440761D01*
X178252380Y-97821714D02*
X177252380Y-97821714D01*
X178252380Y-97250285D01*
X177252380Y-97250285D01*
X178252380Y-96774095D02*
X177252380Y-96774095D01*
X177252380Y-96536000D01*
X177300000Y-96393142D01*
X177395238Y-96297904D01*
X177490476Y-96250285D01*
X177680952Y-96202666D01*
X177823809Y-96202666D01*
X178014285Y-96250285D01*
X178109523Y-96297904D01*
X178204761Y-96393142D01*
X178252380Y-96536000D01*
X178252380Y-96774095D01*
X172220000Y-98297904D02*
X172172380Y-98393142D01*
X172172380Y-98536000D01*
X172220000Y-98678857D01*
X172315238Y-98774095D01*
X172410476Y-98821714D01*
X172600952Y-98869333D01*
X172743809Y-98869333D01*
X172934285Y-98821714D01*
X173029523Y-98774095D01*
X173124761Y-98678857D01*
X173172380Y-98536000D01*
X173172380Y-98440761D01*
X173124761Y-98297904D01*
X173077142Y-98250285D01*
X172743809Y-98250285D01*
X172743809Y-98440761D01*
X173172380Y-97821714D02*
X172172380Y-97821714D01*
X173172380Y-97250285D01*
X172172380Y-97250285D01*
X173172380Y-96774095D02*
X172172380Y-96774095D01*
X172172380Y-96536000D01*
X172220000Y-96393142D01*
X172315238Y-96297904D01*
X172410476Y-96250285D01*
X172600952Y-96202666D01*
X172743809Y-96202666D01*
X172934285Y-96250285D01*
X173029523Y-96297904D01*
X173124761Y-96393142D01*
X173172380Y-96536000D01*
X173172380Y-96774095D01*
X167568571Y-98607333D02*
X167616190Y-98464476D01*
X167663809Y-98416857D01*
X167759047Y-98369238D01*
X167901904Y-98369238D01*
X167997142Y-98416857D01*
X168044761Y-98464476D01*
X168092380Y-98559714D01*
X168092380Y-98940666D01*
X167092380Y-98940666D01*
X167092380Y-98607333D01*
X167140000Y-98512095D01*
X167187619Y-98464476D01*
X167282857Y-98416857D01*
X167378095Y-98416857D01*
X167473333Y-98464476D01*
X167520952Y-98512095D01*
X167568571Y-98607333D01*
X167568571Y-98940666D01*
X168092380Y-97416857D02*
X168092380Y-97988285D01*
X168092380Y-97702571D02*
X167092380Y-97702571D01*
X167235238Y-97797809D01*
X167330476Y-97893047D01*
X167378095Y-97988285D01*
X168187619Y-97226380D02*
X168187619Y-96464476D01*
X168092380Y-96226380D02*
X167092380Y-96226380D01*
X167806666Y-95893047D01*
X167092380Y-95559714D01*
X168092380Y-95559714D01*
X168092380Y-94559714D02*
X168092380Y-95131142D01*
X168092380Y-94845428D02*
X167092380Y-94845428D01*
X167235238Y-94940666D01*
X167330476Y-95035904D01*
X167378095Y-95131142D01*
X165552380Y-98369238D02*
X165076190Y-98702571D01*
X165552380Y-98940666D02*
X164552380Y-98940666D01*
X164552380Y-98559714D01*
X164600000Y-98464476D01*
X164647619Y-98416857D01*
X164742857Y-98369238D01*
X164885714Y-98369238D01*
X164980952Y-98416857D01*
X165028571Y-98464476D01*
X165076190Y-98559714D01*
X165076190Y-98940666D01*
X164647619Y-97988285D02*
X164600000Y-97940666D01*
X164552380Y-97845428D01*
X164552380Y-97607333D01*
X164600000Y-97512095D01*
X164647619Y-97464476D01*
X164742857Y-97416857D01*
X164838095Y-97416857D01*
X164980952Y-97464476D01*
X165552380Y-98035904D01*
X165552380Y-97416857D01*
X165647619Y-97226380D02*
X165647619Y-96464476D01*
X165552380Y-96226380D02*
X164552380Y-96226380D01*
X165266666Y-95893047D01*
X164552380Y-95559714D01*
X165552380Y-95559714D01*
X165552380Y-94559714D02*
X165552380Y-95131142D01*
X165552380Y-94845428D02*
X164552380Y-94845428D01*
X164695238Y-94940666D01*
X164790476Y-95035904D01*
X164838095Y-95131142D01*
X163012380Y-98813904D02*
X162012380Y-98813904D01*
X162012380Y-98575809D01*
X162060000Y-98432952D01*
X162155238Y-98337714D01*
X162250476Y-98290095D01*
X162440952Y-98242476D01*
X162583809Y-98242476D01*
X162774285Y-98290095D01*
X162869523Y-98337714D01*
X162964761Y-98432952D01*
X163012380Y-98575809D01*
X163012380Y-98813904D01*
X159520000Y-98297904D02*
X159472380Y-98393142D01*
X159472380Y-98536000D01*
X159520000Y-98678857D01*
X159615238Y-98774095D01*
X159710476Y-98821714D01*
X159900952Y-98869333D01*
X160043809Y-98869333D01*
X160234285Y-98821714D01*
X160329523Y-98774095D01*
X160424761Y-98678857D01*
X160472380Y-98536000D01*
X160472380Y-98440761D01*
X160424761Y-98297904D01*
X160377142Y-98250285D01*
X160043809Y-98250285D01*
X160043809Y-98440761D01*
X160472380Y-97821714D02*
X159472380Y-97821714D01*
X160472380Y-97250285D01*
X159472380Y-97250285D01*
X160472380Y-96774095D02*
X159472380Y-96774095D01*
X159472380Y-96536000D01*
X159520000Y-96393142D01*
X159615238Y-96297904D01*
X159710476Y-96250285D01*
X159900952Y-96202666D01*
X160043809Y-96202666D01*
X160234285Y-96250285D01*
X160329523Y-96297904D01*
X160424761Y-96393142D01*
X160472380Y-96536000D01*
X160472380Y-96774095D01*
X151900000Y-98297904D02*
X151852380Y-98393142D01*
X151852380Y-98536000D01*
X151900000Y-98678857D01*
X151995238Y-98774095D01*
X152090476Y-98821714D01*
X152280952Y-98869333D01*
X152423809Y-98869333D01*
X152614285Y-98821714D01*
X152709523Y-98774095D01*
X152804761Y-98678857D01*
X152852380Y-98536000D01*
X152852380Y-98440761D01*
X152804761Y-98297904D01*
X152757142Y-98250285D01*
X152423809Y-98250285D01*
X152423809Y-98440761D01*
X152852380Y-97821714D02*
X151852380Y-97821714D01*
X152852380Y-97250285D01*
X151852380Y-97250285D01*
X152852380Y-96774095D02*
X151852380Y-96774095D01*
X151852380Y-96536000D01*
X151900000Y-96393142D01*
X151995238Y-96297904D01*
X152090476Y-96250285D01*
X152280952Y-96202666D01*
X152423809Y-96202666D01*
X152614285Y-96250285D01*
X152709523Y-96297904D01*
X152804761Y-96393142D01*
X152852380Y-96536000D01*
X152852380Y-96774095D01*
X157837142Y-98242476D02*
X157884761Y-98290095D01*
X157932380Y-98432952D01*
X157932380Y-98528190D01*
X157884761Y-98671047D01*
X157789523Y-98766285D01*
X157694285Y-98813904D01*
X157503809Y-98861523D01*
X157360952Y-98861523D01*
X157170476Y-98813904D01*
X157075238Y-98766285D01*
X156980000Y-98671047D01*
X156932380Y-98528190D01*
X156932380Y-98432952D01*
X156980000Y-98290095D01*
X157027619Y-98242476D01*
X154868571Y-98480571D02*
X154916190Y-98337714D01*
X154963809Y-98290095D01*
X155059047Y-98242476D01*
X155201904Y-98242476D01*
X155297142Y-98290095D01*
X155344761Y-98337714D01*
X155392380Y-98432952D01*
X155392380Y-98813904D01*
X154392380Y-98813904D01*
X154392380Y-98480571D01*
X154440000Y-98385333D01*
X154487619Y-98337714D01*
X154582857Y-98290095D01*
X154678095Y-98290095D01*
X154773333Y-98337714D01*
X154820952Y-98385333D01*
X154868571Y-98480571D01*
X154868571Y-98813904D01*
X149312380Y-98702666D02*
X149312380Y-98512190D01*
X149360000Y-98416952D01*
X149455238Y-98321714D01*
X149645714Y-98274095D01*
X149979047Y-98274095D01*
X150169523Y-98321714D01*
X150264761Y-98416952D01*
X150312380Y-98512190D01*
X150312380Y-98702666D01*
X150264761Y-98797904D01*
X150169523Y-98893142D01*
X149979047Y-98940761D01*
X149645714Y-98940761D01*
X149455238Y-98893142D01*
X149360000Y-98797904D01*
X149312380Y-98702666D01*
X149788571Y-97845523D02*
X149788571Y-97512190D01*
X150312380Y-97369333D02*
X150312380Y-97845523D01*
X149312380Y-97845523D01*
X149312380Y-97369333D01*
X149931428Y-96940761D02*
X149931428Y-96178857D01*
X147248571Y-98766285D02*
X147248571Y-98432952D01*
X147772380Y-98290095D02*
X147772380Y-98766285D01*
X146772380Y-98766285D01*
X146772380Y-98290095D01*
X145232380Y-98369238D02*
X144756190Y-98702571D01*
X145232380Y-98940666D02*
X144232380Y-98940666D01*
X144232380Y-98559714D01*
X144280000Y-98464476D01*
X144327619Y-98416857D01*
X144422857Y-98369238D01*
X144565714Y-98369238D01*
X144660952Y-98416857D01*
X144708571Y-98464476D01*
X144756190Y-98559714D01*
X144756190Y-98940666D01*
X145232380Y-97416857D02*
X145232380Y-97988285D01*
X145232380Y-97702571D02*
X144232380Y-97702571D01*
X144375238Y-97797809D01*
X144470476Y-97893047D01*
X144518095Y-97988285D01*
X145327619Y-97226380D02*
X145327619Y-96464476D01*
X145232380Y-96226380D02*
X144232380Y-96226380D01*
X144946666Y-95893047D01*
X144232380Y-95559714D01*
X145232380Y-95559714D01*
X144232380Y-95178761D02*
X144232380Y-94559714D01*
X144613333Y-94893047D01*
X144613333Y-94750190D01*
X144660952Y-94654952D01*
X144708571Y-94607333D01*
X144803809Y-94559714D01*
X145041904Y-94559714D01*
X145137142Y-94607333D01*
X145184761Y-94654952D01*
X145232380Y-94750190D01*
X145232380Y-95035904D01*
X145184761Y-95131142D01*
X145137142Y-95178761D01*
X141994000Y-98297904D02*
X141946380Y-98393142D01*
X141946380Y-98536000D01*
X141994000Y-98678857D01*
X142089238Y-98774095D01*
X142184476Y-98821714D01*
X142374952Y-98869333D01*
X142517809Y-98869333D01*
X142708285Y-98821714D01*
X142803523Y-98774095D01*
X142898761Y-98678857D01*
X142946380Y-98536000D01*
X142946380Y-98440761D01*
X142898761Y-98297904D01*
X142851142Y-98250285D01*
X142517809Y-98250285D01*
X142517809Y-98440761D01*
X142946380Y-97821714D02*
X141946380Y-97821714D01*
X142946380Y-97250285D01*
X141946380Y-97250285D01*
X142946380Y-96774095D02*
X141946380Y-96774095D01*
X141946380Y-96536000D01*
X141994000Y-96393142D01*
X142089238Y-96297904D01*
X142184476Y-96250285D01*
X142374952Y-96202666D01*
X142517809Y-96202666D01*
X142708285Y-96250285D01*
X142803523Y-96297904D01*
X142898761Y-96393142D01*
X142946380Y-96536000D01*
X142946380Y-96774095D01*
X139771428Y-98774095D02*
X139771428Y-98012190D01*
X140152380Y-98393142D02*
X139390476Y-98393142D01*
X139152380Y-97059809D02*
X139152380Y-97536000D01*
X139628571Y-97583619D01*
X139580952Y-97536000D01*
X139533333Y-97440761D01*
X139533333Y-97202666D01*
X139580952Y-97107428D01*
X139628571Y-97059809D01*
X139723809Y-97012190D01*
X139961904Y-97012190D01*
X140057142Y-97059809D01*
X140104761Y-97107428D01*
X140152380Y-97202666D01*
X140152380Y-97440761D01*
X140104761Y-97536000D01*
X140057142Y-97583619D01*
X139485714Y-96678857D02*
X140152380Y-96440761D01*
X139485714Y-96202666D01*
X137231428Y-98774095D02*
X137231428Y-98012190D01*
X137612380Y-98393142D02*
X136850476Y-98393142D01*
X136612380Y-97059809D02*
X136612380Y-97536000D01*
X137088571Y-97583619D01*
X137040952Y-97536000D01*
X136993333Y-97440761D01*
X136993333Y-97202666D01*
X137040952Y-97107428D01*
X137088571Y-97059809D01*
X137183809Y-97012190D01*
X137421904Y-97012190D01*
X137517142Y-97059809D01*
X137564761Y-97107428D01*
X137612380Y-97202666D01*
X137612380Y-97440761D01*
X137564761Y-97536000D01*
X137517142Y-97583619D01*
X136945714Y-96678857D02*
X137612380Y-96440761D01*
X136945714Y-96202666D01*
X185348571Y-98607333D02*
X185396190Y-98464476D01*
X185443809Y-98416857D01*
X185539047Y-98369238D01*
X185681904Y-98369238D01*
X185777142Y-98416857D01*
X185824761Y-98464476D01*
X185872380Y-98559714D01*
X185872380Y-98940666D01*
X184872380Y-98940666D01*
X184872380Y-98607333D01*
X184920000Y-98512095D01*
X184967619Y-98464476D01*
X185062857Y-98416857D01*
X185158095Y-98416857D01*
X185253333Y-98464476D01*
X185300952Y-98512095D01*
X185348571Y-98607333D01*
X185348571Y-98940666D01*
X184967619Y-97988285D02*
X184920000Y-97940666D01*
X184872380Y-97845428D01*
X184872380Y-97607333D01*
X184920000Y-97512095D01*
X184967619Y-97464476D01*
X185062857Y-97416857D01*
X185158095Y-97416857D01*
X185300952Y-97464476D01*
X185872380Y-98035904D01*
X185872380Y-97416857D01*
X185967619Y-97226380D02*
X185967619Y-96464476D01*
X185872380Y-96226380D02*
X184872380Y-96226380D01*
X185586666Y-95893047D01*
X184872380Y-95559714D01*
X185872380Y-95559714D01*
X184872380Y-95178761D02*
X184872380Y-94559714D01*
X185253333Y-94893047D01*
X185253333Y-94750190D01*
X185300952Y-94654952D01*
X185348571Y-94607333D01*
X185443809Y-94559714D01*
X185681904Y-94559714D01*
X185777142Y-94607333D01*
X185824761Y-94654952D01*
X185872380Y-94750190D01*
X185872380Y-95035904D01*
X185824761Y-95131142D01*
X185777142Y-95178761D01*
X184920000Y-107695904D02*
X184872380Y-107791142D01*
X184872380Y-107934000D01*
X184920000Y-108076857D01*
X185015238Y-108172095D01*
X185110476Y-108219714D01*
X185300952Y-108267333D01*
X185443809Y-108267333D01*
X185634285Y-108219714D01*
X185729523Y-108172095D01*
X185824761Y-108076857D01*
X185872380Y-107934000D01*
X185872380Y-107838761D01*
X185824761Y-107695904D01*
X185777142Y-107648285D01*
X185443809Y-107648285D01*
X185443809Y-107838761D01*
X185872380Y-107219714D02*
X184872380Y-107219714D01*
X185872380Y-106648285D01*
X184872380Y-106648285D01*
X185872380Y-106172095D02*
X184872380Y-106172095D01*
X184872380Y-105934000D01*
X184920000Y-105791142D01*
X185015238Y-105695904D01*
X185110476Y-105648285D01*
X185300952Y-105600666D01*
X185443809Y-105600666D01*
X185634285Y-105648285D01*
X185729523Y-105695904D01*
X185824761Y-105791142D01*
X185872380Y-105934000D01*
X185872380Y-106172095D01*
X133405619Y-101377714D02*
X133358000Y-101330095D01*
X133310380Y-101234857D01*
X133310380Y-100996761D01*
X133358000Y-100901523D01*
X133405619Y-100853904D01*
X133500857Y-100806285D01*
X133596095Y-100806285D01*
X133738952Y-100853904D01*
X134310380Y-101425333D01*
X134310380Y-100806285D01*
X134310380Y-103346285D02*
X134310380Y-103917714D01*
X134310380Y-103632000D02*
X133310380Y-103632000D01*
X133453238Y-103727238D01*
X133548476Y-103822476D01*
X133596095Y-103917714D01*
X151090571Y-83494571D02*
X151233428Y-83542190D01*
X151281047Y-83589809D01*
X151328666Y-83685047D01*
X151328666Y-83827904D01*
X151281047Y-83923142D01*
X151233428Y-83970761D01*
X151138190Y-84018380D01*
X150757238Y-84018380D01*
X150757238Y-83018380D01*
X151090571Y-83018380D01*
X151185809Y-83066000D01*
X151233428Y-83113619D01*
X151281047Y-83208857D01*
X151281047Y-83304095D01*
X151233428Y-83399333D01*
X151185809Y-83446952D01*
X151090571Y-83494571D01*
X150757238Y-83494571D01*
X151900095Y-84018380D02*
X151804857Y-83970761D01*
X151757238Y-83923142D01*
X151709619Y-83827904D01*
X151709619Y-83542190D01*
X151757238Y-83446952D01*
X151804857Y-83399333D01*
X151900095Y-83351714D01*
X152042952Y-83351714D01*
X152138190Y-83399333D01*
X152185809Y-83446952D01*
X152233428Y-83542190D01*
X152233428Y-83827904D01*
X152185809Y-83923142D01*
X152138190Y-83970761D01*
X152042952Y-84018380D01*
X151900095Y-84018380D01*
X152519142Y-83351714D02*
X152900095Y-83351714D01*
X152662000Y-83018380D02*
X152662000Y-83875523D01*
X152709619Y-83970761D01*
X152804857Y-84018380D01*
X152900095Y-84018380D01*
X153090571Y-83351714D02*
X153471523Y-83351714D01*
X153233428Y-83018380D02*
X153233428Y-83875523D01*
X153281047Y-83970761D01*
X153376285Y-84018380D01*
X153471523Y-84018380D01*
X153947714Y-84018380D02*
X153852476Y-83970761D01*
X153804857Y-83923142D01*
X153757238Y-83827904D01*
X153757238Y-83542190D01*
X153804857Y-83446952D01*
X153852476Y-83399333D01*
X153947714Y-83351714D01*
X154090571Y-83351714D01*
X154185809Y-83399333D01*
X154233428Y-83446952D01*
X154281047Y-83542190D01*
X154281047Y-83827904D01*
X154233428Y-83923142D01*
X154185809Y-83970761D01*
X154090571Y-84018380D01*
X153947714Y-84018380D01*
X154709619Y-84018380D02*
X154709619Y-83351714D01*
X154709619Y-83446952D02*
X154757238Y-83399333D01*
X154852476Y-83351714D01*
X154995333Y-83351714D01*
X155090571Y-83399333D01*
X155138190Y-83494571D01*
X155138190Y-84018380D01*
X155138190Y-83494571D02*
X155185809Y-83399333D01*
X155281047Y-83351714D01*
X155423904Y-83351714D01*
X155519142Y-83399333D01*
X155566761Y-83494571D01*
X155566761Y-84018380D01*
X150995333Y-58618380D02*
X150995333Y-57618380D01*
X151328666Y-58332666D01*
X151662000Y-57618380D01*
X151662000Y-58618380D01*
X152138190Y-58618380D02*
X152138190Y-57951714D01*
X152138190Y-57618380D02*
X152090571Y-57666000D01*
X152138190Y-57713619D01*
X152185809Y-57666000D01*
X152138190Y-57618380D01*
X152138190Y-57713619D01*
X153042952Y-58618380D02*
X153042952Y-57618380D01*
X153042952Y-58570761D02*
X152947714Y-58618380D01*
X152757238Y-58618380D01*
X152662000Y-58570761D01*
X152614380Y-58523142D01*
X152566761Y-58427904D01*
X152566761Y-58142190D01*
X152614380Y-58046952D01*
X152662000Y-57999333D01*
X152757238Y-57951714D01*
X152947714Y-57951714D01*
X153042952Y-57999333D01*
X153947714Y-58618380D02*
X153947714Y-57618380D01*
X153947714Y-58570761D02*
X153852476Y-58618380D01*
X153662000Y-58618380D01*
X153566761Y-58570761D01*
X153519142Y-58523142D01*
X153471523Y-58427904D01*
X153471523Y-58142190D01*
X153519142Y-58046952D01*
X153566761Y-57999333D01*
X153662000Y-57951714D01*
X153852476Y-57951714D01*
X153947714Y-57999333D01*
X154566761Y-58618380D02*
X154471523Y-58570761D01*
X154423904Y-58475523D01*
X154423904Y-57618380D01*
X155328666Y-58570761D02*
X155233428Y-58618380D01*
X155042952Y-58618380D01*
X154947714Y-58570761D01*
X154900095Y-58475523D01*
X154900095Y-58094571D01*
X154947714Y-57999333D01*
X155042952Y-57951714D01*
X155233428Y-57951714D01*
X155328666Y-57999333D01*
X155376285Y-58094571D01*
X155376285Y-58189809D01*
X154900095Y-58285047D01*
X150955523Y-29678380D02*
X151526952Y-29678380D01*
X151241238Y-30678380D02*
X151241238Y-29678380D01*
X152003142Y-30678380D02*
X151907904Y-30630761D01*
X151860285Y-30583142D01*
X151812666Y-30487904D01*
X151812666Y-30202190D01*
X151860285Y-30106952D01*
X151907904Y-30059333D01*
X152003142Y-30011714D01*
X152146000Y-30011714D01*
X152241238Y-30059333D01*
X152288857Y-30106952D01*
X152336476Y-30202190D01*
X152336476Y-30487904D01*
X152288857Y-30583142D01*
X152241238Y-30630761D01*
X152146000Y-30678380D01*
X152003142Y-30678380D01*
X152765047Y-30011714D02*
X152765047Y-31011714D01*
X152765047Y-30059333D02*
X152860285Y-30011714D01*
X153050761Y-30011714D01*
X153146000Y-30059333D01*
X153193619Y-30106952D01*
X153241238Y-30202190D01*
X153241238Y-30487904D01*
X153193619Y-30583142D01*
X153146000Y-30630761D01*
X153050761Y-30678380D01*
X152860285Y-30678380D01*
X152765047Y-30630761D01*
D11*
X161543773Y-54210857D02*
X161752416Y-54283428D01*
X162115273Y-54283428D01*
X162269487Y-54210857D01*
X162351130Y-54138285D01*
X162441844Y-53993142D01*
X162459987Y-53848000D01*
X162405558Y-53702857D01*
X162342058Y-53630285D01*
X162205987Y-53557714D01*
X161924773Y-53485142D01*
X161788701Y-53412571D01*
X161725201Y-53340000D01*
X161670773Y-53194857D01*
X161688916Y-53049714D01*
X161779630Y-52904571D01*
X161861273Y-52832000D01*
X162015487Y-52759428D01*
X162378344Y-52759428D01*
X162586987Y-52832000D01*
X163711844Y-54283428D02*
X163811630Y-53485142D01*
X163757201Y-53340000D01*
X163621130Y-53267428D01*
X163330844Y-53267428D01*
X163176630Y-53340000D01*
X163720916Y-54210857D02*
X163566701Y-54283428D01*
X163203844Y-54283428D01*
X163067773Y-54210857D01*
X163013344Y-54065714D01*
X163031487Y-53920571D01*
X163122201Y-53775428D01*
X163276416Y-53702857D01*
X163639273Y-53702857D01*
X163793487Y-53630285D01*
X164655273Y-54283428D02*
X164519201Y-54210857D01*
X164464773Y-54065714D01*
X164628058Y-52759428D01*
X165888987Y-54283428D02*
X165988773Y-53485142D01*
X165934344Y-53340000D01*
X165798273Y-53267428D01*
X165507987Y-53267428D01*
X165353773Y-53340000D01*
X165898058Y-54210857D02*
X165743844Y-54283428D01*
X165380987Y-54283428D01*
X165244916Y-54210857D01*
X165190487Y-54065714D01*
X165208630Y-53920571D01*
X165299344Y-53775428D01*
X165453558Y-53702857D01*
X165816416Y-53702857D01*
X165970630Y-53630285D01*
X166614701Y-54283428D02*
X166741701Y-53267428D01*
X166723558Y-53412571D02*
X166805201Y-53340000D01*
X166959416Y-53267428D01*
X167177130Y-53267428D01*
X167313201Y-53340000D01*
X167367630Y-53485142D01*
X167267844Y-54283428D01*
X167367630Y-53485142D02*
X167458344Y-53340000D01*
X167612558Y-53267428D01*
X167830273Y-53267428D01*
X167966344Y-53340000D01*
X168020773Y-53485142D01*
X167920987Y-54283428D01*
X169299844Y-54283428D02*
X169399630Y-53485142D01*
X169345201Y-53340000D01*
X169209130Y-53267428D01*
X168918844Y-53267428D01*
X168764630Y-53340000D01*
X169308916Y-54210857D02*
X169154701Y-54283428D01*
X168791844Y-54283428D01*
X168655773Y-54210857D01*
X168601344Y-54065714D01*
X168619487Y-53920571D01*
X168710201Y-53775428D01*
X168864416Y-53702857D01*
X169227273Y-53702857D01*
X169381487Y-53630285D01*
X170152558Y-53267428D02*
X170025558Y-54283428D01*
X170134416Y-53412571D02*
X170216058Y-53340000D01*
X170370273Y-53267428D01*
X170587987Y-53267428D01*
X170724058Y-53340000D01*
X170778487Y-53485142D01*
X170678701Y-54283428D01*
X161951987Y-56678285D02*
X161870344Y-56750857D01*
X161643558Y-56823428D01*
X161498416Y-56823428D01*
X161289773Y-56750857D01*
X161162773Y-56605714D01*
X161108344Y-56460571D01*
X161072058Y-56170285D01*
X161099273Y-55952571D01*
X161208130Y-55662285D01*
X161298844Y-55517142D01*
X161462130Y-55372000D01*
X161688916Y-55299428D01*
X161834058Y-55299428D01*
X162042701Y-55372000D01*
X162106201Y-55444571D01*
X162804701Y-56823428D02*
X162668630Y-56750857D01*
X162605130Y-56678285D01*
X162550701Y-56533142D01*
X162605130Y-56097714D01*
X162695844Y-55952571D01*
X162777487Y-55880000D01*
X162931701Y-55807428D01*
X163149416Y-55807428D01*
X163285487Y-55880000D01*
X163348987Y-55952571D01*
X163403416Y-56097714D01*
X163348987Y-56533142D01*
X163258273Y-56678285D01*
X163176630Y-56750857D01*
X163022416Y-56823428D01*
X162804701Y-56823428D01*
X163965844Y-56823428D02*
X164092844Y-55807428D01*
X164074701Y-55952571D02*
X164156344Y-55880000D01*
X164310558Y-55807428D01*
X164528273Y-55807428D01*
X164664344Y-55880000D01*
X164718773Y-56025142D01*
X164618987Y-56823428D01*
X164718773Y-56025142D02*
X164809487Y-55880000D01*
X164963701Y-55807428D01*
X165181416Y-55807428D01*
X165317487Y-55880000D01*
X165371916Y-56025142D01*
X165272130Y-56823428D01*
X166124844Y-55807428D02*
X165934344Y-57331428D01*
X166115773Y-55880000D02*
X166269987Y-55807428D01*
X166560273Y-55807428D01*
X166696344Y-55880000D01*
X166759844Y-55952571D01*
X166814273Y-56097714D01*
X166759844Y-56533142D01*
X166669130Y-56678285D01*
X166587487Y-56750857D01*
X166433273Y-56823428D01*
X166142987Y-56823428D01*
X166006916Y-56750857D01*
X168156844Y-55807428D02*
X168029844Y-56823428D01*
X167503701Y-55807428D02*
X167403916Y-56605714D01*
X167458344Y-56750857D01*
X167594416Y-56823428D01*
X167812130Y-56823428D01*
X167966344Y-56750857D01*
X168047987Y-56678285D01*
X168664844Y-55807428D02*
X169245416Y-55807428D01*
X168946058Y-55299428D02*
X168782773Y-56605714D01*
X168837201Y-56750857D01*
X168973273Y-56823428D01*
X169118416Y-56823428D01*
X169626416Y-56823428D02*
X169753416Y-55807428D01*
X169816916Y-55299428D02*
X169735273Y-55372000D01*
X169798773Y-55444571D01*
X169880416Y-55372000D01*
X169816916Y-55299428D01*
X169798773Y-55444571D01*
X170479130Y-55807428D02*
X170352130Y-56823428D01*
X170460987Y-55952571D02*
X170542630Y-55880000D01*
X170696844Y-55807428D01*
X170914558Y-55807428D01*
X171050630Y-55880000D01*
X171105058Y-56025142D01*
X171005273Y-56823428D01*
X172511130Y-55807428D02*
X172356916Y-57041142D01*
X172266201Y-57186285D01*
X172184558Y-57258857D01*
X172030344Y-57331428D01*
X171812630Y-57331428D01*
X171676558Y-57258857D01*
X172393201Y-56750857D02*
X172238987Y-56823428D01*
X171948701Y-56823428D01*
X171812630Y-56750857D01*
X171749130Y-56678285D01*
X171694701Y-56533142D01*
X171749130Y-56097714D01*
X171839844Y-55952571D01*
X171921487Y-55880000D01*
X172075701Y-55807428D01*
X172365987Y-55807428D01*
X172502058Y-55880000D01*
D10*
X190031714Y-105496952D02*
X190698380Y-105258857D01*
X190031714Y-105020761D01*
X189698380Y-103877904D02*
X190507904Y-103877904D01*
X190603142Y-103830285D01*
X190650761Y-103782666D01*
X190698380Y-103687428D01*
X190698380Y-103496952D01*
X190650761Y-103401714D01*
X190603142Y-103354095D01*
X190507904Y-103306476D01*
X189698380Y-103306476D01*
X190650761Y-102877904D02*
X190698380Y-102735047D01*
X190698380Y-102496952D01*
X190650761Y-102401714D01*
X190603142Y-102354095D01*
X190507904Y-102306476D01*
X190412666Y-102306476D01*
X190317428Y-102354095D01*
X190269809Y-102401714D01*
X190222190Y-102496952D01*
X190174571Y-102687428D01*
X190126952Y-102782666D01*
X190079333Y-102830285D01*
X189984095Y-102877904D01*
X189888857Y-102877904D01*
X189793619Y-102830285D01*
X189746000Y-102782666D01*
X189698380Y-102687428D01*
X189698380Y-102449333D01*
X189746000Y-102306476D01*
X190174571Y-101544571D02*
X190222190Y-101401714D01*
X190269809Y-101354095D01*
X190365047Y-101306476D01*
X190507904Y-101306476D01*
X190603142Y-101354095D01*
X190650761Y-101401714D01*
X190698380Y-101496952D01*
X190698380Y-101877904D01*
X189698380Y-101877904D01*
X189698380Y-101544571D01*
X189746000Y-101449333D01*
X189793619Y-101401714D01*
X189888857Y-101354095D01*
X189984095Y-101354095D01*
X190079333Y-101401714D01*
X190126952Y-101449333D01*
X190174571Y-101544571D01*
X190174571Y-101877904D01*
X190031714Y-100211238D02*
X190698380Y-99973142D01*
X190031714Y-99735047D01*
X172918380Y-29098380D02*
X171918380Y-29098380D01*
X172632666Y-28765047D01*
X171918380Y-28431714D01*
X172918380Y-28431714D01*
X172918380Y-27526952D02*
X172394571Y-27526952D01*
X172299333Y-27574571D01*
X172251714Y-27669809D01*
X172251714Y-27860285D01*
X172299333Y-27955523D01*
X172870761Y-27526952D02*
X172918380Y-27622190D01*
X172918380Y-27860285D01*
X172870761Y-27955523D01*
X172775523Y-28003142D01*
X172680285Y-28003142D01*
X172585047Y-27955523D01*
X172537428Y-27860285D01*
X172537428Y-27622190D01*
X172489809Y-27526952D01*
X172251714Y-27193619D02*
X172251714Y-26812666D01*
X171918380Y-27050761D02*
X172775523Y-27050761D01*
X172870761Y-27003142D01*
X172918380Y-26907904D01*
X172918380Y-26812666D01*
X172918380Y-26479333D02*
X172251714Y-26479333D01*
X172442190Y-26479333D02*
X172346952Y-26431714D01*
X172299333Y-26384095D01*
X172251714Y-26288857D01*
X172251714Y-26193619D01*
X172918380Y-25860285D02*
X172251714Y-25860285D01*
X171918380Y-25860285D02*
X171966000Y-25907904D01*
X172013619Y-25860285D01*
X171966000Y-25812666D01*
X171918380Y-25860285D01*
X172013619Y-25860285D01*
X172918380Y-25479333D02*
X172251714Y-24955523D01*
X172251714Y-25479333D02*
X172918380Y-24955523D01*
X172870761Y-23860285D02*
X172918380Y-23717428D01*
X172918380Y-23479333D01*
X172870761Y-23384095D01*
X172823142Y-23336476D01*
X172727904Y-23288857D01*
X172632666Y-23288857D01*
X172537428Y-23336476D01*
X172489809Y-23384095D01*
X172442190Y-23479333D01*
X172394571Y-23669809D01*
X172346952Y-23765047D01*
X172299333Y-23812666D01*
X172204095Y-23860285D01*
X172108857Y-23860285D01*
X172013619Y-23812666D01*
X171966000Y-23765047D01*
X171918380Y-23669809D01*
X171918380Y-23431714D01*
X171966000Y-23288857D01*
X172918380Y-22860285D02*
X172251714Y-22860285D01*
X171918380Y-22860285D02*
X171966000Y-22907904D01*
X172013619Y-22860285D01*
X171966000Y-22812666D01*
X171918380Y-22860285D01*
X172013619Y-22860285D01*
X172251714Y-22479333D02*
X172251714Y-21955523D01*
X172918380Y-22479333D01*
X172918380Y-21955523D01*
X172870761Y-21193619D02*
X172918380Y-21288857D01*
X172918380Y-21479333D01*
X172870761Y-21574571D01*
X172775523Y-21622190D01*
X172394571Y-21622190D01*
X172299333Y-21574571D01*
X172251714Y-21479333D01*
X172251714Y-21288857D01*
X172299333Y-21193619D01*
X172394571Y-21146000D01*
X172489809Y-21146000D01*
X172585047Y-21622190D01*
D12*
X179832000Y-27686000D02*
X175514000Y-27686000D01*
X177800000Y-22606000D02*
X182372000Y-22606000D01*
D10*
X179530476Y-21042380D02*
X180149523Y-21042380D01*
X179816190Y-21423333D01*
X179959047Y-21423333D01*
X180054285Y-21470952D01*
X180101904Y-21518571D01*
X180149523Y-21613809D01*
X180149523Y-21851904D01*
X180101904Y-21947142D01*
X180054285Y-21994761D01*
X179959047Y-22042380D01*
X179673333Y-22042380D01*
X179578095Y-21994761D01*
X179530476Y-21947142D01*
X180530476Y-21137619D02*
X180578095Y-21090000D01*
X180673333Y-21042380D01*
X180911428Y-21042380D01*
X181006666Y-21090000D01*
X181054285Y-21137619D01*
X181101904Y-21232857D01*
X181101904Y-21328095D01*
X181054285Y-21470952D01*
X180482857Y-22042380D01*
X181101904Y-22042380D01*
X177260285Y-28154380D02*
X177069809Y-28154380D01*
X176974571Y-28202000D01*
X176926952Y-28249619D01*
X176831714Y-28392476D01*
X176784095Y-28582952D01*
X176784095Y-28963904D01*
X176831714Y-29059142D01*
X176879333Y-29106761D01*
X176974571Y-29154380D01*
X177165047Y-29154380D01*
X177260285Y-29106761D01*
X177307904Y-29059142D01*
X177355523Y-28963904D01*
X177355523Y-28725809D01*
X177307904Y-28630571D01*
X177260285Y-28582952D01*
X177165047Y-28535333D01*
X176974571Y-28535333D01*
X176879333Y-28582952D01*
X176831714Y-28630571D01*
X176784095Y-28725809D01*
X178212666Y-28487714D02*
X178212666Y-29154380D01*
X177974571Y-28106761D02*
X177736476Y-28821047D01*
X178355523Y-28821047D01*
D13*
G36*
X173950563Y-39902648D02*
G01*
X173964828Y-39934525D01*
X173946771Y-40075373D01*
X173790547Y-40262911D01*
X173687004Y-40354685D01*
X173355000Y-40633652D01*
X173736000Y-40615660D01*
X173970028Y-40611285D01*
X174080973Y-40646469D01*
X174114719Y-40749635D01*
X174117000Y-40851667D01*
X174104475Y-41012201D01*
X174035143Y-41085204D01*
X173861366Y-41104975D01*
X173764237Y-41105667D01*
X173527848Y-41120823D01*
X173367261Y-41158668D01*
X173343356Y-41173770D01*
X173332859Y-41262920D01*
X173455077Y-41341040D01*
X173673493Y-41391153D01*
X173831466Y-41400704D01*
X174108904Y-41447084D01*
X174266927Y-41571212D01*
X174284202Y-41754746D01*
X174274993Y-41782022D01*
X174203894Y-41874365D01*
X174057130Y-41899428D01*
X173867537Y-41881417D01*
X173609027Y-41837664D01*
X173405378Y-41789100D01*
X173372339Y-41777938D01*
X173257257Y-41785614D01*
X173228445Y-41903139D01*
X173290653Y-42091944D01*
X173326029Y-42153934D01*
X173393381Y-42358929D01*
X173338270Y-42504883D01*
X173202673Y-42573157D01*
X173028570Y-42545113D01*
X172857940Y-42402111D01*
X172836379Y-42371339D01*
X172650441Y-42163749D01*
X172382566Y-42006494D01*
X171999781Y-41883767D01*
X171677060Y-41815637D01*
X171173820Y-41761947D01*
X170770111Y-41816802D01*
X170427024Y-41991236D01*
X170146965Y-42249524D01*
X169924584Y-42567968D01*
X169852727Y-42842434D01*
X169915099Y-43058024D01*
X170095406Y-43199839D01*
X170377354Y-43252980D01*
X170744648Y-43202549D01*
X171064593Y-43088560D01*
X171580903Y-42907471D01*
X172055793Y-42850884D01*
X172514720Y-42924915D01*
X172983140Y-43135677D01*
X173486508Y-43489285D01*
X173780973Y-43741020D01*
X174118416Y-44063958D01*
X174331203Y-44330377D01*
X174413830Y-44559380D01*
X174360792Y-44770068D01*
X174166585Y-44981543D01*
X173825705Y-45212908D01*
X173332647Y-45483263D01*
X173269544Y-45515864D01*
X172673493Y-45789115D01*
X172161919Y-45940497D01*
X171701592Y-45969875D01*
X171259281Y-45877112D01*
X170801756Y-45662073D01*
X170551045Y-45504733D01*
X170142611Y-45262542D01*
X169814967Y-45133985D01*
X169578971Y-45120449D01*
X169445479Y-45223319D01*
X169418794Y-45360167D01*
X169479963Y-45637664D01*
X169639795Y-45968836D01*
X169865167Y-46301025D01*
X170122956Y-46581577D01*
X170252213Y-46685037D01*
X170675787Y-46933171D01*
X171110184Y-47081638D01*
X171616063Y-47147930D01*
X171884133Y-47155617D01*
X172265040Y-47169882D01*
X172505218Y-47210535D01*
X172631879Y-47282311D01*
X172635333Y-47286334D01*
X172686241Y-47444185D01*
X172585189Y-47584067D01*
X172349523Y-47685043D01*
X172294768Y-47697347D01*
X172099446Y-47768919D01*
X172052375Y-47858626D01*
X172159916Y-47939346D01*
X172233167Y-47960000D01*
X172684135Y-48060921D01*
X172995886Y-48137698D01*
X173194997Y-48200634D01*
X173308044Y-48260030D01*
X173361604Y-48326186D01*
X173381663Y-48405174D01*
X173343127Y-48572131D01*
X173171261Y-48643529D01*
X172873150Y-48618449D01*
X172516245Y-48517309D01*
X172243102Y-48426706D01*
X172034182Y-48364189D01*
X171944745Y-48344667D01*
X171874309Y-48398183D01*
X171922797Y-48546543D01*
X172083136Y-48771462D01*
X172131959Y-48828538D01*
X172310311Y-49084146D01*
X172352738Y-49280176D01*
X172258398Y-49401085D01*
X172164468Y-49427850D01*
X172013649Y-49388772D01*
X171821721Y-49222237D01*
X171657333Y-49027654D01*
X171421493Y-48761991D01*
X171240295Y-48645246D01*
X171096978Y-48672795D01*
X170975099Y-48839378D01*
X170833256Y-49076399D01*
X170707633Y-49163936D01*
X170574305Y-49117011D01*
X170556001Y-49102518D01*
X170470824Y-48985050D01*
X170450002Y-48796858D01*
X170469503Y-48589915D01*
X170492277Y-48367391D01*
X170470127Y-48215272D01*
X170377315Y-48077720D01*
X170188102Y-47898897D01*
X170125535Y-47843676D01*
X169814223Y-47595572D01*
X169455769Y-47346269D01*
X169265253Y-47229270D01*
X168732415Y-46884714D01*
X168339492Y-46528695D01*
X168058591Y-46127071D01*
X167861820Y-45645703D01*
X167805142Y-45442096D01*
X167708115Y-45056769D01*
X166876549Y-44711661D01*
X166193580Y-44448882D01*
X165596940Y-44270083D01*
X165033355Y-44163400D01*
X164449554Y-44116970D01*
X164186264Y-44112585D01*
X163156852Y-44181294D01*
X162184231Y-44386622D01*
X161290793Y-44722357D01*
X160612667Y-45104077D01*
X160147000Y-45414688D01*
X160430208Y-45497231D01*
X160819748Y-45686783D01*
X161081832Y-45983115D01*
X161206646Y-46371214D01*
X161207428Y-46686272D01*
X161142738Y-46851303D01*
X160988449Y-47106652D01*
X160769299Y-47417734D01*
X160510028Y-47749966D01*
X160235372Y-48068762D01*
X160161936Y-48147889D01*
X159948290Y-48419110D01*
X159877861Y-48616314D01*
X159938548Y-48732937D01*
X160118250Y-48762413D01*
X160404865Y-48698179D01*
X160786291Y-48533668D01*
X160830664Y-48510670D01*
X161164427Y-48363126D01*
X161404340Y-48311912D01*
X161536274Y-48350825D01*
X161546096Y-48473664D01*
X161419678Y-48674227D01*
X161358854Y-48742498D01*
X161231047Y-48924239D01*
X161250883Y-49033166D01*
X161411579Y-49065931D01*
X161706350Y-49019186D01*
X161844446Y-48982114D01*
X162250222Y-48894490D01*
X162538254Y-48898889D01*
X162698480Y-48993911D01*
X162729333Y-49105301D01*
X162652151Y-49288250D01*
X162421955Y-49402170D01*
X162040776Y-49446119D01*
X161994066Y-49446630D01*
X161654967Y-49467016D01*
X161466168Y-49523125D01*
X161433478Y-49611313D01*
X161554000Y-49722551D01*
X161783634Y-49852856D01*
X162009667Y-49965794D01*
X162185675Y-50096620D01*
X162262831Y-50253011D01*
X162229913Y-50386720D01*
X162120956Y-50444165D01*
X161979621Y-50413125D01*
X161755888Y-50304745D01*
X161539956Y-50170157D01*
X161241619Y-49975827D01*
X161058380Y-49887221D01*
X160975499Y-49901362D01*
X160978237Y-50015272D01*
X160990627Y-50059167D01*
X161076531Y-50360841D01*
X161102200Y-50541848D01*
X161067800Y-50639713D01*
X160993420Y-50684810D01*
X160871588Y-50675984D01*
X160702939Y-50557646D01*
X160465091Y-50313903D01*
X160454585Y-50302175D01*
X160133900Y-49992229D01*
X159812374Y-49805461D01*
X159432139Y-49716711D01*
X159068059Y-49699334D01*
X158745781Y-49667699D01*
X158531947Y-49562820D01*
X158496000Y-49530000D01*
X158369250Y-49369570D01*
X158343388Y-49211216D01*
X158424576Y-49013926D01*
X158614345Y-48742758D01*
X158850490Y-48416522D01*
X159009017Y-48161727D01*
X159076928Y-48000642D01*
X159071118Y-47960230D01*
X158979977Y-47966540D01*
X158788724Y-48019739D01*
X158704425Y-48048432D01*
X158461262Y-48125109D01*
X158270334Y-48168400D01*
X158236674Y-48171617D01*
X158060020Y-48245815D01*
X157851254Y-48463197D01*
X157606105Y-48829599D01*
X157320304Y-49350854D01*
X157204511Y-49581869D01*
X156911393Y-50158920D01*
X156653817Y-50615511D01*
X156406460Y-50989200D01*
X156143998Y-51317544D01*
X155841109Y-51638099D01*
X155772809Y-51705206D01*
X155053719Y-52288288D01*
X154239213Y-52737163D01*
X153345458Y-53044993D01*
X152388619Y-53204941D01*
X152194916Y-53218380D01*
X151777498Y-53232293D01*
X151457712Y-53216038D01*
X151165297Y-53161476D01*
X150829991Y-53060470D01*
X150829260Y-53060226D01*
X149965192Y-52699179D01*
X149234479Y-52236210D01*
X148632412Y-51667442D01*
X148154284Y-50988994D01*
X148029500Y-50753791D01*
X147798823Y-50159364D01*
X147677428Y-49552939D01*
X147670828Y-48979050D01*
X147757484Y-48556334D01*
X147869329Y-48297333D01*
X147972042Y-48204714D01*
X148061664Y-48275604D01*
X148134239Y-48507131D01*
X148183061Y-48865168D01*
X148327841Y-49622515D01*
X148611532Y-50308558D01*
X149022224Y-50904446D01*
X149548007Y-51391327D01*
X149931708Y-51632929D01*
X150469093Y-51879430D01*
X150953925Y-52004545D01*
X151441487Y-52017446D01*
X151866823Y-51953934D01*
X152681920Y-51701622D01*
X153410993Y-51306692D01*
X154045237Y-50777231D01*
X154575846Y-50121323D01*
X154994013Y-49347054D01*
X155151380Y-48938176D01*
X155270806Y-48609893D01*
X155388852Y-48323059D01*
X155481999Y-48134389D01*
X155490086Y-48121496D01*
X155571275Y-47926317D01*
X155523310Y-47722960D01*
X155521651Y-47719301D01*
X155467006Y-47409083D01*
X155575068Y-47096017D01*
X155736060Y-46894364D01*
X155901975Y-46679022D01*
X156054200Y-46404231D01*
X156082889Y-46337632D01*
X156164719Y-46104562D01*
X156173690Y-45952789D01*
X156111829Y-45811735D01*
X156098600Y-45790362D01*
X156017881Y-45601449D01*
X155936332Y-45314597D01*
X155884728Y-45063895D01*
X155824670Y-44760840D01*
X155759620Y-44510792D01*
X155713310Y-44388551D01*
X155650026Y-44312171D01*
X155581590Y-44351919D01*
X155476235Y-44524479D01*
X155035135Y-45296777D01*
X154631582Y-45943429D01*
X154270743Y-46457377D01*
X153957788Y-46831565D01*
X153697884Y-47058933D01*
X153575422Y-47120146D01*
X153345203Y-47158469D01*
X153149466Y-47099074D01*
X152964650Y-46923518D01*
X152767195Y-46613357D01*
X152655240Y-46399799D01*
X152487412Y-46075553D01*
X152362132Y-45872147D01*
X152250137Y-45757066D01*
X152122164Y-45697798D01*
X151998920Y-45670563D01*
X151656951Y-45586791D01*
X151463208Y-45478937D01*
X151396888Y-45333079D01*
X151400029Y-45269772D01*
X151442237Y-45149153D01*
X151555531Y-45106115D01*
X151743833Y-45112788D01*
X151958911Y-45113179D01*
X152043602Y-45055841D01*
X151997307Y-44926542D01*
X151819428Y-44711049D01*
X151722666Y-44609221D01*
X151520069Y-44365112D01*
X151401777Y-44149325D01*
X151384000Y-44063788D01*
X151431500Y-43864482D01*
X151549183Y-43792604D01*
X151699821Y-43844671D01*
X151846189Y-44017202D01*
X151891984Y-44111296D01*
X152007061Y-44321250D01*
X152146089Y-44488282D01*
X152272190Y-44575836D01*
X152343007Y-44558387D01*
X152345651Y-44444011D01*
X152307016Y-44221096D01*
X152251896Y-43999245D01*
X152180011Y-43720999D01*
X152159374Y-43554456D01*
X152189730Y-43450010D01*
X152248709Y-43379672D01*
X152447106Y-43289049D01*
X152559892Y-43304004D01*
X152654420Y-43351858D01*
X152708377Y-43446955D01*
X152732783Y-43629415D01*
X152738661Y-43939356D01*
X152738667Y-43954761D01*
X152753233Y-44301179D01*
X152799283Y-44483606D01*
X152880343Y-44505060D01*
X152999939Y-44368561D01*
X153074949Y-44242635D01*
X153182973Y-44081814D01*
X153265619Y-44015387D01*
X153269103Y-44015639D01*
X153406726Y-44026475D01*
X153425263Y-44026667D01*
X153481369Y-44103116D01*
X153470434Y-44326200D01*
X153467599Y-44344167D01*
X153395482Y-44801675D01*
X153353577Y-45117080D01*
X153341889Y-45314897D01*
X153360427Y-45419640D01*
X153409196Y-45455825D01*
X153467917Y-45452285D01*
X153563627Y-45385105D01*
X153678688Y-45206053D01*
X153822532Y-44897629D01*
X153985790Y-44491347D01*
X154375550Y-43537374D01*
X154747041Y-42750331D01*
X155102092Y-42129012D01*
X155442529Y-41672210D01*
X155770179Y-41378718D01*
X156086868Y-41247330D01*
X156394424Y-41276839D01*
X156694673Y-41466038D01*
X156989442Y-41813720D01*
X157279230Y-42316008D01*
X157435597Y-42626628D01*
X157563963Y-42875019D01*
X157645721Y-43025492D01*
X157663533Y-43053089D01*
X157733698Y-43011161D01*
X157899735Y-42871488D01*
X158137293Y-42655574D01*
X158422020Y-42384922D01*
X158440632Y-42366868D01*
X159335084Y-41588533D01*
X160260039Y-40966534D01*
X161236795Y-40488125D01*
X162052000Y-40205375D01*
X162355791Y-40149395D01*
X162784884Y-40113124D01*
X163296455Y-40096099D01*
X163847678Y-40097857D01*
X164395727Y-40117936D01*
X164897778Y-40155873D01*
X165311006Y-40211205D01*
X165458759Y-40242195D01*
X166345127Y-40511384D01*
X167196540Y-40865229D01*
X167950302Y-41277297D01*
X168020109Y-41322134D01*
X168376530Y-41548473D01*
X168615618Y-41682694D01*
X168756469Y-41732983D01*
X168818180Y-41707526D01*
X168825333Y-41667326D01*
X168887114Y-41579621D01*
X169046971Y-41428449D01*
X169213568Y-41291515D01*
X169521653Y-41086515D01*
X169826731Y-40978216D01*
X170081402Y-40939717D01*
X170969110Y-40825486D01*
X171750329Y-40678058D01*
X172410098Y-40501541D01*
X172933456Y-40300044D01*
X173305442Y-40077674D01*
X173346962Y-40043034D01*
X173617607Y-39850290D01*
X173821085Y-39803095D01*
X173950563Y-39902648D01*
X173950563Y-39902648D01*
G37*
X173950563Y-39902648D02*
X173964828Y-39934525D01*
X173946771Y-40075373D01*
X173790547Y-40262911D01*
X173687004Y-40354685D01*
X173355000Y-40633652D01*
X173736000Y-40615660D01*
X173970028Y-40611285D01*
X174080973Y-40646469D01*
X174114719Y-40749635D01*
X174117000Y-40851667D01*
X174104475Y-41012201D01*
X174035143Y-41085204D01*
X173861366Y-41104975D01*
X173764237Y-41105667D01*
X173527848Y-41120823D01*
X173367261Y-41158668D01*
X173343356Y-41173770D01*
X173332859Y-41262920D01*
X173455077Y-41341040D01*
X173673493Y-41391153D01*
X173831466Y-41400704D01*
X174108904Y-41447084D01*
X174266927Y-41571212D01*
X174284202Y-41754746D01*
X174274993Y-41782022D01*
X174203894Y-41874365D01*
X174057130Y-41899428D01*
X173867537Y-41881417D01*
X173609027Y-41837664D01*
X173405378Y-41789100D01*
X173372339Y-41777938D01*
X173257257Y-41785614D01*
X173228445Y-41903139D01*
X173290653Y-42091944D01*
X173326029Y-42153934D01*
X173393381Y-42358929D01*
X173338270Y-42504883D01*
X173202673Y-42573157D01*
X173028570Y-42545113D01*
X172857940Y-42402111D01*
X172836379Y-42371339D01*
X172650441Y-42163749D01*
X172382566Y-42006494D01*
X171999781Y-41883767D01*
X171677060Y-41815637D01*
X171173820Y-41761947D01*
X170770111Y-41816802D01*
X170427024Y-41991236D01*
X170146965Y-42249524D01*
X169924584Y-42567968D01*
X169852727Y-42842434D01*
X169915099Y-43058024D01*
X170095406Y-43199839D01*
X170377354Y-43252980D01*
X170744648Y-43202549D01*
X171064593Y-43088560D01*
X171580903Y-42907471D01*
X172055793Y-42850884D01*
X172514720Y-42924915D01*
X172983140Y-43135677D01*
X173486508Y-43489285D01*
X173780973Y-43741020D01*
X174118416Y-44063958D01*
X174331203Y-44330377D01*
X174413830Y-44559380D01*
X174360792Y-44770068D01*
X174166585Y-44981543D01*
X173825705Y-45212908D01*
X173332647Y-45483263D01*
X173269544Y-45515864D01*
X172673493Y-45789115D01*
X172161919Y-45940497D01*
X171701592Y-45969875D01*
X171259281Y-45877112D01*
X170801756Y-45662073D01*
X170551045Y-45504733D01*
X170142611Y-45262542D01*
X169814967Y-45133985D01*
X169578971Y-45120449D01*
X169445479Y-45223319D01*
X169418794Y-45360167D01*
X169479963Y-45637664D01*
X169639795Y-45968836D01*
X169865167Y-46301025D01*
X170122956Y-46581577D01*
X170252213Y-46685037D01*
X170675787Y-46933171D01*
X171110184Y-47081638D01*
X171616063Y-47147930D01*
X171884133Y-47155617D01*
X172265040Y-47169882D01*
X172505218Y-47210535D01*
X172631879Y-47282311D01*
X172635333Y-47286334D01*
X172686241Y-47444185D01*
X172585189Y-47584067D01*
X172349523Y-47685043D01*
X172294768Y-47697347D01*
X172099446Y-47768919D01*
X172052375Y-47858626D01*
X172159916Y-47939346D01*
X172233167Y-47960000D01*
X172684135Y-48060921D01*
X172995886Y-48137698D01*
X173194997Y-48200634D01*
X173308044Y-48260030D01*
X173361604Y-48326186D01*
X173381663Y-48405174D01*
X173343127Y-48572131D01*
X173171261Y-48643529D01*
X172873150Y-48618449D01*
X172516245Y-48517309D01*
X172243102Y-48426706D01*
X172034182Y-48364189D01*
X171944745Y-48344667D01*
X171874309Y-48398183D01*
X171922797Y-48546543D01*
X172083136Y-48771462D01*
X172131959Y-48828538D01*
X172310311Y-49084146D01*
X172352738Y-49280176D01*
X172258398Y-49401085D01*
X172164468Y-49427850D01*
X172013649Y-49388772D01*
X171821721Y-49222237D01*
X171657333Y-49027654D01*
X171421493Y-48761991D01*
X171240295Y-48645246D01*
X171096978Y-48672795D01*
X170975099Y-48839378D01*
X170833256Y-49076399D01*
X170707633Y-49163936D01*
X170574305Y-49117011D01*
X170556001Y-49102518D01*
X170470824Y-48985050D01*
X170450002Y-48796858D01*
X170469503Y-48589915D01*
X170492277Y-48367391D01*
X170470127Y-48215272D01*
X170377315Y-48077720D01*
X170188102Y-47898897D01*
X170125535Y-47843676D01*
X169814223Y-47595572D01*
X169455769Y-47346269D01*
X169265253Y-47229270D01*
X168732415Y-46884714D01*
X168339492Y-46528695D01*
X168058591Y-46127071D01*
X167861820Y-45645703D01*
X167805142Y-45442096D01*
X167708115Y-45056769D01*
X166876549Y-44711661D01*
X166193580Y-44448882D01*
X165596940Y-44270083D01*
X165033355Y-44163400D01*
X164449554Y-44116970D01*
X164186264Y-44112585D01*
X163156852Y-44181294D01*
X162184231Y-44386622D01*
X161290793Y-44722357D01*
X160612667Y-45104077D01*
X160147000Y-45414688D01*
X160430208Y-45497231D01*
X160819748Y-45686783D01*
X161081832Y-45983115D01*
X161206646Y-46371214D01*
X161207428Y-46686272D01*
X161142738Y-46851303D01*
X160988449Y-47106652D01*
X160769299Y-47417734D01*
X160510028Y-47749966D01*
X160235372Y-48068762D01*
X160161936Y-48147889D01*
X159948290Y-48419110D01*
X159877861Y-48616314D01*
X159938548Y-48732937D01*
X160118250Y-48762413D01*
X160404865Y-48698179D01*
X160786291Y-48533668D01*
X160830664Y-48510670D01*
X161164427Y-48363126D01*
X161404340Y-48311912D01*
X161536274Y-48350825D01*
X161546096Y-48473664D01*
X161419678Y-48674227D01*
X161358854Y-48742498D01*
X161231047Y-48924239D01*
X161250883Y-49033166D01*
X161411579Y-49065931D01*
X161706350Y-49019186D01*
X161844446Y-48982114D01*
X162250222Y-48894490D01*
X162538254Y-48898889D01*
X162698480Y-48993911D01*
X162729333Y-49105301D01*
X162652151Y-49288250D01*
X162421955Y-49402170D01*
X162040776Y-49446119D01*
X161994066Y-49446630D01*
X161654967Y-49467016D01*
X161466168Y-49523125D01*
X161433478Y-49611313D01*
X161554000Y-49722551D01*
X161783634Y-49852856D01*
X162009667Y-49965794D01*
X162185675Y-50096620D01*
X162262831Y-50253011D01*
X162229913Y-50386720D01*
X162120956Y-50444165D01*
X161979621Y-50413125D01*
X161755888Y-50304745D01*
X161539956Y-50170157D01*
X161241619Y-49975827D01*
X161058380Y-49887221D01*
X160975499Y-49901362D01*
X160978237Y-50015272D01*
X160990627Y-50059167D01*
X161076531Y-50360841D01*
X161102200Y-50541848D01*
X161067800Y-50639713D01*
X160993420Y-50684810D01*
X160871588Y-50675984D01*
X160702939Y-50557646D01*
X160465091Y-50313903D01*
X160454585Y-50302175D01*
X160133900Y-49992229D01*
X159812374Y-49805461D01*
X159432139Y-49716711D01*
X159068059Y-49699334D01*
X158745781Y-49667699D01*
X158531947Y-49562820D01*
X158496000Y-49530000D01*
X158369250Y-49369570D01*
X158343388Y-49211216D01*
X158424576Y-49013926D01*
X158614345Y-48742758D01*
X158850490Y-48416522D01*
X159009017Y-48161727D01*
X159076928Y-48000642D01*
X159071118Y-47960230D01*
X158979977Y-47966540D01*
X158788724Y-48019739D01*
X158704425Y-48048432D01*
X158461262Y-48125109D01*
X158270334Y-48168400D01*
X158236674Y-48171617D01*
X158060020Y-48245815D01*
X157851254Y-48463197D01*
X157606105Y-48829599D01*
X157320304Y-49350854D01*
X157204511Y-49581869D01*
X156911393Y-50158920D01*
X156653817Y-50615511D01*
X156406460Y-50989200D01*
X156143998Y-51317544D01*
X155841109Y-51638099D01*
X155772809Y-51705206D01*
X155053719Y-52288288D01*
X154239213Y-52737163D01*
X153345458Y-53044993D01*
X152388619Y-53204941D01*
X152194916Y-53218380D01*
X151777498Y-53232293D01*
X151457712Y-53216038D01*
X151165297Y-53161476D01*
X150829991Y-53060470D01*
X150829260Y-53060226D01*
X149965192Y-52699179D01*
X149234479Y-52236210D01*
X148632412Y-51667442D01*
X148154284Y-50988994D01*
X148029500Y-50753791D01*
X147798823Y-50159364D01*
X147677428Y-49552939D01*
X147670828Y-48979050D01*
X147757484Y-48556334D01*
X147869329Y-48297333D01*
X147972042Y-48204714D01*
X148061664Y-48275604D01*
X148134239Y-48507131D01*
X148183061Y-48865168D01*
X148327841Y-49622515D01*
X148611532Y-50308558D01*
X149022224Y-50904446D01*
X149548007Y-51391327D01*
X149931708Y-51632929D01*
X150469093Y-51879430D01*
X150953925Y-52004545D01*
X151441487Y-52017446D01*
X151866823Y-51953934D01*
X152681920Y-51701622D01*
X153410993Y-51306692D01*
X154045237Y-50777231D01*
X154575846Y-50121323D01*
X154994013Y-49347054D01*
X155151380Y-48938176D01*
X155270806Y-48609893D01*
X155388852Y-48323059D01*
X155481999Y-48134389D01*
X155490086Y-48121496D01*
X155571275Y-47926317D01*
X155523310Y-47722960D01*
X155521651Y-47719301D01*
X155467006Y-47409083D01*
X155575068Y-47096017D01*
X155736060Y-46894364D01*
X155901975Y-46679022D01*
X156054200Y-46404231D01*
X156082889Y-46337632D01*
X156164719Y-46104562D01*
X156173690Y-45952789D01*
X156111829Y-45811735D01*
X156098600Y-45790362D01*
X156017881Y-45601449D01*
X155936332Y-45314597D01*
X155884728Y-45063895D01*
X155824670Y-44760840D01*
X155759620Y-44510792D01*
X155713310Y-44388551D01*
X155650026Y-44312171D01*
X155581590Y-44351919D01*
X155476235Y-44524479D01*
X155035135Y-45296777D01*
X154631582Y-45943429D01*
X154270743Y-46457377D01*
X153957788Y-46831565D01*
X153697884Y-47058933D01*
X153575422Y-47120146D01*
X153345203Y-47158469D01*
X153149466Y-47099074D01*
X152964650Y-46923518D01*
X152767195Y-46613357D01*
X152655240Y-46399799D01*
X152487412Y-46075553D01*
X152362132Y-45872147D01*
X152250137Y-45757066D01*
X152122164Y-45697798D01*
X151998920Y-45670563D01*
X151656951Y-45586791D01*
X151463208Y-45478937D01*
X151396888Y-45333079D01*
X151400029Y-45269772D01*
X151442237Y-45149153D01*
X151555531Y-45106115D01*
X151743833Y-45112788D01*
X151958911Y-45113179D01*
X152043602Y-45055841D01*
X151997307Y-44926542D01*
X151819428Y-44711049D01*
X151722666Y-44609221D01*
X151520069Y-44365112D01*
X151401777Y-44149325D01*
X151384000Y-44063788D01*
X151431500Y-43864482D01*
X151549183Y-43792604D01*
X151699821Y-43844671D01*
X151846189Y-44017202D01*
X151891984Y-44111296D01*
X152007061Y-44321250D01*
X152146089Y-44488282D01*
X152272190Y-44575836D01*
X152343007Y-44558387D01*
X152345651Y-44444011D01*
X152307016Y-44221096D01*
X152251896Y-43999245D01*
X152180011Y-43720999D01*
X152159374Y-43554456D01*
X152189730Y-43450010D01*
X152248709Y-43379672D01*
X152447106Y-43289049D01*
X152559892Y-43304004D01*
X152654420Y-43351858D01*
X152708377Y-43446955D01*
X152732783Y-43629415D01*
X152738661Y-43939356D01*
X152738667Y-43954761D01*
X152753233Y-44301179D01*
X152799283Y-44483606D01*
X152880343Y-44505060D01*
X152999939Y-44368561D01*
X153074949Y-44242635D01*
X153182973Y-44081814D01*
X153265619Y-44015387D01*
X153269103Y-44015639D01*
X153406726Y-44026475D01*
X153425263Y-44026667D01*
X153481369Y-44103116D01*
X153470434Y-44326200D01*
X153467599Y-44344167D01*
X153395482Y-44801675D01*
X153353577Y-45117080D01*
X153341889Y-45314897D01*
X153360427Y-45419640D01*
X153409196Y-45455825D01*
X153467917Y-45452285D01*
X153563627Y-45385105D01*
X153678688Y-45206053D01*
X153822532Y-44897629D01*
X153985790Y-44491347D01*
X154375550Y-43537374D01*
X154747041Y-42750331D01*
X155102092Y-42129012D01*
X155442529Y-41672210D01*
X155770179Y-41378718D01*
X156086868Y-41247330D01*
X156394424Y-41276839D01*
X156694673Y-41466038D01*
X156989442Y-41813720D01*
X157279230Y-42316008D01*
X157435597Y-42626628D01*
X157563963Y-42875019D01*
X157645721Y-43025492D01*
X157663533Y-43053089D01*
X157733698Y-43011161D01*
X157899735Y-42871488D01*
X158137293Y-42655574D01*
X158422020Y-42384922D01*
X158440632Y-42366868D01*
X159335084Y-41588533D01*
X160260039Y-40966534D01*
X161236795Y-40488125D01*
X162052000Y-40205375D01*
X162355791Y-40149395D01*
X162784884Y-40113124D01*
X163296455Y-40096099D01*
X163847678Y-40097857D01*
X164395727Y-40117936D01*
X164897778Y-40155873D01*
X165311006Y-40211205D01*
X165458759Y-40242195D01*
X166345127Y-40511384D01*
X167196540Y-40865229D01*
X167950302Y-41277297D01*
X168020109Y-41322134D01*
X168376530Y-41548473D01*
X168615618Y-41682694D01*
X168756469Y-41732983D01*
X168818180Y-41707526D01*
X168825333Y-41667326D01*
X168887114Y-41579621D01*
X169046971Y-41428449D01*
X169213568Y-41291515D01*
X169521653Y-41086515D01*
X169826731Y-40978216D01*
X170081402Y-40939717D01*
X170969110Y-40825486D01*
X171750329Y-40678058D01*
X172410098Y-40501541D01*
X172933456Y-40300044D01*
X173305442Y-40077674D01*
X173346962Y-40043034D01*
X173617607Y-39850290D01*
X173821085Y-39803095D01*
X173950563Y-39902648D01*
D12*
X143620000Y-31944000D02*
X141970000Y-31944000D01*
X143620000Y-57464000D02*
X143620000Y-31944000D01*
X138320000Y-57464000D02*
X143620000Y-57464000D01*
X138320000Y-31944000D02*
X138320000Y-57464000D01*
X139970000Y-31944000D02*
X138320000Y-31944000D01*
X141970000Y-31944000D02*
G75*
G02X139970000Y-31944000I-1000000J0D01*
G01*
X184260000Y-64964000D02*
X182610000Y-64964000D01*
X184260000Y-90484000D02*
X184260000Y-64964000D01*
X178960000Y-90484000D02*
X184260000Y-90484000D01*
X178960000Y-64964000D02*
X178960000Y-90484000D01*
X180610000Y-64964000D02*
X178960000Y-64964000D01*
X182610000Y-64964000D02*
G75*
G02X180610000Y-64964000I-1000000J0D01*
G01*
X184260000Y-31944000D02*
X182610000Y-31944000D01*
X184260000Y-57464000D02*
X184260000Y-31944000D01*
X178960000Y-57464000D02*
X184260000Y-57464000D01*
X178960000Y-31944000D02*
X178960000Y-57464000D01*
X180610000Y-31944000D02*
X178960000Y-31944000D01*
X182610000Y-31944000D02*
G75*
G02X180610000Y-31944000I-1000000J0D01*
G01*
X143620000Y-64964000D02*
X141970000Y-64964000D01*
X143620000Y-90484000D02*
X143620000Y-64964000D01*
X138320000Y-90484000D02*
X143620000Y-90484000D01*
X138320000Y-64964000D02*
X138320000Y-90484000D01*
X139970000Y-64964000D02*
X138320000Y-64964000D01*
X141970000Y-64964000D02*
G75*
G02X139970000Y-64964000I-1000000J0D01*
G01*
X151070000Y-90484000D02*
X151070000Y-89154000D01*
X152400000Y-90484000D02*
X151070000Y-90484000D01*
X151070000Y-87884000D02*
X151070000Y-85284000D01*
X153670000Y-87884000D02*
X151070000Y-87884000D01*
X153670000Y-90484000D02*
X153670000Y-87884000D01*
X151070000Y-85284000D02*
X171510000Y-85284000D01*
X153670000Y-90484000D02*
X171510000Y-90484000D01*
X171510000Y-90484000D02*
X171510000Y-85284000D01*
X151070000Y-65084000D02*
X151070000Y-63754000D01*
X152400000Y-65084000D02*
X151070000Y-65084000D01*
X151070000Y-62484000D02*
X151070000Y-59884000D01*
X153670000Y-62484000D02*
X151070000Y-62484000D01*
X153670000Y-65084000D02*
X153670000Y-62484000D01*
X151070000Y-59884000D02*
X171510000Y-59884000D01*
X153670000Y-65084000D02*
X171510000Y-65084000D01*
X171510000Y-65084000D02*
X171510000Y-59884000D01*
X174946000Y-26476000D02*
X174946000Y-25146000D01*
X176276000Y-26476000D02*
X174946000Y-26476000D01*
X177546000Y-26476000D02*
X177546000Y-23816000D01*
X177546000Y-23816000D02*
X182686000Y-23816000D01*
X177546000Y-26476000D02*
X182686000Y-26476000D01*
X182686000Y-26476000D02*
X182686000Y-23816000D01*
X151070000Y-37144000D02*
X151070000Y-35814000D01*
X152400000Y-37144000D02*
X151070000Y-37144000D01*
X151070000Y-34544000D02*
X151070000Y-31944000D01*
X153670000Y-34544000D02*
X151070000Y-34544000D01*
X153670000Y-37144000D02*
X153670000Y-34544000D01*
X151070000Y-31944000D02*
X171510000Y-31944000D01*
X153670000Y-37144000D02*
X171510000Y-37144000D01*
X171510000Y-37144000D02*
X171510000Y-31944000D01*
D10*
X140208095Y-30396380D02*
X140208095Y-31205904D01*
X140255714Y-31301142D01*
X140303333Y-31348761D01*
X140398571Y-31396380D01*
X140589047Y-31396380D01*
X140684285Y-31348761D01*
X140731904Y-31301142D01*
X140779523Y-31205904D01*
X140779523Y-30396380D01*
X141779523Y-31396380D02*
X141208095Y-31396380D01*
X141493809Y-31396380D02*
X141493809Y-30396380D01*
X141398571Y-30539238D01*
X141303333Y-30634476D01*
X141208095Y-30682095D01*
X180848095Y-63416380D02*
X180848095Y-64225904D01*
X180895714Y-64321142D01*
X180943333Y-64368761D01*
X181038571Y-64416380D01*
X181229047Y-64416380D01*
X181324285Y-64368761D01*
X181371904Y-64321142D01*
X181419523Y-64225904D01*
X181419523Y-63416380D01*
X182324285Y-63749714D02*
X182324285Y-64416380D01*
X182086190Y-63368761D02*
X181848095Y-64083047D01*
X182467142Y-64083047D01*
X180848095Y-30396380D02*
X180848095Y-31205904D01*
X180895714Y-31301142D01*
X180943333Y-31348761D01*
X181038571Y-31396380D01*
X181229047Y-31396380D01*
X181324285Y-31348761D01*
X181371904Y-31301142D01*
X181419523Y-31205904D01*
X181419523Y-30396380D01*
X181800476Y-30396380D02*
X182419523Y-30396380D01*
X182086190Y-30777333D01*
X182229047Y-30777333D01*
X182324285Y-30824952D01*
X182371904Y-30872571D01*
X182419523Y-30967809D01*
X182419523Y-31205904D01*
X182371904Y-31301142D01*
X182324285Y-31348761D01*
X182229047Y-31396380D01*
X181943333Y-31396380D01*
X181848095Y-31348761D01*
X181800476Y-31301142D01*
X140208095Y-63416380D02*
X140208095Y-64225904D01*
X140255714Y-64321142D01*
X140303333Y-64368761D01*
X140398571Y-64416380D01*
X140589047Y-64416380D01*
X140684285Y-64368761D01*
X140731904Y-64321142D01*
X140779523Y-64225904D01*
X140779523Y-63416380D01*
X141208095Y-63511619D02*
X141255714Y-63464000D01*
X141350952Y-63416380D01*
X141589047Y-63416380D01*
X141684285Y-63464000D01*
X141731904Y-63511619D01*
X141779523Y-63606857D01*
X141779523Y-63702095D01*
X141731904Y-63844952D01*
X141160476Y-64416380D01*
X141779523Y-64416380D01*
X149522380Y-88217333D02*
X150236666Y-88217333D01*
X150379523Y-88264952D01*
X150474761Y-88360190D01*
X150522380Y-88503047D01*
X150522380Y-88598285D01*
X149522380Y-87264952D02*
X149522380Y-87741142D01*
X149998571Y-87788761D01*
X149950952Y-87741142D01*
X149903333Y-87645904D01*
X149903333Y-87407809D01*
X149950952Y-87312571D01*
X149998571Y-87264952D01*
X150093809Y-87217333D01*
X150331904Y-87217333D01*
X150427142Y-87264952D01*
X150474761Y-87312571D01*
X150522380Y-87407809D01*
X150522380Y-87645904D01*
X150474761Y-87741142D01*
X150427142Y-87788761D01*
X149522380Y-62817333D02*
X150236666Y-62817333D01*
X150379523Y-62864952D01*
X150474761Y-62960190D01*
X150522380Y-63103047D01*
X150522380Y-63198285D01*
X149855714Y-61912571D02*
X150522380Y-61912571D01*
X149474761Y-62150666D02*
X150189047Y-62388761D01*
X150189047Y-61769714D01*
X173398380Y-25479333D02*
X174112666Y-25479333D01*
X174255523Y-25526952D01*
X174350761Y-25622190D01*
X174398380Y-25765047D01*
X174398380Y-25860285D01*
X173398380Y-25098380D02*
X173398380Y-24479333D01*
X173779333Y-24812666D01*
X173779333Y-24669809D01*
X173826952Y-24574571D01*
X173874571Y-24526952D01*
X173969809Y-24479333D01*
X174207904Y-24479333D01*
X174303142Y-24526952D01*
X174350761Y-24574571D01*
X174398380Y-24669809D01*
X174398380Y-24955523D01*
X174350761Y-25050761D01*
X174303142Y-25098380D01*
X149522380Y-34877333D02*
X150236666Y-34877333D01*
X150379523Y-34924952D01*
X150474761Y-35020190D01*
X150522380Y-35163047D01*
X150522380Y-35258285D01*
X150522380Y-33877333D02*
X150522380Y-34448761D01*
X150522380Y-34163047D02*
X149522380Y-34163047D01*
X149665238Y-34258285D01*
X149760476Y-34353523D01*
X149808095Y-34448761D01*
M02*
