G04 #@! TF.GenerationSoftware,KiCad,Pcbnew,(5.1.2-1)-1*
G04 #@! TF.CreationDate,2019-08-11T18:03:36-06:00*
G04 #@! TF.ProjectId,triple_hub75_v1,74726970-6c65-45f6-9875-6237355f7631,rev?*
G04 #@! TF.SameCoordinates,Original*
G04 #@! TF.FileFunction,Soldermask,Bot*
G04 #@! TF.FilePolarity,Negative*
%FSLAX46Y46*%
G04 Gerber Fmt 4.6, Leading zero omitted, Abs format (unit mm)*
G04 Created by KiCad (PCBNEW (5.1.2-1)-1) date 2019-08-11 18:03:36*
%MOMM*%
%LPD*%
G04 APERTURE LIST*
%ADD10C,0.100000*%
G04 APERTURE END LIST*
D10*
G36*
X185530443Y-102737519D02*
G01*
X185596627Y-102744037D01*
X185766466Y-102795557D01*
X185922991Y-102879222D01*
X185958729Y-102908552D01*
X186060186Y-102991814D01*
X186143448Y-103093271D01*
X186172778Y-103129009D01*
X186256443Y-103285534D01*
X186307963Y-103455373D01*
X186325359Y-103632000D01*
X186307963Y-103808627D01*
X186256443Y-103978466D01*
X186172778Y-104134991D01*
X186143448Y-104170729D01*
X186060186Y-104272186D01*
X185958729Y-104355448D01*
X185922991Y-104384778D01*
X185766466Y-104468443D01*
X185596627Y-104519963D01*
X185530443Y-104526481D01*
X185464260Y-104533000D01*
X185375740Y-104533000D01*
X185309557Y-104526481D01*
X185243373Y-104519963D01*
X185073534Y-104468443D01*
X184917009Y-104384778D01*
X184881271Y-104355448D01*
X184779814Y-104272186D01*
X184696552Y-104170729D01*
X184667222Y-104134991D01*
X184583557Y-103978466D01*
X184532037Y-103808627D01*
X184514641Y-103632000D01*
X184532037Y-103455373D01*
X184583557Y-103285534D01*
X184667222Y-103129009D01*
X184696552Y-103093271D01*
X184779814Y-102991814D01*
X184881271Y-102908552D01*
X184917009Y-102879222D01*
X185073534Y-102795557D01*
X185243373Y-102744037D01*
X185309557Y-102737519D01*
X185375740Y-102731000D01*
X185464260Y-102731000D01*
X185530443Y-102737519D01*
X185530443Y-102737519D01*
G37*
G36*
X182990443Y-102737519D02*
G01*
X183056627Y-102744037D01*
X183226466Y-102795557D01*
X183382991Y-102879222D01*
X183418729Y-102908552D01*
X183520186Y-102991814D01*
X183603448Y-103093271D01*
X183632778Y-103129009D01*
X183716443Y-103285534D01*
X183767963Y-103455373D01*
X183785359Y-103632000D01*
X183767963Y-103808627D01*
X183716443Y-103978466D01*
X183632778Y-104134991D01*
X183603448Y-104170729D01*
X183520186Y-104272186D01*
X183418729Y-104355448D01*
X183382991Y-104384778D01*
X183226466Y-104468443D01*
X183056627Y-104519963D01*
X182990443Y-104526481D01*
X182924260Y-104533000D01*
X182835740Y-104533000D01*
X182769557Y-104526481D01*
X182703373Y-104519963D01*
X182533534Y-104468443D01*
X182377009Y-104384778D01*
X182341271Y-104355448D01*
X182239814Y-104272186D01*
X182156552Y-104170729D01*
X182127222Y-104134991D01*
X182043557Y-103978466D01*
X181992037Y-103808627D01*
X181974641Y-103632000D01*
X181992037Y-103455373D01*
X182043557Y-103285534D01*
X182127222Y-103129009D01*
X182156552Y-103093271D01*
X182239814Y-102991814D01*
X182341271Y-102908552D01*
X182377009Y-102879222D01*
X182533534Y-102795557D01*
X182703373Y-102744037D01*
X182769557Y-102737519D01*
X182835740Y-102731000D01*
X182924260Y-102731000D01*
X182990443Y-102737519D01*
X182990443Y-102737519D01*
G37*
G36*
X180450443Y-102737519D02*
G01*
X180516627Y-102744037D01*
X180686466Y-102795557D01*
X180842991Y-102879222D01*
X180878729Y-102908552D01*
X180980186Y-102991814D01*
X181063448Y-103093271D01*
X181092778Y-103129009D01*
X181176443Y-103285534D01*
X181227963Y-103455373D01*
X181245359Y-103632000D01*
X181227963Y-103808627D01*
X181176443Y-103978466D01*
X181092778Y-104134991D01*
X181063448Y-104170729D01*
X180980186Y-104272186D01*
X180878729Y-104355448D01*
X180842991Y-104384778D01*
X180686466Y-104468443D01*
X180516627Y-104519963D01*
X180450443Y-104526481D01*
X180384260Y-104533000D01*
X180295740Y-104533000D01*
X180229557Y-104526481D01*
X180163373Y-104519963D01*
X179993534Y-104468443D01*
X179837009Y-104384778D01*
X179801271Y-104355448D01*
X179699814Y-104272186D01*
X179616552Y-104170729D01*
X179587222Y-104134991D01*
X179503557Y-103978466D01*
X179452037Y-103808627D01*
X179434641Y-103632000D01*
X179452037Y-103455373D01*
X179503557Y-103285534D01*
X179587222Y-103129009D01*
X179616552Y-103093271D01*
X179699814Y-102991814D01*
X179801271Y-102908552D01*
X179837009Y-102879222D01*
X179993534Y-102795557D01*
X180163373Y-102744037D01*
X180229557Y-102737519D01*
X180295740Y-102731000D01*
X180384260Y-102731000D01*
X180450443Y-102737519D01*
X180450443Y-102737519D01*
G37*
G36*
X177910443Y-102737519D02*
G01*
X177976627Y-102744037D01*
X178146466Y-102795557D01*
X178302991Y-102879222D01*
X178338729Y-102908552D01*
X178440186Y-102991814D01*
X178523448Y-103093271D01*
X178552778Y-103129009D01*
X178636443Y-103285534D01*
X178687963Y-103455373D01*
X178705359Y-103632000D01*
X178687963Y-103808627D01*
X178636443Y-103978466D01*
X178552778Y-104134991D01*
X178523448Y-104170729D01*
X178440186Y-104272186D01*
X178338729Y-104355448D01*
X178302991Y-104384778D01*
X178146466Y-104468443D01*
X177976627Y-104519963D01*
X177910443Y-104526481D01*
X177844260Y-104533000D01*
X177755740Y-104533000D01*
X177689557Y-104526481D01*
X177623373Y-104519963D01*
X177453534Y-104468443D01*
X177297009Y-104384778D01*
X177261271Y-104355448D01*
X177159814Y-104272186D01*
X177076552Y-104170729D01*
X177047222Y-104134991D01*
X176963557Y-103978466D01*
X176912037Y-103808627D01*
X176894641Y-103632000D01*
X176912037Y-103455373D01*
X176963557Y-103285534D01*
X177047222Y-103129009D01*
X177076552Y-103093271D01*
X177159814Y-102991814D01*
X177261271Y-102908552D01*
X177297009Y-102879222D01*
X177453534Y-102795557D01*
X177623373Y-102744037D01*
X177689557Y-102737519D01*
X177755740Y-102731000D01*
X177844260Y-102731000D01*
X177910443Y-102737519D01*
X177910443Y-102737519D01*
G37*
G36*
X175370443Y-102737519D02*
G01*
X175436627Y-102744037D01*
X175606466Y-102795557D01*
X175762991Y-102879222D01*
X175798729Y-102908552D01*
X175900186Y-102991814D01*
X175983448Y-103093271D01*
X176012778Y-103129009D01*
X176096443Y-103285534D01*
X176147963Y-103455373D01*
X176165359Y-103632000D01*
X176147963Y-103808627D01*
X176096443Y-103978466D01*
X176012778Y-104134991D01*
X175983448Y-104170729D01*
X175900186Y-104272186D01*
X175798729Y-104355448D01*
X175762991Y-104384778D01*
X175606466Y-104468443D01*
X175436627Y-104519963D01*
X175370443Y-104526481D01*
X175304260Y-104533000D01*
X175215740Y-104533000D01*
X175149557Y-104526481D01*
X175083373Y-104519963D01*
X174913534Y-104468443D01*
X174757009Y-104384778D01*
X174721271Y-104355448D01*
X174619814Y-104272186D01*
X174536552Y-104170729D01*
X174507222Y-104134991D01*
X174423557Y-103978466D01*
X174372037Y-103808627D01*
X174354641Y-103632000D01*
X174372037Y-103455373D01*
X174423557Y-103285534D01*
X174507222Y-103129009D01*
X174536552Y-103093271D01*
X174619814Y-102991814D01*
X174721271Y-102908552D01*
X174757009Y-102879222D01*
X174913534Y-102795557D01*
X175083373Y-102744037D01*
X175149557Y-102737519D01*
X175215740Y-102731000D01*
X175304260Y-102731000D01*
X175370443Y-102737519D01*
X175370443Y-102737519D01*
G37*
G36*
X172830443Y-102737519D02*
G01*
X172896627Y-102744037D01*
X173066466Y-102795557D01*
X173222991Y-102879222D01*
X173258729Y-102908552D01*
X173360186Y-102991814D01*
X173443448Y-103093271D01*
X173472778Y-103129009D01*
X173556443Y-103285534D01*
X173607963Y-103455373D01*
X173625359Y-103632000D01*
X173607963Y-103808627D01*
X173556443Y-103978466D01*
X173472778Y-104134991D01*
X173443448Y-104170729D01*
X173360186Y-104272186D01*
X173258729Y-104355448D01*
X173222991Y-104384778D01*
X173066466Y-104468443D01*
X172896627Y-104519963D01*
X172830443Y-104526481D01*
X172764260Y-104533000D01*
X172675740Y-104533000D01*
X172609557Y-104526481D01*
X172543373Y-104519963D01*
X172373534Y-104468443D01*
X172217009Y-104384778D01*
X172181271Y-104355448D01*
X172079814Y-104272186D01*
X171996552Y-104170729D01*
X171967222Y-104134991D01*
X171883557Y-103978466D01*
X171832037Y-103808627D01*
X171814641Y-103632000D01*
X171832037Y-103455373D01*
X171883557Y-103285534D01*
X171967222Y-103129009D01*
X171996552Y-103093271D01*
X172079814Y-102991814D01*
X172181271Y-102908552D01*
X172217009Y-102879222D01*
X172373534Y-102795557D01*
X172543373Y-102744037D01*
X172609557Y-102737519D01*
X172675740Y-102731000D01*
X172764260Y-102731000D01*
X172830443Y-102737519D01*
X172830443Y-102737519D01*
G37*
G36*
X170290443Y-102737519D02*
G01*
X170356627Y-102744037D01*
X170526466Y-102795557D01*
X170682991Y-102879222D01*
X170718729Y-102908552D01*
X170820186Y-102991814D01*
X170903448Y-103093271D01*
X170932778Y-103129009D01*
X171016443Y-103285534D01*
X171067963Y-103455373D01*
X171085359Y-103632000D01*
X171067963Y-103808627D01*
X171016443Y-103978466D01*
X170932778Y-104134991D01*
X170903448Y-104170729D01*
X170820186Y-104272186D01*
X170718729Y-104355448D01*
X170682991Y-104384778D01*
X170526466Y-104468443D01*
X170356627Y-104519963D01*
X170290443Y-104526481D01*
X170224260Y-104533000D01*
X170135740Y-104533000D01*
X170069557Y-104526481D01*
X170003373Y-104519963D01*
X169833534Y-104468443D01*
X169677009Y-104384778D01*
X169641271Y-104355448D01*
X169539814Y-104272186D01*
X169456552Y-104170729D01*
X169427222Y-104134991D01*
X169343557Y-103978466D01*
X169292037Y-103808627D01*
X169274641Y-103632000D01*
X169292037Y-103455373D01*
X169343557Y-103285534D01*
X169427222Y-103129009D01*
X169456552Y-103093271D01*
X169539814Y-102991814D01*
X169641271Y-102908552D01*
X169677009Y-102879222D01*
X169833534Y-102795557D01*
X170003373Y-102744037D01*
X170069557Y-102737519D01*
X170135740Y-102731000D01*
X170224260Y-102731000D01*
X170290443Y-102737519D01*
X170290443Y-102737519D01*
G37*
G36*
X167750443Y-102737519D02*
G01*
X167816627Y-102744037D01*
X167986466Y-102795557D01*
X168142991Y-102879222D01*
X168178729Y-102908552D01*
X168280186Y-102991814D01*
X168363448Y-103093271D01*
X168392778Y-103129009D01*
X168476443Y-103285534D01*
X168527963Y-103455373D01*
X168545359Y-103632000D01*
X168527963Y-103808627D01*
X168476443Y-103978466D01*
X168392778Y-104134991D01*
X168363448Y-104170729D01*
X168280186Y-104272186D01*
X168178729Y-104355448D01*
X168142991Y-104384778D01*
X167986466Y-104468443D01*
X167816627Y-104519963D01*
X167750443Y-104526481D01*
X167684260Y-104533000D01*
X167595740Y-104533000D01*
X167529557Y-104526481D01*
X167463373Y-104519963D01*
X167293534Y-104468443D01*
X167137009Y-104384778D01*
X167101271Y-104355448D01*
X166999814Y-104272186D01*
X166916552Y-104170729D01*
X166887222Y-104134991D01*
X166803557Y-103978466D01*
X166752037Y-103808627D01*
X166734641Y-103632000D01*
X166752037Y-103455373D01*
X166803557Y-103285534D01*
X166887222Y-103129009D01*
X166916552Y-103093271D01*
X166999814Y-102991814D01*
X167101271Y-102908552D01*
X167137009Y-102879222D01*
X167293534Y-102795557D01*
X167463373Y-102744037D01*
X167529557Y-102737519D01*
X167595740Y-102731000D01*
X167684260Y-102731000D01*
X167750443Y-102737519D01*
X167750443Y-102737519D01*
G37*
G36*
X165210443Y-102737519D02*
G01*
X165276627Y-102744037D01*
X165446466Y-102795557D01*
X165602991Y-102879222D01*
X165638729Y-102908552D01*
X165740186Y-102991814D01*
X165823448Y-103093271D01*
X165852778Y-103129009D01*
X165936443Y-103285534D01*
X165987963Y-103455373D01*
X166005359Y-103632000D01*
X165987963Y-103808627D01*
X165936443Y-103978466D01*
X165852778Y-104134991D01*
X165823448Y-104170729D01*
X165740186Y-104272186D01*
X165638729Y-104355448D01*
X165602991Y-104384778D01*
X165446466Y-104468443D01*
X165276627Y-104519963D01*
X165210443Y-104526481D01*
X165144260Y-104533000D01*
X165055740Y-104533000D01*
X164989557Y-104526481D01*
X164923373Y-104519963D01*
X164753534Y-104468443D01*
X164597009Y-104384778D01*
X164561271Y-104355448D01*
X164459814Y-104272186D01*
X164376552Y-104170729D01*
X164347222Y-104134991D01*
X164263557Y-103978466D01*
X164212037Y-103808627D01*
X164194641Y-103632000D01*
X164212037Y-103455373D01*
X164263557Y-103285534D01*
X164347222Y-103129009D01*
X164376552Y-103093271D01*
X164459814Y-102991814D01*
X164561271Y-102908552D01*
X164597009Y-102879222D01*
X164753534Y-102795557D01*
X164923373Y-102744037D01*
X164989557Y-102737519D01*
X165055740Y-102731000D01*
X165144260Y-102731000D01*
X165210443Y-102737519D01*
X165210443Y-102737519D01*
G37*
G36*
X162670443Y-102737519D02*
G01*
X162736627Y-102744037D01*
X162906466Y-102795557D01*
X163062991Y-102879222D01*
X163098729Y-102908552D01*
X163200186Y-102991814D01*
X163283448Y-103093271D01*
X163312778Y-103129009D01*
X163396443Y-103285534D01*
X163447963Y-103455373D01*
X163465359Y-103632000D01*
X163447963Y-103808627D01*
X163396443Y-103978466D01*
X163312778Y-104134991D01*
X163283448Y-104170729D01*
X163200186Y-104272186D01*
X163098729Y-104355448D01*
X163062991Y-104384778D01*
X162906466Y-104468443D01*
X162736627Y-104519963D01*
X162670443Y-104526481D01*
X162604260Y-104533000D01*
X162515740Y-104533000D01*
X162449557Y-104526481D01*
X162383373Y-104519963D01*
X162213534Y-104468443D01*
X162057009Y-104384778D01*
X162021271Y-104355448D01*
X161919814Y-104272186D01*
X161836552Y-104170729D01*
X161807222Y-104134991D01*
X161723557Y-103978466D01*
X161672037Y-103808627D01*
X161654641Y-103632000D01*
X161672037Y-103455373D01*
X161723557Y-103285534D01*
X161807222Y-103129009D01*
X161836552Y-103093271D01*
X161919814Y-102991814D01*
X162021271Y-102908552D01*
X162057009Y-102879222D01*
X162213534Y-102795557D01*
X162383373Y-102744037D01*
X162449557Y-102737519D01*
X162515740Y-102731000D01*
X162604260Y-102731000D01*
X162670443Y-102737519D01*
X162670443Y-102737519D01*
G37*
G36*
X160130443Y-102737519D02*
G01*
X160196627Y-102744037D01*
X160366466Y-102795557D01*
X160522991Y-102879222D01*
X160558729Y-102908552D01*
X160660186Y-102991814D01*
X160743448Y-103093271D01*
X160772778Y-103129009D01*
X160856443Y-103285534D01*
X160907963Y-103455373D01*
X160925359Y-103632000D01*
X160907963Y-103808627D01*
X160856443Y-103978466D01*
X160772778Y-104134991D01*
X160743448Y-104170729D01*
X160660186Y-104272186D01*
X160558729Y-104355448D01*
X160522991Y-104384778D01*
X160366466Y-104468443D01*
X160196627Y-104519963D01*
X160130443Y-104526481D01*
X160064260Y-104533000D01*
X159975740Y-104533000D01*
X159909557Y-104526481D01*
X159843373Y-104519963D01*
X159673534Y-104468443D01*
X159517009Y-104384778D01*
X159481271Y-104355448D01*
X159379814Y-104272186D01*
X159296552Y-104170729D01*
X159267222Y-104134991D01*
X159183557Y-103978466D01*
X159132037Y-103808627D01*
X159114641Y-103632000D01*
X159132037Y-103455373D01*
X159183557Y-103285534D01*
X159267222Y-103129009D01*
X159296552Y-103093271D01*
X159379814Y-102991814D01*
X159481271Y-102908552D01*
X159517009Y-102879222D01*
X159673534Y-102795557D01*
X159843373Y-102744037D01*
X159909557Y-102737519D01*
X159975740Y-102731000D01*
X160064260Y-102731000D01*
X160130443Y-102737519D01*
X160130443Y-102737519D01*
G37*
G36*
X157590443Y-102737519D02*
G01*
X157656627Y-102744037D01*
X157826466Y-102795557D01*
X157982991Y-102879222D01*
X158018729Y-102908552D01*
X158120186Y-102991814D01*
X158203448Y-103093271D01*
X158232778Y-103129009D01*
X158316443Y-103285534D01*
X158367963Y-103455373D01*
X158385359Y-103632000D01*
X158367963Y-103808627D01*
X158316443Y-103978466D01*
X158232778Y-104134991D01*
X158203448Y-104170729D01*
X158120186Y-104272186D01*
X158018729Y-104355448D01*
X157982991Y-104384778D01*
X157826466Y-104468443D01*
X157656627Y-104519963D01*
X157590443Y-104526481D01*
X157524260Y-104533000D01*
X157435740Y-104533000D01*
X157369557Y-104526481D01*
X157303373Y-104519963D01*
X157133534Y-104468443D01*
X156977009Y-104384778D01*
X156941271Y-104355448D01*
X156839814Y-104272186D01*
X156756552Y-104170729D01*
X156727222Y-104134991D01*
X156643557Y-103978466D01*
X156592037Y-103808627D01*
X156574641Y-103632000D01*
X156592037Y-103455373D01*
X156643557Y-103285534D01*
X156727222Y-103129009D01*
X156756552Y-103093271D01*
X156839814Y-102991814D01*
X156941271Y-102908552D01*
X156977009Y-102879222D01*
X157133534Y-102795557D01*
X157303373Y-102744037D01*
X157369557Y-102737519D01*
X157435740Y-102731000D01*
X157524260Y-102731000D01*
X157590443Y-102737519D01*
X157590443Y-102737519D01*
G37*
G36*
X155050443Y-102737519D02*
G01*
X155116627Y-102744037D01*
X155286466Y-102795557D01*
X155442991Y-102879222D01*
X155478729Y-102908552D01*
X155580186Y-102991814D01*
X155663448Y-103093271D01*
X155692778Y-103129009D01*
X155776443Y-103285534D01*
X155827963Y-103455373D01*
X155845359Y-103632000D01*
X155827963Y-103808627D01*
X155776443Y-103978466D01*
X155692778Y-104134991D01*
X155663448Y-104170729D01*
X155580186Y-104272186D01*
X155478729Y-104355448D01*
X155442991Y-104384778D01*
X155286466Y-104468443D01*
X155116627Y-104519963D01*
X155050443Y-104526481D01*
X154984260Y-104533000D01*
X154895740Y-104533000D01*
X154829557Y-104526481D01*
X154763373Y-104519963D01*
X154593534Y-104468443D01*
X154437009Y-104384778D01*
X154401271Y-104355448D01*
X154299814Y-104272186D01*
X154216552Y-104170729D01*
X154187222Y-104134991D01*
X154103557Y-103978466D01*
X154052037Y-103808627D01*
X154034641Y-103632000D01*
X154052037Y-103455373D01*
X154103557Y-103285534D01*
X154187222Y-103129009D01*
X154216552Y-103093271D01*
X154299814Y-102991814D01*
X154401271Y-102908552D01*
X154437009Y-102879222D01*
X154593534Y-102795557D01*
X154763373Y-102744037D01*
X154829557Y-102737519D01*
X154895740Y-102731000D01*
X154984260Y-102731000D01*
X155050443Y-102737519D01*
X155050443Y-102737519D01*
G37*
G36*
X152510443Y-102737519D02*
G01*
X152576627Y-102744037D01*
X152746466Y-102795557D01*
X152902991Y-102879222D01*
X152938729Y-102908552D01*
X153040186Y-102991814D01*
X153123448Y-103093271D01*
X153152778Y-103129009D01*
X153236443Y-103285534D01*
X153287963Y-103455373D01*
X153305359Y-103632000D01*
X153287963Y-103808627D01*
X153236443Y-103978466D01*
X153152778Y-104134991D01*
X153123448Y-104170729D01*
X153040186Y-104272186D01*
X152938729Y-104355448D01*
X152902991Y-104384778D01*
X152746466Y-104468443D01*
X152576627Y-104519963D01*
X152510443Y-104526481D01*
X152444260Y-104533000D01*
X152355740Y-104533000D01*
X152289557Y-104526481D01*
X152223373Y-104519963D01*
X152053534Y-104468443D01*
X151897009Y-104384778D01*
X151861271Y-104355448D01*
X151759814Y-104272186D01*
X151676552Y-104170729D01*
X151647222Y-104134991D01*
X151563557Y-103978466D01*
X151512037Y-103808627D01*
X151494641Y-103632000D01*
X151512037Y-103455373D01*
X151563557Y-103285534D01*
X151647222Y-103129009D01*
X151676552Y-103093271D01*
X151759814Y-102991814D01*
X151861271Y-102908552D01*
X151897009Y-102879222D01*
X152053534Y-102795557D01*
X152223373Y-102744037D01*
X152289557Y-102737519D01*
X152355740Y-102731000D01*
X152444260Y-102731000D01*
X152510443Y-102737519D01*
X152510443Y-102737519D01*
G37*
G36*
X149970443Y-102737519D02*
G01*
X150036627Y-102744037D01*
X150206466Y-102795557D01*
X150362991Y-102879222D01*
X150398729Y-102908552D01*
X150500186Y-102991814D01*
X150583448Y-103093271D01*
X150612778Y-103129009D01*
X150696443Y-103285534D01*
X150747963Y-103455373D01*
X150765359Y-103632000D01*
X150747963Y-103808627D01*
X150696443Y-103978466D01*
X150612778Y-104134991D01*
X150583448Y-104170729D01*
X150500186Y-104272186D01*
X150398729Y-104355448D01*
X150362991Y-104384778D01*
X150206466Y-104468443D01*
X150036627Y-104519963D01*
X149970443Y-104526481D01*
X149904260Y-104533000D01*
X149815740Y-104533000D01*
X149749557Y-104526481D01*
X149683373Y-104519963D01*
X149513534Y-104468443D01*
X149357009Y-104384778D01*
X149321271Y-104355448D01*
X149219814Y-104272186D01*
X149136552Y-104170729D01*
X149107222Y-104134991D01*
X149023557Y-103978466D01*
X148972037Y-103808627D01*
X148954641Y-103632000D01*
X148972037Y-103455373D01*
X149023557Y-103285534D01*
X149107222Y-103129009D01*
X149136552Y-103093271D01*
X149219814Y-102991814D01*
X149321271Y-102908552D01*
X149357009Y-102879222D01*
X149513534Y-102795557D01*
X149683373Y-102744037D01*
X149749557Y-102737519D01*
X149815740Y-102731000D01*
X149904260Y-102731000D01*
X149970443Y-102737519D01*
X149970443Y-102737519D01*
G37*
G36*
X147430443Y-102737519D02*
G01*
X147496627Y-102744037D01*
X147666466Y-102795557D01*
X147822991Y-102879222D01*
X147858729Y-102908552D01*
X147960186Y-102991814D01*
X148043448Y-103093271D01*
X148072778Y-103129009D01*
X148156443Y-103285534D01*
X148207963Y-103455373D01*
X148225359Y-103632000D01*
X148207963Y-103808627D01*
X148156443Y-103978466D01*
X148072778Y-104134991D01*
X148043448Y-104170729D01*
X147960186Y-104272186D01*
X147858729Y-104355448D01*
X147822991Y-104384778D01*
X147666466Y-104468443D01*
X147496627Y-104519963D01*
X147430443Y-104526481D01*
X147364260Y-104533000D01*
X147275740Y-104533000D01*
X147209557Y-104526481D01*
X147143373Y-104519963D01*
X146973534Y-104468443D01*
X146817009Y-104384778D01*
X146781271Y-104355448D01*
X146679814Y-104272186D01*
X146596552Y-104170729D01*
X146567222Y-104134991D01*
X146483557Y-103978466D01*
X146432037Y-103808627D01*
X146414641Y-103632000D01*
X146432037Y-103455373D01*
X146483557Y-103285534D01*
X146567222Y-103129009D01*
X146596552Y-103093271D01*
X146679814Y-102991814D01*
X146781271Y-102908552D01*
X146817009Y-102879222D01*
X146973534Y-102795557D01*
X147143373Y-102744037D01*
X147209557Y-102737519D01*
X147275740Y-102731000D01*
X147364260Y-102731000D01*
X147430443Y-102737519D01*
X147430443Y-102737519D01*
G37*
G36*
X144890443Y-102737519D02*
G01*
X144956627Y-102744037D01*
X145126466Y-102795557D01*
X145282991Y-102879222D01*
X145318729Y-102908552D01*
X145420186Y-102991814D01*
X145503448Y-103093271D01*
X145532778Y-103129009D01*
X145616443Y-103285534D01*
X145667963Y-103455373D01*
X145685359Y-103632000D01*
X145667963Y-103808627D01*
X145616443Y-103978466D01*
X145532778Y-104134991D01*
X145503448Y-104170729D01*
X145420186Y-104272186D01*
X145318729Y-104355448D01*
X145282991Y-104384778D01*
X145126466Y-104468443D01*
X144956627Y-104519963D01*
X144890443Y-104526481D01*
X144824260Y-104533000D01*
X144735740Y-104533000D01*
X144669557Y-104526481D01*
X144603373Y-104519963D01*
X144433534Y-104468443D01*
X144277009Y-104384778D01*
X144241271Y-104355448D01*
X144139814Y-104272186D01*
X144056552Y-104170729D01*
X144027222Y-104134991D01*
X143943557Y-103978466D01*
X143892037Y-103808627D01*
X143874641Y-103632000D01*
X143892037Y-103455373D01*
X143943557Y-103285534D01*
X144027222Y-103129009D01*
X144056552Y-103093271D01*
X144139814Y-102991814D01*
X144241271Y-102908552D01*
X144277009Y-102879222D01*
X144433534Y-102795557D01*
X144603373Y-102744037D01*
X144669557Y-102737519D01*
X144735740Y-102731000D01*
X144824260Y-102731000D01*
X144890443Y-102737519D01*
X144890443Y-102737519D01*
G37*
G36*
X142350443Y-102737519D02*
G01*
X142416627Y-102744037D01*
X142586466Y-102795557D01*
X142742991Y-102879222D01*
X142778729Y-102908552D01*
X142880186Y-102991814D01*
X142963448Y-103093271D01*
X142992778Y-103129009D01*
X143076443Y-103285534D01*
X143127963Y-103455373D01*
X143145359Y-103632000D01*
X143127963Y-103808627D01*
X143076443Y-103978466D01*
X142992778Y-104134991D01*
X142963448Y-104170729D01*
X142880186Y-104272186D01*
X142778729Y-104355448D01*
X142742991Y-104384778D01*
X142586466Y-104468443D01*
X142416627Y-104519963D01*
X142350443Y-104526481D01*
X142284260Y-104533000D01*
X142195740Y-104533000D01*
X142129557Y-104526481D01*
X142063373Y-104519963D01*
X141893534Y-104468443D01*
X141737009Y-104384778D01*
X141701271Y-104355448D01*
X141599814Y-104272186D01*
X141516552Y-104170729D01*
X141487222Y-104134991D01*
X141403557Y-103978466D01*
X141352037Y-103808627D01*
X141334641Y-103632000D01*
X141352037Y-103455373D01*
X141403557Y-103285534D01*
X141487222Y-103129009D01*
X141516552Y-103093271D01*
X141599814Y-102991814D01*
X141701271Y-102908552D01*
X141737009Y-102879222D01*
X141893534Y-102795557D01*
X142063373Y-102744037D01*
X142129557Y-102737519D01*
X142195740Y-102731000D01*
X142284260Y-102731000D01*
X142350443Y-102737519D01*
X142350443Y-102737519D01*
G37*
G36*
X139810443Y-102737519D02*
G01*
X139876627Y-102744037D01*
X140046466Y-102795557D01*
X140202991Y-102879222D01*
X140238729Y-102908552D01*
X140340186Y-102991814D01*
X140423448Y-103093271D01*
X140452778Y-103129009D01*
X140536443Y-103285534D01*
X140587963Y-103455373D01*
X140605359Y-103632000D01*
X140587963Y-103808627D01*
X140536443Y-103978466D01*
X140452778Y-104134991D01*
X140423448Y-104170729D01*
X140340186Y-104272186D01*
X140238729Y-104355448D01*
X140202991Y-104384778D01*
X140046466Y-104468443D01*
X139876627Y-104519963D01*
X139810443Y-104526481D01*
X139744260Y-104533000D01*
X139655740Y-104533000D01*
X139589557Y-104526481D01*
X139523373Y-104519963D01*
X139353534Y-104468443D01*
X139197009Y-104384778D01*
X139161271Y-104355448D01*
X139059814Y-104272186D01*
X138976552Y-104170729D01*
X138947222Y-104134991D01*
X138863557Y-103978466D01*
X138812037Y-103808627D01*
X138794641Y-103632000D01*
X138812037Y-103455373D01*
X138863557Y-103285534D01*
X138947222Y-103129009D01*
X138976552Y-103093271D01*
X139059814Y-102991814D01*
X139161271Y-102908552D01*
X139197009Y-102879222D01*
X139353534Y-102795557D01*
X139523373Y-102744037D01*
X139589557Y-102737519D01*
X139655740Y-102731000D01*
X139744260Y-102731000D01*
X139810443Y-102737519D01*
X139810443Y-102737519D01*
G37*
G36*
X138061000Y-104533000D02*
G01*
X136259000Y-104533000D01*
X136259000Y-102731000D01*
X138061000Y-102731000D01*
X138061000Y-104533000D01*
X138061000Y-104533000D01*
G37*
G36*
X162670442Y-100197518D02*
G01*
X162736627Y-100204037D01*
X162906466Y-100255557D01*
X163062991Y-100339222D01*
X163098729Y-100368552D01*
X163200186Y-100451814D01*
X163283448Y-100553271D01*
X163312778Y-100589009D01*
X163396443Y-100745534D01*
X163447963Y-100915373D01*
X163465359Y-101092000D01*
X163447963Y-101268627D01*
X163396443Y-101438466D01*
X163312778Y-101594991D01*
X163283448Y-101630729D01*
X163200186Y-101732186D01*
X163098729Y-101815448D01*
X163062991Y-101844778D01*
X162906466Y-101928443D01*
X162736627Y-101979963D01*
X162670442Y-101986482D01*
X162604260Y-101993000D01*
X162515740Y-101993000D01*
X162449558Y-101986482D01*
X162383373Y-101979963D01*
X162213534Y-101928443D01*
X162057009Y-101844778D01*
X162021271Y-101815448D01*
X161919814Y-101732186D01*
X161836552Y-101630729D01*
X161807222Y-101594991D01*
X161723557Y-101438466D01*
X161672037Y-101268627D01*
X161654641Y-101092000D01*
X161672037Y-100915373D01*
X161723557Y-100745534D01*
X161807222Y-100589009D01*
X161836552Y-100553271D01*
X161919814Y-100451814D01*
X162021271Y-100368552D01*
X162057009Y-100339222D01*
X162213534Y-100255557D01*
X162383373Y-100204037D01*
X162449558Y-100197518D01*
X162515740Y-100191000D01*
X162604260Y-100191000D01*
X162670442Y-100197518D01*
X162670442Y-100197518D01*
G37*
G36*
X185530442Y-100197518D02*
G01*
X185596627Y-100204037D01*
X185766466Y-100255557D01*
X185922991Y-100339222D01*
X185958729Y-100368552D01*
X186060186Y-100451814D01*
X186143448Y-100553271D01*
X186172778Y-100589009D01*
X186256443Y-100745534D01*
X186307963Y-100915373D01*
X186325359Y-101092000D01*
X186307963Y-101268627D01*
X186256443Y-101438466D01*
X186172778Y-101594991D01*
X186143448Y-101630729D01*
X186060186Y-101732186D01*
X185958729Y-101815448D01*
X185922991Y-101844778D01*
X185766466Y-101928443D01*
X185596627Y-101979963D01*
X185530442Y-101986482D01*
X185464260Y-101993000D01*
X185375740Y-101993000D01*
X185309558Y-101986482D01*
X185243373Y-101979963D01*
X185073534Y-101928443D01*
X184917009Y-101844778D01*
X184881271Y-101815448D01*
X184779814Y-101732186D01*
X184696552Y-101630729D01*
X184667222Y-101594991D01*
X184583557Y-101438466D01*
X184532037Y-101268627D01*
X184514641Y-101092000D01*
X184532037Y-100915373D01*
X184583557Y-100745534D01*
X184667222Y-100589009D01*
X184696552Y-100553271D01*
X184779814Y-100451814D01*
X184881271Y-100368552D01*
X184917009Y-100339222D01*
X185073534Y-100255557D01*
X185243373Y-100204037D01*
X185309558Y-100197518D01*
X185375740Y-100191000D01*
X185464260Y-100191000D01*
X185530442Y-100197518D01*
X185530442Y-100197518D01*
G37*
G36*
X182990442Y-100197518D02*
G01*
X183056627Y-100204037D01*
X183226466Y-100255557D01*
X183382991Y-100339222D01*
X183418729Y-100368552D01*
X183520186Y-100451814D01*
X183603448Y-100553271D01*
X183632778Y-100589009D01*
X183716443Y-100745534D01*
X183767963Y-100915373D01*
X183785359Y-101092000D01*
X183767963Y-101268627D01*
X183716443Y-101438466D01*
X183632778Y-101594991D01*
X183603448Y-101630729D01*
X183520186Y-101732186D01*
X183418729Y-101815448D01*
X183382991Y-101844778D01*
X183226466Y-101928443D01*
X183056627Y-101979963D01*
X182990442Y-101986482D01*
X182924260Y-101993000D01*
X182835740Y-101993000D01*
X182769558Y-101986482D01*
X182703373Y-101979963D01*
X182533534Y-101928443D01*
X182377009Y-101844778D01*
X182341271Y-101815448D01*
X182239814Y-101732186D01*
X182156552Y-101630729D01*
X182127222Y-101594991D01*
X182043557Y-101438466D01*
X181992037Y-101268627D01*
X181974641Y-101092000D01*
X181992037Y-100915373D01*
X182043557Y-100745534D01*
X182127222Y-100589009D01*
X182156552Y-100553271D01*
X182239814Y-100451814D01*
X182341271Y-100368552D01*
X182377009Y-100339222D01*
X182533534Y-100255557D01*
X182703373Y-100204037D01*
X182769558Y-100197518D01*
X182835740Y-100191000D01*
X182924260Y-100191000D01*
X182990442Y-100197518D01*
X182990442Y-100197518D01*
G37*
G36*
X180450442Y-100197518D02*
G01*
X180516627Y-100204037D01*
X180686466Y-100255557D01*
X180842991Y-100339222D01*
X180878729Y-100368552D01*
X180980186Y-100451814D01*
X181063448Y-100553271D01*
X181092778Y-100589009D01*
X181176443Y-100745534D01*
X181227963Y-100915373D01*
X181245359Y-101092000D01*
X181227963Y-101268627D01*
X181176443Y-101438466D01*
X181092778Y-101594991D01*
X181063448Y-101630729D01*
X180980186Y-101732186D01*
X180878729Y-101815448D01*
X180842991Y-101844778D01*
X180686466Y-101928443D01*
X180516627Y-101979963D01*
X180450442Y-101986482D01*
X180384260Y-101993000D01*
X180295740Y-101993000D01*
X180229558Y-101986482D01*
X180163373Y-101979963D01*
X179993534Y-101928443D01*
X179837009Y-101844778D01*
X179801271Y-101815448D01*
X179699814Y-101732186D01*
X179616552Y-101630729D01*
X179587222Y-101594991D01*
X179503557Y-101438466D01*
X179452037Y-101268627D01*
X179434641Y-101092000D01*
X179452037Y-100915373D01*
X179503557Y-100745534D01*
X179587222Y-100589009D01*
X179616552Y-100553271D01*
X179699814Y-100451814D01*
X179801271Y-100368552D01*
X179837009Y-100339222D01*
X179993534Y-100255557D01*
X180163373Y-100204037D01*
X180229558Y-100197518D01*
X180295740Y-100191000D01*
X180384260Y-100191000D01*
X180450442Y-100197518D01*
X180450442Y-100197518D01*
G37*
G36*
X177910442Y-100197518D02*
G01*
X177976627Y-100204037D01*
X178146466Y-100255557D01*
X178302991Y-100339222D01*
X178338729Y-100368552D01*
X178440186Y-100451814D01*
X178523448Y-100553271D01*
X178552778Y-100589009D01*
X178636443Y-100745534D01*
X178687963Y-100915373D01*
X178705359Y-101092000D01*
X178687963Y-101268627D01*
X178636443Y-101438466D01*
X178552778Y-101594991D01*
X178523448Y-101630729D01*
X178440186Y-101732186D01*
X178338729Y-101815448D01*
X178302991Y-101844778D01*
X178146466Y-101928443D01*
X177976627Y-101979963D01*
X177910442Y-101986482D01*
X177844260Y-101993000D01*
X177755740Y-101993000D01*
X177689558Y-101986482D01*
X177623373Y-101979963D01*
X177453534Y-101928443D01*
X177297009Y-101844778D01*
X177261271Y-101815448D01*
X177159814Y-101732186D01*
X177076552Y-101630729D01*
X177047222Y-101594991D01*
X176963557Y-101438466D01*
X176912037Y-101268627D01*
X176894641Y-101092000D01*
X176912037Y-100915373D01*
X176963557Y-100745534D01*
X177047222Y-100589009D01*
X177076552Y-100553271D01*
X177159814Y-100451814D01*
X177261271Y-100368552D01*
X177297009Y-100339222D01*
X177453534Y-100255557D01*
X177623373Y-100204037D01*
X177689558Y-100197518D01*
X177755740Y-100191000D01*
X177844260Y-100191000D01*
X177910442Y-100197518D01*
X177910442Y-100197518D01*
G37*
G36*
X175370442Y-100197518D02*
G01*
X175436627Y-100204037D01*
X175606466Y-100255557D01*
X175762991Y-100339222D01*
X175798729Y-100368552D01*
X175900186Y-100451814D01*
X175983448Y-100553271D01*
X176012778Y-100589009D01*
X176096443Y-100745534D01*
X176147963Y-100915373D01*
X176165359Y-101092000D01*
X176147963Y-101268627D01*
X176096443Y-101438466D01*
X176012778Y-101594991D01*
X175983448Y-101630729D01*
X175900186Y-101732186D01*
X175798729Y-101815448D01*
X175762991Y-101844778D01*
X175606466Y-101928443D01*
X175436627Y-101979963D01*
X175370442Y-101986482D01*
X175304260Y-101993000D01*
X175215740Y-101993000D01*
X175149558Y-101986482D01*
X175083373Y-101979963D01*
X174913534Y-101928443D01*
X174757009Y-101844778D01*
X174721271Y-101815448D01*
X174619814Y-101732186D01*
X174536552Y-101630729D01*
X174507222Y-101594991D01*
X174423557Y-101438466D01*
X174372037Y-101268627D01*
X174354641Y-101092000D01*
X174372037Y-100915373D01*
X174423557Y-100745534D01*
X174507222Y-100589009D01*
X174536552Y-100553271D01*
X174619814Y-100451814D01*
X174721271Y-100368552D01*
X174757009Y-100339222D01*
X174913534Y-100255557D01*
X175083373Y-100204037D01*
X175149558Y-100197518D01*
X175215740Y-100191000D01*
X175304260Y-100191000D01*
X175370442Y-100197518D01*
X175370442Y-100197518D01*
G37*
G36*
X172830442Y-100197518D02*
G01*
X172896627Y-100204037D01*
X173066466Y-100255557D01*
X173222991Y-100339222D01*
X173258729Y-100368552D01*
X173360186Y-100451814D01*
X173443448Y-100553271D01*
X173472778Y-100589009D01*
X173556443Y-100745534D01*
X173607963Y-100915373D01*
X173625359Y-101092000D01*
X173607963Y-101268627D01*
X173556443Y-101438466D01*
X173472778Y-101594991D01*
X173443448Y-101630729D01*
X173360186Y-101732186D01*
X173258729Y-101815448D01*
X173222991Y-101844778D01*
X173066466Y-101928443D01*
X172896627Y-101979963D01*
X172830442Y-101986482D01*
X172764260Y-101993000D01*
X172675740Y-101993000D01*
X172609558Y-101986482D01*
X172543373Y-101979963D01*
X172373534Y-101928443D01*
X172217009Y-101844778D01*
X172181271Y-101815448D01*
X172079814Y-101732186D01*
X171996552Y-101630729D01*
X171967222Y-101594991D01*
X171883557Y-101438466D01*
X171832037Y-101268627D01*
X171814641Y-101092000D01*
X171832037Y-100915373D01*
X171883557Y-100745534D01*
X171967222Y-100589009D01*
X171996552Y-100553271D01*
X172079814Y-100451814D01*
X172181271Y-100368552D01*
X172217009Y-100339222D01*
X172373534Y-100255557D01*
X172543373Y-100204037D01*
X172609558Y-100197518D01*
X172675740Y-100191000D01*
X172764260Y-100191000D01*
X172830442Y-100197518D01*
X172830442Y-100197518D01*
G37*
G36*
X170290442Y-100197518D02*
G01*
X170356627Y-100204037D01*
X170526466Y-100255557D01*
X170682991Y-100339222D01*
X170718729Y-100368552D01*
X170820186Y-100451814D01*
X170903448Y-100553271D01*
X170932778Y-100589009D01*
X171016443Y-100745534D01*
X171067963Y-100915373D01*
X171085359Y-101092000D01*
X171067963Y-101268627D01*
X171016443Y-101438466D01*
X170932778Y-101594991D01*
X170903448Y-101630729D01*
X170820186Y-101732186D01*
X170718729Y-101815448D01*
X170682991Y-101844778D01*
X170526466Y-101928443D01*
X170356627Y-101979963D01*
X170290442Y-101986482D01*
X170224260Y-101993000D01*
X170135740Y-101993000D01*
X170069558Y-101986482D01*
X170003373Y-101979963D01*
X169833534Y-101928443D01*
X169677009Y-101844778D01*
X169641271Y-101815448D01*
X169539814Y-101732186D01*
X169456552Y-101630729D01*
X169427222Y-101594991D01*
X169343557Y-101438466D01*
X169292037Y-101268627D01*
X169274641Y-101092000D01*
X169292037Y-100915373D01*
X169343557Y-100745534D01*
X169427222Y-100589009D01*
X169456552Y-100553271D01*
X169539814Y-100451814D01*
X169641271Y-100368552D01*
X169677009Y-100339222D01*
X169833534Y-100255557D01*
X170003373Y-100204037D01*
X170069558Y-100197518D01*
X170135740Y-100191000D01*
X170224260Y-100191000D01*
X170290442Y-100197518D01*
X170290442Y-100197518D01*
G37*
G36*
X167750442Y-100197518D02*
G01*
X167816627Y-100204037D01*
X167986466Y-100255557D01*
X168142991Y-100339222D01*
X168178729Y-100368552D01*
X168280186Y-100451814D01*
X168363448Y-100553271D01*
X168392778Y-100589009D01*
X168476443Y-100745534D01*
X168527963Y-100915373D01*
X168545359Y-101092000D01*
X168527963Y-101268627D01*
X168476443Y-101438466D01*
X168392778Y-101594991D01*
X168363448Y-101630729D01*
X168280186Y-101732186D01*
X168178729Y-101815448D01*
X168142991Y-101844778D01*
X167986466Y-101928443D01*
X167816627Y-101979963D01*
X167750442Y-101986482D01*
X167684260Y-101993000D01*
X167595740Y-101993000D01*
X167529558Y-101986482D01*
X167463373Y-101979963D01*
X167293534Y-101928443D01*
X167137009Y-101844778D01*
X167101271Y-101815448D01*
X166999814Y-101732186D01*
X166916552Y-101630729D01*
X166887222Y-101594991D01*
X166803557Y-101438466D01*
X166752037Y-101268627D01*
X166734641Y-101092000D01*
X166752037Y-100915373D01*
X166803557Y-100745534D01*
X166887222Y-100589009D01*
X166916552Y-100553271D01*
X166999814Y-100451814D01*
X167101271Y-100368552D01*
X167137009Y-100339222D01*
X167293534Y-100255557D01*
X167463373Y-100204037D01*
X167529558Y-100197518D01*
X167595740Y-100191000D01*
X167684260Y-100191000D01*
X167750442Y-100197518D01*
X167750442Y-100197518D01*
G37*
G36*
X165210442Y-100197518D02*
G01*
X165276627Y-100204037D01*
X165446466Y-100255557D01*
X165602991Y-100339222D01*
X165638729Y-100368552D01*
X165740186Y-100451814D01*
X165823448Y-100553271D01*
X165852778Y-100589009D01*
X165936443Y-100745534D01*
X165987963Y-100915373D01*
X166005359Y-101092000D01*
X165987963Y-101268627D01*
X165936443Y-101438466D01*
X165852778Y-101594991D01*
X165823448Y-101630729D01*
X165740186Y-101732186D01*
X165638729Y-101815448D01*
X165602991Y-101844778D01*
X165446466Y-101928443D01*
X165276627Y-101979963D01*
X165210442Y-101986482D01*
X165144260Y-101993000D01*
X165055740Y-101993000D01*
X164989558Y-101986482D01*
X164923373Y-101979963D01*
X164753534Y-101928443D01*
X164597009Y-101844778D01*
X164561271Y-101815448D01*
X164459814Y-101732186D01*
X164376552Y-101630729D01*
X164347222Y-101594991D01*
X164263557Y-101438466D01*
X164212037Y-101268627D01*
X164194641Y-101092000D01*
X164212037Y-100915373D01*
X164263557Y-100745534D01*
X164347222Y-100589009D01*
X164376552Y-100553271D01*
X164459814Y-100451814D01*
X164561271Y-100368552D01*
X164597009Y-100339222D01*
X164753534Y-100255557D01*
X164923373Y-100204037D01*
X164989558Y-100197518D01*
X165055740Y-100191000D01*
X165144260Y-100191000D01*
X165210442Y-100197518D01*
X165210442Y-100197518D01*
G37*
G36*
X160130442Y-100197518D02*
G01*
X160196627Y-100204037D01*
X160366466Y-100255557D01*
X160522991Y-100339222D01*
X160558729Y-100368552D01*
X160660186Y-100451814D01*
X160743448Y-100553271D01*
X160772778Y-100589009D01*
X160856443Y-100745534D01*
X160907963Y-100915373D01*
X160925359Y-101092000D01*
X160907963Y-101268627D01*
X160856443Y-101438466D01*
X160772778Y-101594991D01*
X160743448Y-101630729D01*
X160660186Y-101732186D01*
X160558729Y-101815448D01*
X160522991Y-101844778D01*
X160366466Y-101928443D01*
X160196627Y-101979963D01*
X160130442Y-101986482D01*
X160064260Y-101993000D01*
X159975740Y-101993000D01*
X159909558Y-101986482D01*
X159843373Y-101979963D01*
X159673534Y-101928443D01*
X159517009Y-101844778D01*
X159481271Y-101815448D01*
X159379814Y-101732186D01*
X159296552Y-101630729D01*
X159267222Y-101594991D01*
X159183557Y-101438466D01*
X159132037Y-101268627D01*
X159114641Y-101092000D01*
X159132037Y-100915373D01*
X159183557Y-100745534D01*
X159267222Y-100589009D01*
X159296552Y-100553271D01*
X159379814Y-100451814D01*
X159481271Y-100368552D01*
X159517009Y-100339222D01*
X159673534Y-100255557D01*
X159843373Y-100204037D01*
X159909558Y-100197518D01*
X159975740Y-100191000D01*
X160064260Y-100191000D01*
X160130442Y-100197518D01*
X160130442Y-100197518D01*
G37*
G36*
X157590442Y-100197518D02*
G01*
X157656627Y-100204037D01*
X157826466Y-100255557D01*
X157982991Y-100339222D01*
X158018729Y-100368552D01*
X158120186Y-100451814D01*
X158203448Y-100553271D01*
X158232778Y-100589009D01*
X158316443Y-100745534D01*
X158367963Y-100915373D01*
X158385359Y-101092000D01*
X158367963Y-101268627D01*
X158316443Y-101438466D01*
X158232778Y-101594991D01*
X158203448Y-101630729D01*
X158120186Y-101732186D01*
X158018729Y-101815448D01*
X157982991Y-101844778D01*
X157826466Y-101928443D01*
X157656627Y-101979963D01*
X157590442Y-101986482D01*
X157524260Y-101993000D01*
X157435740Y-101993000D01*
X157369558Y-101986482D01*
X157303373Y-101979963D01*
X157133534Y-101928443D01*
X156977009Y-101844778D01*
X156941271Y-101815448D01*
X156839814Y-101732186D01*
X156756552Y-101630729D01*
X156727222Y-101594991D01*
X156643557Y-101438466D01*
X156592037Y-101268627D01*
X156574641Y-101092000D01*
X156592037Y-100915373D01*
X156643557Y-100745534D01*
X156727222Y-100589009D01*
X156756552Y-100553271D01*
X156839814Y-100451814D01*
X156941271Y-100368552D01*
X156977009Y-100339222D01*
X157133534Y-100255557D01*
X157303373Y-100204037D01*
X157369558Y-100197518D01*
X157435740Y-100191000D01*
X157524260Y-100191000D01*
X157590442Y-100197518D01*
X157590442Y-100197518D01*
G37*
G36*
X155050442Y-100197518D02*
G01*
X155116627Y-100204037D01*
X155286466Y-100255557D01*
X155442991Y-100339222D01*
X155478729Y-100368552D01*
X155580186Y-100451814D01*
X155663448Y-100553271D01*
X155692778Y-100589009D01*
X155776443Y-100745534D01*
X155827963Y-100915373D01*
X155845359Y-101092000D01*
X155827963Y-101268627D01*
X155776443Y-101438466D01*
X155692778Y-101594991D01*
X155663448Y-101630729D01*
X155580186Y-101732186D01*
X155478729Y-101815448D01*
X155442991Y-101844778D01*
X155286466Y-101928443D01*
X155116627Y-101979963D01*
X155050442Y-101986482D01*
X154984260Y-101993000D01*
X154895740Y-101993000D01*
X154829558Y-101986482D01*
X154763373Y-101979963D01*
X154593534Y-101928443D01*
X154437009Y-101844778D01*
X154401271Y-101815448D01*
X154299814Y-101732186D01*
X154216552Y-101630729D01*
X154187222Y-101594991D01*
X154103557Y-101438466D01*
X154052037Y-101268627D01*
X154034641Y-101092000D01*
X154052037Y-100915373D01*
X154103557Y-100745534D01*
X154187222Y-100589009D01*
X154216552Y-100553271D01*
X154299814Y-100451814D01*
X154401271Y-100368552D01*
X154437009Y-100339222D01*
X154593534Y-100255557D01*
X154763373Y-100204037D01*
X154829558Y-100197518D01*
X154895740Y-100191000D01*
X154984260Y-100191000D01*
X155050442Y-100197518D01*
X155050442Y-100197518D01*
G37*
G36*
X152510442Y-100197518D02*
G01*
X152576627Y-100204037D01*
X152746466Y-100255557D01*
X152902991Y-100339222D01*
X152938729Y-100368552D01*
X153040186Y-100451814D01*
X153123448Y-100553271D01*
X153152778Y-100589009D01*
X153236443Y-100745534D01*
X153287963Y-100915373D01*
X153305359Y-101092000D01*
X153287963Y-101268627D01*
X153236443Y-101438466D01*
X153152778Y-101594991D01*
X153123448Y-101630729D01*
X153040186Y-101732186D01*
X152938729Y-101815448D01*
X152902991Y-101844778D01*
X152746466Y-101928443D01*
X152576627Y-101979963D01*
X152510442Y-101986482D01*
X152444260Y-101993000D01*
X152355740Y-101993000D01*
X152289558Y-101986482D01*
X152223373Y-101979963D01*
X152053534Y-101928443D01*
X151897009Y-101844778D01*
X151861271Y-101815448D01*
X151759814Y-101732186D01*
X151676552Y-101630729D01*
X151647222Y-101594991D01*
X151563557Y-101438466D01*
X151512037Y-101268627D01*
X151494641Y-101092000D01*
X151512037Y-100915373D01*
X151563557Y-100745534D01*
X151647222Y-100589009D01*
X151676552Y-100553271D01*
X151759814Y-100451814D01*
X151861271Y-100368552D01*
X151897009Y-100339222D01*
X152053534Y-100255557D01*
X152223373Y-100204037D01*
X152289558Y-100197518D01*
X152355740Y-100191000D01*
X152444260Y-100191000D01*
X152510442Y-100197518D01*
X152510442Y-100197518D01*
G37*
G36*
X149970442Y-100197518D02*
G01*
X150036627Y-100204037D01*
X150206466Y-100255557D01*
X150362991Y-100339222D01*
X150398729Y-100368552D01*
X150500186Y-100451814D01*
X150583448Y-100553271D01*
X150612778Y-100589009D01*
X150696443Y-100745534D01*
X150747963Y-100915373D01*
X150765359Y-101092000D01*
X150747963Y-101268627D01*
X150696443Y-101438466D01*
X150612778Y-101594991D01*
X150583448Y-101630729D01*
X150500186Y-101732186D01*
X150398729Y-101815448D01*
X150362991Y-101844778D01*
X150206466Y-101928443D01*
X150036627Y-101979963D01*
X149970442Y-101986482D01*
X149904260Y-101993000D01*
X149815740Y-101993000D01*
X149749558Y-101986482D01*
X149683373Y-101979963D01*
X149513534Y-101928443D01*
X149357009Y-101844778D01*
X149321271Y-101815448D01*
X149219814Y-101732186D01*
X149136552Y-101630729D01*
X149107222Y-101594991D01*
X149023557Y-101438466D01*
X148972037Y-101268627D01*
X148954641Y-101092000D01*
X148972037Y-100915373D01*
X149023557Y-100745534D01*
X149107222Y-100589009D01*
X149136552Y-100553271D01*
X149219814Y-100451814D01*
X149321271Y-100368552D01*
X149357009Y-100339222D01*
X149513534Y-100255557D01*
X149683373Y-100204037D01*
X149749558Y-100197518D01*
X149815740Y-100191000D01*
X149904260Y-100191000D01*
X149970442Y-100197518D01*
X149970442Y-100197518D01*
G37*
G36*
X147430442Y-100197518D02*
G01*
X147496627Y-100204037D01*
X147666466Y-100255557D01*
X147822991Y-100339222D01*
X147858729Y-100368552D01*
X147960186Y-100451814D01*
X148043448Y-100553271D01*
X148072778Y-100589009D01*
X148156443Y-100745534D01*
X148207963Y-100915373D01*
X148225359Y-101092000D01*
X148207963Y-101268627D01*
X148156443Y-101438466D01*
X148072778Y-101594991D01*
X148043448Y-101630729D01*
X147960186Y-101732186D01*
X147858729Y-101815448D01*
X147822991Y-101844778D01*
X147666466Y-101928443D01*
X147496627Y-101979963D01*
X147430442Y-101986482D01*
X147364260Y-101993000D01*
X147275740Y-101993000D01*
X147209558Y-101986482D01*
X147143373Y-101979963D01*
X146973534Y-101928443D01*
X146817009Y-101844778D01*
X146781271Y-101815448D01*
X146679814Y-101732186D01*
X146596552Y-101630729D01*
X146567222Y-101594991D01*
X146483557Y-101438466D01*
X146432037Y-101268627D01*
X146414641Y-101092000D01*
X146432037Y-100915373D01*
X146483557Y-100745534D01*
X146567222Y-100589009D01*
X146596552Y-100553271D01*
X146679814Y-100451814D01*
X146781271Y-100368552D01*
X146817009Y-100339222D01*
X146973534Y-100255557D01*
X147143373Y-100204037D01*
X147209558Y-100197518D01*
X147275740Y-100191000D01*
X147364260Y-100191000D01*
X147430442Y-100197518D01*
X147430442Y-100197518D01*
G37*
G36*
X144890442Y-100197518D02*
G01*
X144956627Y-100204037D01*
X145126466Y-100255557D01*
X145282991Y-100339222D01*
X145318729Y-100368552D01*
X145420186Y-100451814D01*
X145503448Y-100553271D01*
X145532778Y-100589009D01*
X145616443Y-100745534D01*
X145667963Y-100915373D01*
X145685359Y-101092000D01*
X145667963Y-101268627D01*
X145616443Y-101438466D01*
X145532778Y-101594991D01*
X145503448Y-101630729D01*
X145420186Y-101732186D01*
X145318729Y-101815448D01*
X145282991Y-101844778D01*
X145126466Y-101928443D01*
X144956627Y-101979963D01*
X144890442Y-101986482D01*
X144824260Y-101993000D01*
X144735740Y-101993000D01*
X144669558Y-101986482D01*
X144603373Y-101979963D01*
X144433534Y-101928443D01*
X144277009Y-101844778D01*
X144241271Y-101815448D01*
X144139814Y-101732186D01*
X144056552Y-101630729D01*
X144027222Y-101594991D01*
X143943557Y-101438466D01*
X143892037Y-101268627D01*
X143874641Y-101092000D01*
X143892037Y-100915373D01*
X143943557Y-100745534D01*
X144027222Y-100589009D01*
X144056552Y-100553271D01*
X144139814Y-100451814D01*
X144241271Y-100368552D01*
X144277009Y-100339222D01*
X144433534Y-100255557D01*
X144603373Y-100204037D01*
X144669558Y-100197518D01*
X144735740Y-100191000D01*
X144824260Y-100191000D01*
X144890442Y-100197518D01*
X144890442Y-100197518D01*
G37*
G36*
X142350442Y-100197518D02*
G01*
X142416627Y-100204037D01*
X142586466Y-100255557D01*
X142742991Y-100339222D01*
X142778729Y-100368552D01*
X142880186Y-100451814D01*
X142963448Y-100553271D01*
X142992778Y-100589009D01*
X143076443Y-100745534D01*
X143127963Y-100915373D01*
X143145359Y-101092000D01*
X143127963Y-101268627D01*
X143076443Y-101438466D01*
X142992778Y-101594991D01*
X142963448Y-101630729D01*
X142880186Y-101732186D01*
X142778729Y-101815448D01*
X142742991Y-101844778D01*
X142586466Y-101928443D01*
X142416627Y-101979963D01*
X142350442Y-101986482D01*
X142284260Y-101993000D01*
X142195740Y-101993000D01*
X142129558Y-101986482D01*
X142063373Y-101979963D01*
X141893534Y-101928443D01*
X141737009Y-101844778D01*
X141701271Y-101815448D01*
X141599814Y-101732186D01*
X141516552Y-101630729D01*
X141487222Y-101594991D01*
X141403557Y-101438466D01*
X141352037Y-101268627D01*
X141334641Y-101092000D01*
X141352037Y-100915373D01*
X141403557Y-100745534D01*
X141487222Y-100589009D01*
X141516552Y-100553271D01*
X141599814Y-100451814D01*
X141701271Y-100368552D01*
X141737009Y-100339222D01*
X141893534Y-100255557D01*
X142063373Y-100204037D01*
X142129558Y-100197518D01*
X142195740Y-100191000D01*
X142284260Y-100191000D01*
X142350442Y-100197518D01*
X142350442Y-100197518D01*
G37*
G36*
X139810442Y-100197518D02*
G01*
X139876627Y-100204037D01*
X140046466Y-100255557D01*
X140202991Y-100339222D01*
X140238729Y-100368552D01*
X140340186Y-100451814D01*
X140423448Y-100553271D01*
X140452778Y-100589009D01*
X140536443Y-100745534D01*
X140587963Y-100915373D01*
X140605359Y-101092000D01*
X140587963Y-101268627D01*
X140536443Y-101438466D01*
X140452778Y-101594991D01*
X140423448Y-101630729D01*
X140340186Y-101732186D01*
X140238729Y-101815448D01*
X140202991Y-101844778D01*
X140046466Y-101928443D01*
X139876627Y-101979963D01*
X139810442Y-101986482D01*
X139744260Y-101993000D01*
X139655740Y-101993000D01*
X139589558Y-101986482D01*
X139523373Y-101979963D01*
X139353534Y-101928443D01*
X139197009Y-101844778D01*
X139161271Y-101815448D01*
X139059814Y-101732186D01*
X138976552Y-101630729D01*
X138947222Y-101594991D01*
X138863557Y-101438466D01*
X138812037Y-101268627D01*
X138794641Y-101092000D01*
X138812037Y-100915373D01*
X138863557Y-100745534D01*
X138947222Y-100589009D01*
X138976552Y-100553271D01*
X139059814Y-100451814D01*
X139161271Y-100368552D01*
X139197009Y-100339222D01*
X139353534Y-100255557D01*
X139523373Y-100204037D01*
X139589558Y-100197518D01*
X139655740Y-100191000D01*
X139744260Y-100191000D01*
X139810442Y-100197518D01*
X139810442Y-100197518D01*
G37*
G36*
X137270442Y-100197518D02*
G01*
X137336627Y-100204037D01*
X137506466Y-100255557D01*
X137662991Y-100339222D01*
X137698729Y-100368552D01*
X137800186Y-100451814D01*
X137883448Y-100553271D01*
X137912778Y-100589009D01*
X137996443Y-100745534D01*
X138047963Y-100915373D01*
X138065359Y-101092000D01*
X138047963Y-101268627D01*
X137996443Y-101438466D01*
X137912778Y-101594991D01*
X137883448Y-101630729D01*
X137800186Y-101732186D01*
X137698729Y-101815448D01*
X137662991Y-101844778D01*
X137506466Y-101928443D01*
X137336627Y-101979963D01*
X137270442Y-101986482D01*
X137204260Y-101993000D01*
X137115740Y-101993000D01*
X137049558Y-101986482D01*
X136983373Y-101979963D01*
X136813534Y-101928443D01*
X136657009Y-101844778D01*
X136621271Y-101815448D01*
X136519814Y-101732186D01*
X136436552Y-101630729D01*
X136407222Y-101594991D01*
X136323557Y-101438466D01*
X136272037Y-101268627D01*
X136254641Y-101092000D01*
X136272037Y-100915373D01*
X136323557Y-100745534D01*
X136407222Y-100589009D01*
X136436552Y-100553271D01*
X136519814Y-100451814D01*
X136621271Y-100368552D01*
X136657009Y-100339222D01*
X136813534Y-100255557D01*
X136983373Y-100204037D01*
X137049558Y-100197518D01*
X137115740Y-100191000D01*
X137204260Y-100191000D01*
X137270442Y-100197518D01*
X137270442Y-100197518D01*
G37*
G36*
X170290443Y-88259519D02*
G01*
X170356627Y-88266037D01*
X170526466Y-88317557D01*
X170682991Y-88401222D01*
X170718729Y-88430552D01*
X170820186Y-88513814D01*
X170903448Y-88615271D01*
X170932778Y-88651009D01*
X171016443Y-88807534D01*
X171067963Y-88977373D01*
X171085359Y-89154000D01*
X171067963Y-89330627D01*
X171016443Y-89500466D01*
X170932778Y-89656991D01*
X170903448Y-89692729D01*
X170820186Y-89794186D01*
X170718729Y-89877448D01*
X170682991Y-89906778D01*
X170526466Y-89990443D01*
X170356627Y-90041963D01*
X170290443Y-90048481D01*
X170224260Y-90055000D01*
X170135740Y-90055000D01*
X170069557Y-90048481D01*
X170003373Y-90041963D01*
X169833534Y-89990443D01*
X169677009Y-89906778D01*
X169641271Y-89877448D01*
X169539814Y-89794186D01*
X169456552Y-89692729D01*
X169427222Y-89656991D01*
X169343557Y-89500466D01*
X169292037Y-89330627D01*
X169274641Y-89154000D01*
X169292037Y-88977373D01*
X169343557Y-88807534D01*
X169427222Y-88651009D01*
X169456552Y-88615271D01*
X169539814Y-88513814D01*
X169641271Y-88430552D01*
X169677009Y-88401222D01*
X169833534Y-88317557D01*
X170003373Y-88266037D01*
X170069557Y-88259519D01*
X170135740Y-88253000D01*
X170224260Y-88253000D01*
X170290443Y-88259519D01*
X170290443Y-88259519D01*
G37*
G36*
X153301000Y-90055000D02*
G01*
X151499000Y-90055000D01*
X151499000Y-88253000D01*
X153301000Y-88253000D01*
X153301000Y-90055000D01*
X153301000Y-90055000D01*
G37*
G36*
X155050443Y-88259519D02*
G01*
X155116627Y-88266037D01*
X155286466Y-88317557D01*
X155442991Y-88401222D01*
X155478729Y-88430552D01*
X155580186Y-88513814D01*
X155663448Y-88615271D01*
X155692778Y-88651009D01*
X155776443Y-88807534D01*
X155827963Y-88977373D01*
X155845359Y-89154000D01*
X155827963Y-89330627D01*
X155776443Y-89500466D01*
X155692778Y-89656991D01*
X155663448Y-89692729D01*
X155580186Y-89794186D01*
X155478729Y-89877448D01*
X155442991Y-89906778D01*
X155286466Y-89990443D01*
X155116627Y-90041963D01*
X155050443Y-90048481D01*
X154984260Y-90055000D01*
X154895740Y-90055000D01*
X154829557Y-90048481D01*
X154763373Y-90041963D01*
X154593534Y-89990443D01*
X154437009Y-89906778D01*
X154401271Y-89877448D01*
X154299814Y-89794186D01*
X154216552Y-89692729D01*
X154187222Y-89656991D01*
X154103557Y-89500466D01*
X154052037Y-89330627D01*
X154034641Y-89154000D01*
X154052037Y-88977373D01*
X154103557Y-88807534D01*
X154187222Y-88651009D01*
X154216552Y-88615271D01*
X154299814Y-88513814D01*
X154401271Y-88430552D01*
X154437009Y-88401222D01*
X154593534Y-88317557D01*
X154763373Y-88266037D01*
X154829557Y-88259519D01*
X154895740Y-88253000D01*
X154984260Y-88253000D01*
X155050443Y-88259519D01*
X155050443Y-88259519D01*
G37*
G36*
X157590443Y-88259519D02*
G01*
X157656627Y-88266037D01*
X157826466Y-88317557D01*
X157982991Y-88401222D01*
X158018729Y-88430552D01*
X158120186Y-88513814D01*
X158203448Y-88615271D01*
X158232778Y-88651009D01*
X158316443Y-88807534D01*
X158367963Y-88977373D01*
X158385359Y-89154000D01*
X158367963Y-89330627D01*
X158316443Y-89500466D01*
X158232778Y-89656991D01*
X158203448Y-89692729D01*
X158120186Y-89794186D01*
X158018729Y-89877448D01*
X157982991Y-89906778D01*
X157826466Y-89990443D01*
X157656627Y-90041963D01*
X157590443Y-90048481D01*
X157524260Y-90055000D01*
X157435740Y-90055000D01*
X157369557Y-90048481D01*
X157303373Y-90041963D01*
X157133534Y-89990443D01*
X156977009Y-89906778D01*
X156941271Y-89877448D01*
X156839814Y-89794186D01*
X156756552Y-89692729D01*
X156727222Y-89656991D01*
X156643557Y-89500466D01*
X156592037Y-89330627D01*
X156574641Y-89154000D01*
X156592037Y-88977373D01*
X156643557Y-88807534D01*
X156727222Y-88651009D01*
X156756552Y-88615271D01*
X156839814Y-88513814D01*
X156941271Y-88430552D01*
X156977009Y-88401222D01*
X157133534Y-88317557D01*
X157303373Y-88266037D01*
X157369557Y-88259519D01*
X157435740Y-88253000D01*
X157524260Y-88253000D01*
X157590443Y-88259519D01*
X157590443Y-88259519D01*
G37*
G36*
X160130443Y-88259519D02*
G01*
X160196627Y-88266037D01*
X160366466Y-88317557D01*
X160522991Y-88401222D01*
X160558729Y-88430552D01*
X160660186Y-88513814D01*
X160743448Y-88615271D01*
X160772778Y-88651009D01*
X160856443Y-88807534D01*
X160907963Y-88977373D01*
X160925359Y-89154000D01*
X160907963Y-89330627D01*
X160856443Y-89500466D01*
X160772778Y-89656991D01*
X160743448Y-89692729D01*
X160660186Y-89794186D01*
X160558729Y-89877448D01*
X160522991Y-89906778D01*
X160366466Y-89990443D01*
X160196627Y-90041963D01*
X160130443Y-90048481D01*
X160064260Y-90055000D01*
X159975740Y-90055000D01*
X159909557Y-90048481D01*
X159843373Y-90041963D01*
X159673534Y-89990443D01*
X159517009Y-89906778D01*
X159481271Y-89877448D01*
X159379814Y-89794186D01*
X159296552Y-89692729D01*
X159267222Y-89656991D01*
X159183557Y-89500466D01*
X159132037Y-89330627D01*
X159114641Y-89154000D01*
X159132037Y-88977373D01*
X159183557Y-88807534D01*
X159267222Y-88651009D01*
X159296552Y-88615271D01*
X159379814Y-88513814D01*
X159481271Y-88430552D01*
X159517009Y-88401222D01*
X159673534Y-88317557D01*
X159843373Y-88266037D01*
X159909557Y-88259519D01*
X159975740Y-88253000D01*
X160064260Y-88253000D01*
X160130443Y-88259519D01*
X160130443Y-88259519D01*
G37*
G36*
X162670443Y-88259519D02*
G01*
X162736627Y-88266037D01*
X162906466Y-88317557D01*
X163062991Y-88401222D01*
X163098729Y-88430552D01*
X163200186Y-88513814D01*
X163283448Y-88615271D01*
X163312778Y-88651009D01*
X163396443Y-88807534D01*
X163447963Y-88977373D01*
X163465359Y-89154000D01*
X163447963Y-89330627D01*
X163396443Y-89500466D01*
X163312778Y-89656991D01*
X163283448Y-89692729D01*
X163200186Y-89794186D01*
X163098729Y-89877448D01*
X163062991Y-89906778D01*
X162906466Y-89990443D01*
X162736627Y-90041963D01*
X162670443Y-90048481D01*
X162604260Y-90055000D01*
X162515740Y-90055000D01*
X162449557Y-90048481D01*
X162383373Y-90041963D01*
X162213534Y-89990443D01*
X162057009Y-89906778D01*
X162021271Y-89877448D01*
X161919814Y-89794186D01*
X161836552Y-89692729D01*
X161807222Y-89656991D01*
X161723557Y-89500466D01*
X161672037Y-89330627D01*
X161654641Y-89154000D01*
X161672037Y-88977373D01*
X161723557Y-88807534D01*
X161807222Y-88651009D01*
X161836552Y-88615271D01*
X161919814Y-88513814D01*
X162021271Y-88430552D01*
X162057009Y-88401222D01*
X162213534Y-88317557D01*
X162383373Y-88266037D01*
X162449557Y-88259519D01*
X162515740Y-88253000D01*
X162604260Y-88253000D01*
X162670443Y-88259519D01*
X162670443Y-88259519D01*
G37*
G36*
X165210443Y-88259519D02*
G01*
X165276627Y-88266037D01*
X165446466Y-88317557D01*
X165602991Y-88401222D01*
X165638729Y-88430552D01*
X165740186Y-88513814D01*
X165823448Y-88615271D01*
X165852778Y-88651009D01*
X165936443Y-88807534D01*
X165987963Y-88977373D01*
X166005359Y-89154000D01*
X165987963Y-89330627D01*
X165936443Y-89500466D01*
X165852778Y-89656991D01*
X165823448Y-89692729D01*
X165740186Y-89794186D01*
X165638729Y-89877448D01*
X165602991Y-89906778D01*
X165446466Y-89990443D01*
X165276627Y-90041963D01*
X165210443Y-90048481D01*
X165144260Y-90055000D01*
X165055740Y-90055000D01*
X164989557Y-90048481D01*
X164923373Y-90041963D01*
X164753534Y-89990443D01*
X164597009Y-89906778D01*
X164561271Y-89877448D01*
X164459814Y-89794186D01*
X164376552Y-89692729D01*
X164347222Y-89656991D01*
X164263557Y-89500466D01*
X164212037Y-89330627D01*
X164194641Y-89154000D01*
X164212037Y-88977373D01*
X164263557Y-88807534D01*
X164347222Y-88651009D01*
X164376552Y-88615271D01*
X164459814Y-88513814D01*
X164561271Y-88430552D01*
X164597009Y-88401222D01*
X164753534Y-88317557D01*
X164923373Y-88266037D01*
X164989557Y-88259519D01*
X165055740Y-88253000D01*
X165144260Y-88253000D01*
X165210443Y-88259519D01*
X165210443Y-88259519D01*
G37*
G36*
X167750443Y-88259519D02*
G01*
X167816627Y-88266037D01*
X167986466Y-88317557D01*
X168142991Y-88401222D01*
X168178729Y-88430552D01*
X168280186Y-88513814D01*
X168363448Y-88615271D01*
X168392778Y-88651009D01*
X168476443Y-88807534D01*
X168527963Y-88977373D01*
X168545359Y-89154000D01*
X168527963Y-89330627D01*
X168476443Y-89500466D01*
X168392778Y-89656991D01*
X168363448Y-89692729D01*
X168280186Y-89794186D01*
X168178729Y-89877448D01*
X168142991Y-89906778D01*
X167986466Y-89990443D01*
X167816627Y-90041963D01*
X167750443Y-90048481D01*
X167684260Y-90055000D01*
X167595740Y-90055000D01*
X167529557Y-90048481D01*
X167463373Y-90041963D01*
X167293534Y-89990443D01*
X167137009Y-89906778D01*
X167101271Y-89877448D01*
X166999814Y-89794186D01*
X166916552Y-89692729D01*
X166887222Y-89656991D01*
X166803557Y-89500466D01*
X166752037Y-89330627D01*
X166734641Y-89154000D01*
X166752037Y-88977373D01*
X166803557Y-88807534D01*
X166887222Y-88651009D01*
X166916552Y-88615271D01*
X166999814Y-88513814D01*
X167101271Y-88430552D01*
X167137009Y-88401222D01*
X167293534Y-88317557D01*
X167463373Y-88266037D01*
X167529557Y-88259519D01*
X167595740Y-88253000D01*
X167684260Y-88253000D01*
X167750443Y-88259519D01*
X167750443Y-88259519D01*
G37*
G36*
X177966823Y-88315313D02*
G01*
X178127242Y-88363976D01*
X178196922Y-88401221D01*
X178275078Y-88442996D01*
X178404659Y-88549341D01*
X178511004Y-88678922D01*
X178511005Y-88678924D01*
X178590024Y-88826758D01*
X178638687Y-88987177D01*
X178655117Y-89154000D01*
X178638687Y-89320823D01*
X178590024Y-89481242D01*
X178579747Y-89500468D01*
X178511004Y-89629078D01*
X178404659Y-89758659D01*
X178275078Y-89865004D01*
X178275076Y-89865005D01*
X178127242Y-89944024D01*
X177966823Y-89992687D01*
X177841804Y-90005000D01*
X177758196Y-90005000D01*
X177633177Y-89992687D01*
X177472758Y-89944024D01*
X177324924Y-89865005D01*
X177324922Y-89865004D01*
X177195341Y-89758659D01*
X177088996Y-89629078D01*
X177020253Y-89500468D01*
X177009976Y-89481242D01*
X176961313Y-89320823D01*
X176944883Y-89154000D01*
X176961313Y-88987177D01*
X177009976Y-88826758D01*
X177088995Y-88678924D01*
X177088996Y-88678922D01*
X177195341Y-88549341D01*
X177324922Y-88442996D01*
X177403078Y-88401221D01*
X177472758Y-88363976D01*
X177633177Y-88315313D01*
X177758196Y-88303000D01*
X177841804Y-88303000D01*
X177966823Y-88315313D01*
X177966823Y-88315313D01*
G37*
G36*
X144946823Y-88315313D02*
G01*
X145107242Y-88363976D01*
X145176922Y-88401221D01*
X145255078Y-88442996D01*
X145384659Y-88549341D01*
X145491004Y-88678922D01*
X145491005Y-88678924D01*
X145570024Y-88826758D01*
X145618687Y-88987177D01*
X145635117Y-89154000D01*
X145618687Y-89320823D01*
X145570024Y-89481242D01*
X145559747Y-89500468D01*
X145491004Y-89629078D01*
X145384659Y-89758659D01*
X145255078Y-89865004D01*
X145255076Y-89865005D01*
X145107242Y-89944024D01*
X144946823Y-89992687D01*
X144821804Y-90005000D01*
X144738196Y-90005000D01*
X144613177Y-89992687D01*
X144452758Y-89944024D01*
X144304924Y-89865005D01*
X144304922Y-89865004D01*
X144175341Y-89758659D01*
X144068996Y-89629078D01*
X144000253Y-89500468D01*
X143989976Y-89481242D01*
X143941313Y-89320823D01*
X143924883Y-89154000D01*
X143941313Y-88987177D01*
X143989976Y-88826758D01*
X144068995Y-88678924D01*
X144068996Y-88678922D01*
X144175341Y-88549341D01*
X144304922Y-88442996D01*
X144383078Y-88401221D01*
X144452758Y-88363976D01*
X144613177Y-88315313D01*
X144738196Y-88303000D01*
X144821804Y-88303000D01*
X144946823Y-88315313D01*
X144946823Y-88315313D01*
G37*
G36*
X185586823Y-88315313D02*
G01*
X185747242Y-88363976D01*
X185816922Y-88401221D01*
X185895078Y-88442996D01*
X186024659Y-88549341D01*
X186131004Y-88678922D01*
X186131005Y-88678924D01*
X186210024Y-88826758D01*
X186258687Y-88987177D01*
X186275117Y-89154000D01*
X186258687Y-89320823D01*
X186210024Y-89481242D01*
X186199747Y-89500468D01*
X186131004Y-89629078D01*
X186024659Y-89758659D01*
X185895078Y-89865004D01*
X185895076Y-89865005D01*
X185747242Y-89944024D01*
X185586823Y-89992687D01*
X185461804Y-90005000D01*
X185378196Y-90005000D01*
X185253177Y-89992687D01*
X185092758Y-89944024D01*
X184944924Y-89865005D01*
X184944922Y-89865004D01*
X184815341Y-89758659D01*
X184708996Y-89629078D01*
X184640253Y-89500468D01*
X184629976Y-89481242D01*
X184581313Y-89320823D01*
X184564883Y-89154000D01*
X184581313Y-88987177D01*
X184629976Y-88826758D01*
X184708995Y-88678924D01*
X184708996Y-88678922D01*
X184815341Y-88549341D01*
X184944922Y-88442996D01*
X185023078Y-88401221D01*
X185092758Y-88363976D01*
X185253177Y-88315313D01*
X185378196Y-88303000D01*
X185461804Y-88303000D01*
X185586823Y-88315313D01*
X185586823Y-88315313D01*
G37*
G36*
X137326823Y-88315313D02*
G01*
X137487242Y-88363976D01*
X137556922Y-88401221D01*
X137635078Y-88442996D01*
X137764659Y-88549341D01*
X137871004Y-88678922D01*
X137871005Y-88678924D01*
X137950024Y-88826758D01*
X137998687Y-88987177D01*
X138015117Y-89154000D01*
X137998687Y-89320823D01*
X137950024Y-89481242D01*
X137939747Y-89500468D01*
X137871004Y-89629078D01*
X137764659Y-89758659D01*
X137635078Y-89865004D01*
X137635076Y-89865005D01*
X137487242Y-89944024D01*
X137326823Y-89992687D01*
X137201804Y-90005000D01*
X137118196Y-90005000D01*
X136993177Y-89992687D01*
X136832758Y-89944024D01*
X136684924Y-89865005D01*
X136684922Y-89865004D01*
X136555341Y-89758659D01*
X136448996Y-89629078D01*
X136380253Y-89500468D01*
X136369976Y-89481242D01*
X136321313Y-89320823D01*
X136304883Y-89154000D01*
X136321313Y-88987177D01*
X136369976Y-88826758D01*
X136448995Y-88678924D01*
X136448996Y-88678922D01*
X136555341Y-88549341D01*
X136684922Y-88442996D01*
X136763078Y-88401221D01*
X136832758Y-88363976D01*
X136993177Y-88315313D01*
X137118196Y-88303000D01*
X137201804Y-88303000D01*
X137326823Y-88315313D01*
X137326823Y-88315313D01*
G37*
G36*
X167750443Y-85719519D02*
G01*
X167816627Y-85726037D01*
X167986466Y-85777557D01*
X168142991Y-85861222D01*
X168178729Y-85890552D01*
X168280186Y-85973814D01*
X168363448Y-86075271D01*
X168392778Y-86111009D01*
X168476443Y-86267534D01*
X168527963Y-86437373D01*
X168545359Y-86614000D01*
X168527963Y-86790627D01*
X168476443Y-86960466D01*
X168392778Y-87116991D01*
X168363448Y-87152729D01*
X168280186Y-87254186D01*
X168178729Y-87337448D01*
X168142991Y-87366778D01*
X167986466Y-87450443D01*
X167816627Y-87501963D01*
X167750443Y-87508481D01*
X167684260Y-87515000D01*
X167595740Y-87515000D01*
X167529557Y-87508481D01*
X167463373Y-87501963D01*
X167293534Y-87450443D01*
X167137009Y-87366778D01*
X167101271Y-87337448D01*
X166999814Y-87254186D01*
X166916552Y-87152729D01*
X166887222Y-87116991D01*
X166803557Y-86960466D01*
X166752037Y-86790627D01*
X166734641Y-86614000D01*
X166752037Y-86437373D01*
X166803557Y-86267534D01*
X166887222Y-86111009D01*
X166916552Y-86075271D01*
X166999814Y-85973814D01*
X167101271Y-85890552D01*
X167137009Y-85861222D01*
X167293534Y-85777557D01*
X167463373Y-85726037D01*
X167529557Y-85719519D01*
X167595740Y-85713000D01*
X167684260Y-85713000D01*
X167750443Y-85719519D01*
X167750443Y-85719519D01*
G37*
G36*
X157590443Y-85719519D02*
G01*
X157656627Y-85726037D01*
X157826466Y-85777557D01*
X157982991Y-85861222D01*
X158018729Y-85890552D01*
X158120186Y-85973814D01*
X158203448Y-86075271D01*
X158232778Y-86111009D01*
X158316443Y-86267534D01*
X158367963Y-86437373D01*
X158385359Y-86614000D01*
X158367963Y-86790627D01*
X158316443Y-86960466D01*
X158232778Y-87116991D01*
X158203448Y-87152729D01*
X158120186Y-87254186D01*
X158018729Y-87337448D01*
X157982991Y-87366778D01*
X157826466Y-87450443D01*
X157656627Y-87501963D01*
X157590443Y-87508481D01*
X157524260Y-87515000D01*
X157435740Y-87515000D01*
X157369557Y-87508481D01*
X157303373Y-87501963D01*
X157133534Y-87450443D01*
X156977009Y-87366778D01*
X156941271Y-87337448D01*
X156839814Y-87254186D01*
X156756552Y-87152729D01*
X156727222Y-87116991D01*
X156643557Y-86960466D01*
X156592037Y-86790627D01*
X156574641Y-86614000D01*
X156592037Y-86437373D01*
X156643557Y-86267534D01*
X156727222Y-86111009D01*
X156756552Y-86075271D01*
X156839814Y-85973814D01*
X156941271Y-85890552D01*
X156977009Y-85861222D01*
X157133534Y-85777557D01*
X157303373Y-85726037D01*
X157369557Y-85719519D01*
X157435740Y-85713000D01*
X157524260Y-85713000D01*
X157590443Y-85719519D01*
X157590443Y-85719519D01*
G37*
G36*
X160130443Y-85719519D02*
G01*
X160196627Y-85726037D01*
X160366466Y-85777557D01*
X160522991Y-85861222D01*
X160558729Y-85890552D01*
X160660186Y-85973814D01*
X160743448Y-86075271D01*
X160772778Y-86111009D01*
X160856443Y-86267534D01*
X160907963Y-86437373D01*
X160925359Y-86614000D01*
X160907963Y-86790627D01*
X160856443Y-86960466D01*
X160772778Y-87116991D01*
X160743448Y-87152729D01*
X160660186Y-87254186D01*
X160558729Y-87337448D01*
X160522991Y-87366778D01*
X160366466Y-87450443D01*
X160196627Y-87501963D01*
X160130443Y-87508481D01*
X160064260Y-87515000D01*
X159975740Y-87515000D01*
X159909557Y-87508481D01*
X159843373Y-87501963D01*
X159673534Y-87450443D01*
X159517009Y-87366778D01*
X159481271Y-87337448D01*
X159379814Y-87254186D01*
X159296552Y-87152729D01*
X159267222Y-87116991D01*
X159183557Y-86960466D01*
X159132037Y-86790627D01*
X159114641Y-86614000D01*
X159132037Y-86437373D01*
X159183557Y-86267534D01*
X159267222Y-86111009D01*
X159296552Y-86075271D01*
X159379814Y-85973814D01*
X159481271Y-85890552D01*
X159517009Y-85861222D01*
X159673534Y-85777557D01*
X159843373Y-85726037D01*
X159909557Y-85719519D01*
X159975740Y-85713000D01*
X160064260Y-85713000D01*
X160130443Y-85719519D01*
X160130443Y-85719519D01*
G37*
G36*
X152510443Y-85719519D02*
G01*
X152576627Y-85726037D01*
X152746466Y-85777557D01*
X152902991Y-85861222D01*
X152938729Y-85890552D01*
X153040186Y-85973814D01*
X153123448Y-86075271D01*
X153152778Y-86111009D01*
X153236443Y-86267534D01*
X153287963Y-86437373D01*
X153305359Y-86614000D01*
X153287963Y-86790627D01*
X153236443Y-86960466D01*
X153152778Y-87116991D01*
X153123448Y-87152729D01*
X153040186Y-87254186D01*
X152938729Y-87337448D01*
X152902991Y-87366778D01*
X152746466Y-87450443D01*
X152576627Y-87501963D01*
X152510443Y-87508481D01*
X152444260Y-87515000D01*
X152355740Y-87515000D01*
X152289557Y-87508481D01*
X152223373Y-87501963D01*
X152053534Y-87450443D01*
X151897009Y-87366778D01*
X151861271Y-87337448D01*
X151759814Y-87254186D01*
X151676552Y-87152729D01*
X151647222Y-87116991D01*
X151563557Y-86960466D01*
X151512037Y-86790627D01*
X151494641Y-86614000D01*
X151512037Y-86437373D01*
X151563557Y-86267534D01*
X151647222Y-86111009D01*
X151676552Y-86075271D01*
X151759814Y-85973814D01*
X151861271Y-85890552D01*
X151897009Y-85861222D01*
X152053534Y-85777557D01*
X152223373Y-85726037D01*
X152289557Y-85719519D01*
X152355740Y-85713000D01*
X152444260Y-85713000D01*
X152510443Y-85719519D01*
X152510443Y-85719519D01*
G37*
G36*
X165210443Y-85719519D02*
G01*
X165276627Y-85726037D01*
X165446466Y-85777557D01*
X165602991Y-85861222D01*
X165638729Y-85890552D01*
X165740186Y-85973814D01*
X165823448Y-86075271D01*
X165852778Y-86111009D01*
X165936443Y-86267534D01*
X165987963Y-86437373D01*
X166005359Y-86614000D01*
X165987963Y-86790627D01*
X165936443Y-86960466D01*
X165852778Y-87116991D01*
X165823448Y-87152729D01*
X165740186Y-87254186D01*
X165638729Y-87337448D01*
X165602991Y-87366778D01*
X165446466Y-87450443D01*
X165276627Y-87501963D01*
X165210443Y-87508481D01*
X165144260Y-87515000D01*
X165055740Y-87515000D01*
X164989557Y-87508481D01*
X164923373Y-87501963D01*
X164753534Y-87450443D01*
X164597009Y-87366778D01*
X164561271Y-87337448D01*
X164459814Y-87254186D01*
X164376552Y-87152729D01*
X164347222Y-87116991D01*
X164263557Y-86960466D01*
X164212037Y-86790627D01*
X164194641Y-86614000D01*
X164212037Y-86437373D01*
X164263557Y-86267534D01*
X164347222Y-86111009D01*
X164376552Y-86075271D01*
X164459814Y-85973814D01*
X164561271Y-85890552D01*
X164597009Y-85861222D01*
X164753534Y-85777557D01*
X164923373Y-85726037D01*
X164989557Y-85719519D01*
X165055740Y-85713000D01*
X165144260Y-85713000D01*
X165210443Y-85719519D01*
X165210443Y-85719519D01*
G37*
G36*
X162670443Y-85719519D02*
G01*
X162736627Y-85726037D01*
X162906466Y-85777557D01*
X163062991Y-85861222D01*
X163098729Y-85890552D01*
X163200186Y-85973814D01*
X163283448Y-86075271D01*
X163312778Y-86111009D01*
X163396443Y-86267534D01*
X163447963Y-86437373D01*
X163465359Y-86614000D01*
X163447963Y-86790627D01*
X163396443Y-86960466D01*
X163312778Y-87116991D01*
X163283448Y-87152729D01*
X163200186Y-87254186D01*
X163098729Y-87337448D01*
X163062991Y-87366778D01*
X162906466Y-87450443D01*
X162736627Y-87501963D01*
X162670443Y-87508481D01*
X162604260Y-87515000D01*
X162515740Y-87515000D01*
X162449557Y-87508481D01*
X162383373Y-87501963D01*
X162213534Y-87450443D01*
X162057009Y-87366778D01*
X162021271Y-87337448D01*
X161919814Y-87254186D01*
X161836552Y-87152729D01*
X161807222Y-87116991D01*
X161723557Y-86960466D01*
X161672037Y-86790627D01*
X161654641Y-86614000D01*
X161672037Y-86437373D01*
X161723557Y-86267534D01*
X161807222Y-86111009D01*
X161836552Y-86075271D01*
X161919814Y-85973814D01*
X162021271Y-85890552D01*
X162057009Y-85861222D01*
X162213534Y-85777557D01*
X162383373Y-85726037D01*
X162449557Y-85719519D01*
X162515740Y-85713000D01*
X162604260Y-85713000D01*
X162670443Y-85719519D01*
X162670443Y-85719519D01*
G37*
G36*
X170290443Y-85719519D02*
G01*
X170356627Y-85726037D01*
X170526466Y-85777557D01*
X170682991Y-85861222D01*
X170718729Y-85890552D01*
X170820186Y-85973814D01*
X170903448Y-86075271D01*
X170932778Y-86111009D01*
X171016443Y-86267534D01*
X171067963Y-86437373D01*
X171085359Y-86614000D01*
X171067963Y-86790627D01*
X171016443Y-86960466D01*
X170932778Y-87116991D01*
X170903448Y-87152729D01*
X170820186Y-87254186D01*
X170718729Y-87337448D01*
X170682991Y-87366778D01*
X170526466Y-87450443D01*
X170356627Y-87501963D01*
X170290443Y-87508481D01*
X170224260Y-87515000D01*
X170135740Y-87515000D01*
X170069557Y-87508481D01*
X170003373Y-87501963D01*
X169833534Y-87450443D01*
X169677009Y-87366778D01*
X169641271Y-87337448D01*
X169539814Y-87254186D01*
X169456552Y-87152729D01*
X169427222Y-87116991D01*
X169343557Y-86960466D01*
X169292037Y-86790627D01*
X169274641Y-86614000D01*
X169292037Y-86437373D01*
X169343557Y-86267534D01*
X169427222Y-86111009D01*
X169456552Y-86075271D01*
X169539814Y-85973814D01*
X169641271Y-85890552D01*
X169677009Y-85861222D01*
X169833534Y-85777557D01*
X170003373Y-85726037D01*
X170069557Y-85719519D01*
X170135740Y-85713000D01*
X170224260Y-85713000D01*
X170290443Y-85719519D01*
X170290443Y-85719519D01*
G37*
G36*
X155050443Y-85719519D02*
G01*
X155116627Y-85726037D01*
X155286466Y-85777557D01*
X155442991Y-85861222D01*
X155478729Y-85890552D01*
X155580186Y-85973814D01*
X155663448Y-86075271D01*
X155692778Y-86111009D01*
X155776443Y-86267534D01*
X155827963Y-86437373D01*
X155845359Y-86614000D01*
X155827963Y-86790627D01*
X155776443Y-86960466D01*
X155692778Y-87116991D01*
X155663448Y-87152729D01*
X155580186Y-87254186D01*
X155478729Y-87337448D01*
X155442991Y-87366778D01*
X155286466Y-87450443D01*
X155116627Y-87501963D01*
X155050443Y-87508481D01*
X154984260Y-87515000D01*
X154895740Y-87515000D01*
X154829557Y-87508481D01*
X154763373Y-87501963D01*
X154593534Y-87450443D01*
X154437009Y-87366778D01*
X154401271Y-87337448D01*
X154299814Y-87254186D01*
X154216552Y-87152729D01*
X154187222Y-87116991D01*
X154103557Y-86960466D01*
X154052037Y-86790627D01*
X154034641Y-86614000D01*
X154052037Y-86437373D01*
X154103557Y-86267534D01*
X154187222Y-86111009D01*
X154216552Y-86075271D01*
X154299814Y-85973814D01*
X154401271Y-85890552D01*
X154437009Y-85861222D01*
X154593534Y-85777557D01*
X154763373Y-85726037D01*
X154829557Y-85719519D01*
X154895740Y-85713000D01*
X154984260Y-85713000D01*
X155050443Y-85719519D01*
X155050443Y-85719519D01*
G37*
G36*
X137326823Y-85775313D02*
G01*
X137487242Y-85823976D01*
X137556922Y-85861221D01*
X137635078Y-85902996D01*
X137764659Y-86009341D01*
X137871004Y-86138922D01*
X137871005Y-86138924D01*
X137950024Y-86286758D01*
X137998687Y-86447177D01*
X138015117Y-86614000D01*
X137998687Y-86780823D01*
X137950024Y-86941242D01*
X137939747Y-86960468D01*
X137871004Y-87089078D01*
X137764659Y-87218659D01*
X137635078Y-87325004D01*
X137635076Y-87325005D01*
X137487242Y-87404024D01*
X137326823Y-87452687D01*
X137201804Y-87465000D01*
X137118196Y-87465000D01*
X136993177Y-87452687D01*
X136832758Y-87404024D01*
X136684924Y-87325005D01*
X136684922Y-87325004D01*
X136555341Y-87218659D01*
X136448996Y-87089078D01*
X136380253Y-86960468D01*
X136369976Y-86941242D01*
X136321313Y-86780823D01*
X136304883Y-86614000D01*
X136321313Y-86447177D01*
X136369976Y-86286758D01*
X136448995Y-86138924D01*
X136448996Y-86138922D01*
X136555341Y-86009341D01*
X136684922Y-85902996D01*
X136763078Y-85861221D01*
X136832758Y-85823976D01*
X136993177Y-85775313D01*
X137118196Y-85763000D01*
X137201804Y-85763000D01*
X137326823Y-85775313D01*
X137326823Y-85775313D01*
G37*
G36*
X185586823Y-85775313D02*
G01*
X185747242Y-85823976D01*
X185816922Y-85861221D01*
X185895078Y-85902996D01*
X186024659Y-86009341D01*
X186131004Y-86138922D01*
X186131005Y-86138924D01*
X186210024Y-86286758D01*
X186258687Y-86447177D01*
X186275117Y-86614000D01*
X186258687Y-86780823D01*
X186210024Y-86941242D01*
X186199747Y-86960468D01*
X186131004Y-87089078D01*
X186024659Y-87218659D01*
X185895078Y-87325004D01*
X185895076Y-87325005D01*
X185747242Y-87404024D01*
X185586823Y-87452687D01*
X185461804Y-87465000D01*
X185378196Y-87465000D01*
X185253177Y-87452687D01*
X185092758Y-87404024D01*
X184944924Y-87325005D01*
X184944922Y-87325004D01*
X184815341Y-87218659D01*
X184708996Y-87089078D01*
X184640253Y-86960468D01*
X184629976Y-86941242D01*
X184581313Y-86780823D01*
X184564883Y-86614000D01*
X184581313Y-86447177D01*
X184629976Y-86286758D01*
X184708995Y-86138924D01*
X184708996Y-86138922D01*
X184815341Y-86009341D01*
X184944922Y-85902996D01*
X185023078Y-85861221D01*
X185092758Y-85823976D01*
X185253177Y-85775313D01*
X185378196Y-85763000D01*
X185461804Y-85763000D01*
X185586823Y-85775313D01*
X185586823Y-85775313D01*
G37*
G36*
X177966823Y-85775313D02*
G01*
X178127242Y-85823976D01*
X178196922Y-85861221D01*
X178275078Y-85902996D01*
X178404659Y-86009341D01*
X178511004Y-86138922D01*
X178511005Y-86138924D01*
X178590024Y-86286758D01*
X178638687Y-86447177D01*
X178655117Y-86614000D01*
X178638687Y-86780823D01*
X178590024Y-86941242D01*
X178579747Y-86960468D01*
X178511004Y-87089078D01*
X178404659Y-87218659D01*
X178275078Y-87325004D01*
X178275076Y-87325005D01*
X178127242Y-87404024D01*
X177966823Y-87452687D01*
X177841804Y-87465000D01*
X177758196Y-87465000D01*
X177633177Y-87452687D01*
X177472758Y-87404024D01*
X177324924Y-87325005D01*
X177324922Y-87325004D01*
X177195341Y-87218659D01*
X177088996Y-87089078D01*
X177020253Y-86960468D01*
X177009976Y-86941242D01*
X176961313Y-86780823D01*
X176944883Y-86614000D01*
X176961313Y-86447177D01*
X177009976Y-86286758D01*
X177088995Y-86138924D01*
X177088996Y-86138922D01*
X177195341Y-86009341D01*
X177324922Y-85902996D01*
X177403078Y-85861221D01*
X177472758Y-85823976D01*
X177633177Y-85775313D01*
X177758196Y-85763000D01*
X177841804Y-85763000D01*
X177966823Y-85775313D01*
X177966823Y-85775313D01*
G37*
G36*
X144946823Y-85775313D02*
G01*
X145107242Y-85823976D01*
X145176922Y-85861221D01*
X145255078Y-85902996D01*
X145384659Y-86009341D01*
X145491004Y-86138922D01*
X145491005Y-86138924D01*
X145570024Y-86286758D01*
X145618687Y-86447177D01*
X145635117Y-86614000D01*
X145618687Y-86780823D01*
X145570024Y-86941242D01*
X145559747Y-86960468D01*
X145491004Y-87089078D01*
X145384659Y-87218659D01*
X145255078Y-87325004D01*
X145255076Y-87325005D01*
X145107242Y-87404024D01*
X144946823Y-87452687D01*
X144821804Y-87465000D01*
X144738196Y-87465000D01*
X144613177Y-87452687D01*
X144452758Y-87404024D01*
X144304924Y-87325005D01*
X144304922Y-87325004D01*
X144175341Y-87218659D01*
X144068996Y-87089078D01*
X144000253Y-86960468D01*
X143989976Y-86941242D01*
X143941313Y-86780823D01*
X143924883Y-86614000D01*
X143941313Y-86447177D01*
X143989976Y-86286758D01*
X144068995Y-86138924D01*
X144068996Y-86138922D01*
X144175341Y-86009341D01*
X144304922Y-85902996D01*
X144383078Y-85861221D01*
X144452758Y-85823976D01*
X144613177Y-85775313D01*
X144738196Y-85763000D01*
X144821804Y-85763000D01*
X144946823Y-85775313D01*
X144946823Y-85775313D01*
G37*
G36*
X177966823Y-83235313D02*
G01*
X178127242Y-83283976D01*
X178259906Y-83354886D01*
X178275078Y-83362996D01*
X178404659Y-83469341D01*
X178511004Y-83598922D01*
X178511005Y-83598924D01*
X178590024Y-83746758D01*
X178638687Y-83907177D01*
X178655117Y-84074000D01*
X178638687Y-84240823D01*
X178590024Y-84401242D01*
X178519114Y-84533906D01*
X178511004Y-84549078D01*
X178404659Y-84678659D01*
X178275078Y-84785004D01*
X178275076Y-84785005D01*
X178127242Y-84864024D01*
X177966823Y-84912687D01*
X177841804Y-84925000D01*
X177758196Y-84925000D01*
X177633177Y-84912687D01*
X177472758Y-84864024D01*
X177324924Y-84785005D01*
X177324922Y-84785004D01*
X177195341Y-84678659D01*
X177088996Y-84549078D01*
X177080886Y-84533906D01*
X177009976Y-84401242D01*
X176961313Y-84240823D01*
X176944883Y-84074000D01*
X176961313Y-83907177D01*
X177009976Y-83746758D01*
X177088995Y-83598924D01*
X177088996Y-83598922D01*
X177195341Y-83469341D01*
X177324922Y-83362996D01*
X177340094Y-83354886D01*
X177472758Y-83283976D01*
X177633177Y-83235313D01*
X177758196Y-83223000D01*
X177841804Y-83223000D01*
X177966823Y-83235313D01*
X177966823Y-83235313D01*
G37*
G36*
X185586823Y-83235313D02*
G01*
X185747242Y-83283976D01*
X185879906Y-83354886D01*
X185895078Y-83362996D01*
X186024659Y-83469341D01*
X186131004Y-83598922D01*
X186131005Y-83598924D01*
X186210024Y-83746758D01*
X186258687Y-83907177D01*
X186275117Y-84074000D01*
X186258687Y-84240823D01*
X186210024Y-84401242D01*
X186139114Y-84533906D01*
X186131004Y-84549078D01*
X186024659Y-84678659D01*
X185895078Y-84785004D01*
X185895076Y-84785005D01*
X185747242Y-84864024D01*
X185586823Y-84912687D01*
X185461804Y-84925000D01*
X185378196Y-84925000D01*
X185253177Y-84912687D01*
X185092758Y-84864024D01*
X184944924Y-84785005D01*
X184944922Y-84785004D01*
X184815341Y-84678659D01*
X184708996Y-84549078D01*
X184700886Y-84533906D01*
X184629976Y-84401242D01*
X184581313Y-84240823D01*
X184564883Y-84074000D01*
X184581313Y-83907177D01*
X184629976Y-83746758D01*
X184708995Y-83598924D01*
X184708996Y-83598922D01*
X184815341Y-83469341D01*
X184944922Y-83362996D01*
X184960094Y-83354886D01*
X185092758Y-83283976D01*
X185253177Y-83235313D01*
X185378196Y-83223000D01*
X185461804Y-83223000D01*
X185586823Y-83235313D01*
X185586823Y-83235313D01*
G37*
G36*
X137326823Y-83235313D02*
G01*
X137487242Y-83283976D01*
X137619906Y-83354886D01*
X137635078Y-83362996D01*
X137764659Y-83469341D01*
X137871004Y-83598922D01*
X137871005Y-83598924D01*
X137950024Y-83746758D01*
X137998687Y-83907177D01*
X138015117Y-84074000D01*
X137998687Y-84240823D01*
X137950024Y-84401242D01*
X137879114Y-84533906D01*
X137871004Y-84549078D01*
X137764659Y-84678659D01*
X137635078Y-84785004D01*
X137635076Y-84785005D01*
X137487242Y-84864024D01*
X137326823Y-84912687D01*
X137201804Y-84925000D01*
X137118196Y-84925000D01*
X136993177Y-84912687D01*
X136832758Y-84864024D01*
X136684924Y-84785005D01*
X136684922Y-84785004D01*
X136555341Y-84678659D01*
X136448996Y-84549078D01*
X136440886Y-84533906D01*
X136369976Y-84401242D01*
X136321313Y-84240823D01*
X136304883Y-84074000D01*
X136321313Y-83907177D01*
X136369976Y-83746758D01*
X136448995Y-83598924D01*
X136448996Y-83598922D01*
X136555341Y-83469341D01*
X136684922Y-83362996D01*
X136700094Y-83354886D01*
X136832758Y-83283976D01*
X136993177Y-83235313D01*
X137118196Y-83223000D01*
X137201804Y-83223000D01*
X137326823Y-83235313D01*
X137326823Y-83235313D01*
G37*
G36*
X144946823Y-83235313D02*
G01*
X145107242Y-83283976D01*
X145239906Y-83354886D01*
X145255078Y-83362996D01*
X145384659Y-83469341D01*
X145491004Y-83598922D01*
X145491005Y-83598924D01*
X145570024Y-83746758D01*
X145618687Y-83907177D01*
X145635117Y-84074000D01*
X145618687Y-84240823D01*
X145570024Y-84401242D01*
X145499114Y-84533906D01*
X145491004Y-84549078D01*
X145384659Y-84678659D01*
X145255078Y-84785004D01*
X145255076Y-84785005D01*
X145107242Y-84864024D01*
X144946823Y-84912687D01*
X144821804Y-84925000D01*
X144738196Y-84925000D01*
X144613177Y-84912687D01*
X144452758Y-84864024D01*
X144304924Y-84785005D01*
X144304922Y-84785004D01*
X144175341Y-84678659D01*
X144068996Y-84549078D01*
X144060886Y-84533906D01*
X143989976Y-84401242D01*
X143941313Y-84240823D01*
X143924883Y-84074000D01*
X143941313Y-83907177D01*
X143989976Y-83746758D01*
X144068995Y-83598924D01*
X144068996Y-83598922D01*
X144175341Y-83469341D01*
X144304922Y-83362996D01*
X144320094Y-83354886D01*
X144452758Y-83283976D01*
X144613177Y-83235313D01*
X144738196Y-83223000D01*
X144821804Y-83223000D01*
X144946823Y-83235313D01*
X144946823Y-83235313D01*
G37*
G36*
X177966823Y-80695313D02*
G01*
X178127242Y-80743976D01*
X178259906Y-80814886D01*
X178275078Y-80822996D01*
X178404659Y-80929341D01*
X178511004Y-81058922D01*
X178511005Y-81058924D01*
X178590024Y-81206758D01*
X178638687Y-81367177D01*
X178655117Y-81534000D01*
X178638687Y-81700823D01*
X178590024Y-81861242D01*
X178519114Y-81993906D01*
X178511004Y-82009078D01*
X178404659Y-82138659D01*
X178275078Y-82245004D01*
X178275076Y-82245005D01*
X178127242Y-82324024D01*
X177966823Y-82372687D01*
X177841804Y-82385000D01*
X177758196Y-82385000D01*
X177633177Y-82372687D01*
X177472758Y-82324024D01*
X177324924Y-82245005D01*
X177324922Y-82245004D01*
X177195341Y-82138659D01*
X177088996Y-82009078D01*
X177080886Y-81993906D01*
X177009976Y-81861242D01*
X176961313Y-81700823D01*
X176944883Y-81534000D01*
X176961313Y-81367177D01*
X177009976Y-81206758D01*
X177088995Y-81058924D01*
X177088996Y-81058922D01*
X177195341Y-80929341D01*
X177324922Y-80822996D01*
X177340094Y-80814886D01*
X177472758Y-80743976D01*
X177633177Y-80695313D01*
X177758196Y-80683000D01*
X177841804Y-80683000D01*
X177966823Y-80695313D01*
X177966823Y-80695313D01*
G37*
G36*
X185586823Y-80695313D02*
G01*
X185747242Y-80743976D01*
X185879906Y-80814886D01*
X185895078Y-80822996D01*
X186024659Y-80929341D01*
X186131004Y-81058922D01*
X186131005Y-81058924D01*
X186210024Y-81206758D01*
X186258687Y-81367177D01*
X186275117Y-81534000D01*
X186258687Y-81700823D01*
X186210024Y-81861242D01*
X186139114Y-81993906D01*
X186131004Y-82009078D01*
X186024659Y-82138659D01*
X185895078Y-82245004D01*
X185895076Y-82245005D01*
X185747242Y-82324024D01*
X185586823Y-82372687D01*
X185461804Y-82385000D01*
X185378196Y-82385000D01*
X185253177Y-82372687D01*
X185092758Y-82324024D01*
X184944924Y-82245005D01*
X184944922Y-82245004D01*
X184815341Y-82138659D01*
X184708996Y-82009078D01*
X184700886Y-81993906D01*
X184629976Y-81861242D01*
X184581313Y-81700823D01*
X184564883Y-81534000D01*
X184581313Y-81367177D01*
X184629976Y-81206758D01*
X184708995Y-81058924D01*
X184708996Y-81058922D01*
X184815341Y-80929341D01*
X184944922Y-80822996D01*
X184960094Y-80814886D01*
X185092758Y-80743976D01*
X185253177Y-80695313D01*
X185378196Y-80683000D01*
X185461804Y-80683000D01*
X185586823Y-80695313D01*
X185586823Y-80695313D01*
G37*
G36*
X137326823Y-80695313D02*
G01*
X137487242Y-80743976D01*
X137619906Y-80814886D01*
X137635078Y-80822996D01*
X137764659Y-80929341D01*
X137871004Y-81058922D01*
X137871005Y-81058924D01*
X137950024Y-81206758D01*
X137998687Y-81367177D01*
X138015117Y-81534000D01*
X137998687Y-81700823D01*
X137950024Y-81861242D01*
X137879114Y-81993906D01*
X137871004Y-82009078D01*
X137764659Y-82138659D01*
X137635078Y-82245004D01*
X137635076Y-82245005D01*
X137487242Y-82324024D01*
X137326823Y-82372687D01*
X137201804Y-82385000D01*
X137118196Y-82385000D01*
X136993177Y-82372687D01*
X136832758Y-82324024D01*
X136684924Y-82245005D01*
X136684922Y-82245004D01*
X136555341Y-82138659D01*
X136448996Y-82009078D01*
X136440886Y-81993906D01*
X136369976Y-81861242D01*
X136321313Y-81700823D01*
X136304883Y-81534000D01*
X136321313Y-81367177D01*
X136369976Y-81206758D01*
X136448995Y-81058924D01*
X136448996Y-81058922D01*
X136555341Y-80929341D01*
X136684922Y-80822996D01*
X136700094Y-80814886D01*
X136832758Y-80743976D01*
X136993177Y-80695313D01*
X137118196Y-80683000D01*
X137201804Y-80683000D01*
X137326823Y-80695313D01*
X137326823Y-80695313D01*
G37*
G36*
X144946823Y-80695313D02*
G01*
X145107242Y-80743976D01*
X145239906Y-80814886D01*
X145255078Y-80822996D01*
X145384659Y-80929341D01*
X145491004Y-81058922D01*
X145491005Y-81058924D01*
X145570024Y-81206758D01*
X145618687Y-81367177D01*
X145635117Y-81534000D01*
X145618687Y-81700823D01*
X145570024Y-81861242D01*
X145499114Y-81993906D01*
X145491004Y-82009078D01*
X145384659Y-82138659D01*
X145255078Y-82245004D01*
X145255076Y-82245005D01*
X145107242Y-82324024D01*
X144946823Y-82372687D01*
X144821804Y-82385000D01*
X144738196Y-82385000D01*
X144613177Y-82372687D01*
X144452758Y-82324024D01*
X144304924Y-82245005D01*
X144304922Y-82245004D01*
X144175341Y-82138659D01*
X144068996Y-82009078D01*
X144060886Y-81993906D01*
X143989976Y-81861242D01*
X143941313Y-81700823D01*
X143924883Y-81534000D01*
X143941313Y-81367177D01*
X143989976Y-81206758D01*
X144068995Y-81058924D01*
X144068996Y-81058922D01*
X144175341Y-80929341D01*
X144304922Y-80822996D01*
X144320094Y-80814886D01*
X144452758Y-80743976D01*
X144613177Y-80695313D01*
X144738196Y-80683000D01*
X144821804Y-80683000D01*
X144946823Y-80695313D01*
X144946823Y-80695313D01*
G37*
G36*
X177966823Y-78155313D02*
G01*
X178127242Y-78203976D01*
X178259906Y-78274886D01*
X178275078Y-78282996D01*
X178404659Y-78389341D01*
X178511004Y-78518922D01*
X178511005Y-78518924D01*
X178590024Y-78666758D01*
X178638687Y-78827177D01*
X178655117Y-78994000D01*
X178638687Y-79160823D01*
X178590024Y-79321242D01*
X178519114Y-79453906D01*
X178511004Y-79469078D01*
X178404659Y-79598659D01*
X178275078Y-79705004D01*
X178275076Y-79705005D01*
X178127242Y-79784024D01*
X177966823Y-79832687D01*
X177841804Y-79845000D01*
X177758196Y-79845000D01*
X177633177Y-79832687D01*
X177472758Y-79784024D01*
X177324924Y-79705005D01*
X177324922Y-79705004D01*
X177195341Y-79598659D01*
X177088996Y-79469078D01*
X177080886Y-79453906D01*
X177009976Y-79321242D01*
X176961313Y-79160823D01*
X176944883Y-78994000D01*
X176961313Y-78827177D01*
X177009976Y-78666758D01*
X177088995Y-78518924D01*
X177088996Y-78518922D01*
X177195341Y-78389341D01*
X177324922Y-78282996D01*
X177340094Y-78274886D01*
X177472758Y-78203976D01*
X177633177Y-78155313D01*
X177758196Y-78143000D01*
X177841804Y-78143000D01*
X177966823Y-78155313D01*
X177966823Y-78155313D01*
G37*
G36*
X185586823Y-78155313D02*
G01*
X185747242Y-78203976D01*
X185879906Y-78274886D01*
X185895078Y-78282996D01*
X186024659Y-78389341D01*
X186131004Y-78518922D01*
X186131005Y-78518924D01*
X186210024Y-78666758D01*
X186258687Y-78827177D01*
X186275117Y-78994000D01*
X186258687Y-79160823D01*
X186210024Y-79321242D01*
X186139114Y-79453906D01*
X186131004Y-79469078D01*
X186024659Y-79598659D01*
X185895078Y-79705004D01*
X185895076Y-79705005D01*
X185747242Y-79784024D01*
X185586823Y-79832687D01*
X185461804Y-79845000D01*
X185378196Y-79845000D01*
X185253177Y-79832687D01*
X185092758Y-79784024D01*
X184944924Y-79705005D01*
X184944922Y-79705004D01*
X184815341Y-79598659D01*
X184708996Y-79469078D01*
X184700886Y-79453906D01*
X184629976Y-79321242D01*
X184581313Y-79160823D01*
X184564883Y-78994000D01*
X184581313Y-78827177D01*
X184629976Y-78666758D01*
X184708995Y-78518924D01*
X184708996Y-78518922D01*
X184815341Y-78389341D01*
X184944922Y-78282996D01*
X184960094Y-78274886D01*
X185092758Y-78203976D01*
X185253177Y-78155313D01*
X185378196Y-78143000D01*
X185461804Y-78143000D01*
X185586823Y-78155313D01*
X185586823Y-78155313D01*
G37*
G36*
X137326823Y-78155313D02*
G01*
X137487242Y-78203976D01*
X137619906Y-78274886D01*
X137635078Y-78282996D01*
X137764659Y-78389341D01*
X137871004Y-78518922D01*
X137871005Y-78518924D01*
X137950024Y-78666758D01*
X137998687Y-78827177D01*
X138015117Y-78994000D01*
X137998687Y-79160823D01*
X137950024Y-79321242D01*
X137879114Y-79453906D01*
X137871004Y-79469078D01*
X137764659Y-79598659D01*
X137635078Y-79705004D01*
X137635076Y-79705005D01*
X137487242Y-79784024D01*
X137326823Y-79832687D01*
X137201804Y-79845000D01*
X137118196Y-79845000D01*
X136993177Y-79832687D01*
X136832758Y-79784024D01*
X136684924Y-79705005D01*
X136684922Y-79705004D01*
X136555341Y-79598659D01*
X136448996Y-79469078D01*
X136440886Y-79453906D01*
X136369976Y-79321242D01*
X136321313Y-79160823D01*
X136304883Y-78994000D01*
X136321313Y-78827177D01*
X136369976Y-78666758D01*
X136448995Y-78518924D01*
X136448996Y-78518922D01*
X136555341Y-78389341D01*
X136684922Y-78282996D01*
X136700094Y-78274886D01*
X136832758Y-78203976D01*
X136993177Y-78155313D01*
X137118196Y-78143000D01*
X137201804Y-78143000D01*
X137326823Y-78155313D01*
X137326823Y-78155313D01*
G37*
G36*
X144946823Y-78155313D02*
G01*
X145107242Y-78203976D01*
X145239906Y-78274886D01*
X145255078Y-78282996D01*
X145384659Y-78389341D01*
X145491004Y-78518922D01*
X145491005Y-78518924D01*
X145570024Y-78666758D01*
X145618687Y-78827177D01*
X145635117Y-78994000D01*
X145618687Y-79160823D01*
X145570024Y-79321242D01*
X145499114Y-79453906D01*
X145491004Y-79469078D01*
X145384659Y-79598659D01*
X145255078Y-79705004D01*
X145255076Y-79705005D01*
X145107242Y-79784024D01*
X144946823Y-79832687D01*
X144821804Y-79845000D01*
X144738196Y-79845000D01*
X144613177Y-79832687D01*
X144452758Y-79784024D01*
X144304924Y-79705005D01*
X144304922Y-79705004D01*
X144175341Y-79598659D01*
X144068996Y-79469078D01*
X144060886Y-79453906D01*
X143989976Y-79321242D01*
X143941313Y-79160823D01*
X143924883Y-78994000D01*
X143941313Y-78827177D01*
X143989976Y-78666758D01*
X144068995Y-78518924D01*
X144068996Y-78518922D01*
X144175341Y-78389341D01*
X144304922Y-78282996D01*
X144320094Y-78274886D01*
X144452758Y-78203976D01*
X144613177Y-78155313D01*
X144738196Y-78143000D01*
X144821804Y-78143000D01*
X144946823Y-78155313D01*
X144946823Y-78155313D01*
G37*
G36*
X185586823Y-75615313D02*
G01*
X185747242Y-75663976D01*
X185879906Y-75734886D01*
X185895078Y-75742996D01*
X186024659Y-75849341D01*
X186131004Y-75978922D01*
X186131005Y-75978924D01*
X186210024Y-76126758D01*
X186258687Y-76287177D01*
X186275117Y-76454000D01*
X186258687Y-76620823D01*
X186210024Y-76781242D01*
X186139114Y-76913906D01*
X186131004Y-76929078D01*
X186024659Y-77058659D01*
X185895078Y-77165004D01*
X185895076Y-77165005D01*
X185747242Y-77244024D01*
X185586823Y-77292687D01*
X185461804Y-77305000D01*
X185378196Y-77305000D01*
X185253177Y-77292687D01*
X185092758Y-77244024D01*
X184944924Y-77165005D01*
X184944922Y-77165004D01*
X184815341Y-77058659D01*
X184708996Y-76929078D01*
X184700886Y-76913906D01*
X184629976Y-76781242D01*
X184581313Y-76620823D01*
X184564883Y-76454000D01*
X184581313Y-76287177D01*
X184629976Y-76126758D01*
X184708995Y-75978924D01*
X184708996Y-75978922D01*
X184815341Y-75849341D01*
X184944922Y-75742996D01*
X184960094Y-75734886D01*
X185092758Y-75663976D01*
X185253177Y-75615313D01*
X185378196Y-75603000D01*
X185461804Y-75603000D01*
X185586823Y-75615313D01*
X185586823Y-75615313D01*
G37*
G36*
X177966823Y-75615313D02*
G01*
X178127242Y-75663976D01*
X178259906Y-75734886D01*
X178275078Y-75742996D01*
X178404659Y-75849341D01*
X178511004Y-75978922D01*
X178511005Y-75978924D01*
X178590024Y-76126758D01*
X178638687Y-76287177D01*
X178655117Y-76454000D01*
X178638687Y-76620823D01*
X178590024Y-76781242D01*
X178519114Y-76913906D01*
X178511004Y-76929078D01*
X178404659Y-77058659D01*
X178275078Y-77165004D01*
X178275076Y-77165005D01*
X178127242Y-77244024D01*
X177966823Y-77292687D01*
X177841804Y-77305000D01*
X177758196Y-77305000D01*
X177633177Y-77292687D01*
X177472758Y-77244024D01*
X177324924Y-77165005D01*
X177324922Y-77165004D01*
X177195341Y-77058659D01*
X177088996Y-76929078D01*
X177080886Y-76913906D01*
X177009976Y-76781242D01*
X176961313Y-76620823D01*
X176944883Y-76454000D01*
X176961313Y-76287177D01*
X177009976Y-76126758D01*
X177088995Y-75978924D01*
X177088996Y-75978922D01*
X177195341Y-75849341D01*
X177324922Y-75742996D01*
X177340094Y-75734886D01*
X177472758Y-75663976D01*
X177633177Y-75615313D01*
X177758196Y-75603000D01*
X177841804Y-75603000D01*
X177966823Y-75615313D01*
X177966823Y-75615313D01*
G37*
G36*
X144946823Y-75615313D02*
G01*
X145107242Y-75663976D01*
X145239906Y-75734886D01*
X145255078Y-75742996D01*
X145384659Y-75849341D01*
X145491004Y-75978922D01*
X145491005Y-75978924D01*
X145570024Y-76126758D01*
X145618687Y-76287177D01*
X145635117Y-76454000D01*
X145618687Y-76620823D01*
X145570024Y-76781242D01*
X145499114Y-76913906D01*
X145491004Y-76929078D01*
X145384659Y-77058659D01*
X145255078Y-77165004D01*
X145255076Y-77165005D01*
X145107242Y-77244024D01*
X144946823Y-77292687D01*
X144821804Y-77305000D01*
X144738196Y-77305000D01*
X144613177Y-77292687D01*
X144452758Y-77244024D01*
X144304924Y-77165005D01*
X144304922Y-77165004D01*
X144175341Y-77058659D01*
X144068996Y-76929078D01*
X144060886Y-76913906D01*
X143989976Y-76781242D01*
X143941313Y-76620823D01*
X143924883Y-76454000D01*
X143941313Y-76287177D01*
X143989976Y-76126758D01*
X144068995Y-75978924D01*
X144068996Y-75978922D01*
X144175341Y-75849341D01*
X144304922Y-75742996D01*
X144320094Y-75734886D01*
X144452758Y-75663976D01*
X144613177Y-75615313D01*
X144738196Y-75603000D01*
X144821804Y-75603000D01*
X144946823Y-75615313D01*
X144946823Y-75615313D01*
G37*
G36*
X137326823Y-75615313D02*
G01*
X137487242Y-75663976D01*
X137619906Y-75734886D01*
X137635078Y-75742996D01*
X137764659Y-75849341D01*
X137871004Y-75978922D01*
X137871005Y-75978924D01*
X137950024Y-76126758D01*
X137998687Y-76287177D01*
X138015117Y-76454000D01*
X137998687Y-76620823D01*
X137950024Y-76781242D01*
X137879114Y-76913906D01*
X137871004Y-76929078D01*
X137764659Y-77058659D01*
X137635078Y-77165004D01*
X137635076Y-77165005D01*
X137487242Y-77244024D01*
X137326823Y-77292687D01*
X137201804Y-77305000D01*
X137118196Y-77305000D01*
X136993177Y-77292687D01*
X136832758Y-77244024D01*
X136684924Y-77165005D01*
X136684922Y-77165004D01*
X136555341Y-77058659D01*
X136448996Y-76929078D01*
X136440886Y-76913906D01*
X136369976Y-76781242D01*
X136321313Y-76620823D01*
X136304883Y-76454000D01*
X136321313Y-76287177D01*
X136369976Y-76126758D01*
X136448995Y-75978924D01*
X136448996Y-75978922D01*
X136555341Y-75849341D01*
X136684922Y-75742996D01*
X136700094Y-75734886D01*
X136832758Y-75663976D01*
X136993177Y-75615313D01*
X137118196Y-75603000D01*
X137201804Y-75603000D01*
X137326823Y-75615313D01*
X137326823Y-75615313D01*
G37*
G36*
X185586823Y-73075313D02*
G01*
X185747242Y-73123976D01*
X185879906Y-73194886D01*
X185895078Y-73202996D01*
X186024659Y-73309341D01*
X186131004Y-73438922D01*
X186131005Y-73438924D01*
X186210024Y-73586758D01*
X186258687Y-73747177D01*
X186275117Y-73914000D01*
X186258687Y-74080823D01*
X186210024Y-74241242D01*
X186139114Y-74373906D01*
X186131004Y-74389078D01*
X186024659Y-74518659D01*
X185895078Y-74625004D01*
X185895076Y-74625005D01*
X185747242Y-74704024D01*
X185586823Y-74752687D01*
X185461804Y-74765000D01*
X185378196Y-74765000D01*
X185253177Y-74752687D01*
X185092758Y-74704024D01*
X184944924Y-74625005D01*
X184944922Y-74625004D01*
X184815341Y-74518659D01*
X184708996Y-74389078D01*
X184700886Y-74373906D01*
X184629976Y-74241242D01*
X184581313Y-74080823D01*
X184564883Y-73914000D01*
X184581313Y-73747177D01*
X184629976Y-73586758D01*
X184708995Y-73438924D01*
X184708996Y-73438922D01*
X184815341Y-73309341D01*
X184944922Y-73202996D01*
X184960094Y-73194886D01*
X185092758Y-73123976D01*
X185253177Y-73075313D01*
X185378196Y-73063000D01*
X185461804Y-73063000D01*
X185586823Y-73075313D01*
X185586823Y-73075313D01*
G37*
G36*
X177966823Y-73075313D02*
G01*
X178127242Y-73123976D01*
X178259906Y-73194886D01*
X178275078Y-73202996D01*
X178404659Y-73309341D01*
X178511004Y-73438922D01*
X178511005Y-73438924D01*
X178590024Y-73586758D01*
X178638687Y-73747177D01*
X178655117Y-73914000D01*
X178638687Y-74080823D01*
X178590024Y-74241242D01*
X178519114Y-74373906D01*
X178511004Y-74389078D01*
X178404659Y-74518659D01*
X178275078Y-74625004D01*
X178275076Y-74625005D01*
X178127242Y-74704024D01*
X177966823Y-74752687D01*
X177841804Y-74765000D01*
X177758196Y-74765000D01*
X177633177Y-74752687D01*
X177472758Y-74704024D01*
X177324924Y-74625005D01*
X177324922Y-74625004D01*
X177195341Y-74518659D01*
X177088996Y-74389078D01*
X177080886Y-74373906D01*
X177009976Y-74241242D01*
X176961313Y-74080823D01*
X176944883Y-73914000D01*
X176961313Y-73747177D01*
X177009976Y-73586758D01*
X177088995Y-73438924D01*
X177088996Y-73438922D01*
X177195341Y-73309341D01*
X177324922Y-73202996D01*
X177340094Y-73194886D01*
X177472758Y-73123976D01*
X177633177Y-73075313D01*
X177758196Y-73063000D01*
X177841804Y-73063000D01*
X177966823Y-73075313D01*
X177966823Y-73075313D01*
G37*
G36*
X137326823Y-73075313D02*
G01*
X137487242Y-73123976D01*
X137619906Y-73194886D01*
X137635078Y-73202996D01*
X137764659Y-73309341D01*
X137871004Y-73438922D01*
X137871005Y-73438924D01*
X137950024Y-73586758D01*
X137998687Y-73747177D01*
X138015117Y-73914000D01*
X137998687Y-74080823D01*
X137950024Y-74241242D01*
X137879114Y-74373906D01*
X137871004Y-74389078D01*
X137764659Y-74518659D01*
X137635078Y-74625004D01*
X137635076Y-74625005D01*
X137487242Y-74704024D01*
X137326823Y-74752687D01*
X137201804Y-74765000D01*
X137118196Y-74765000D01*
X136993177Y-74752687D01*
X136832758Y-74704024D01*
X136684924Y-74625005D01*
X136684922Y-74625004D01*
X136555341Y-74518659D01*
X136448996Y-74389078D01*
X136440886Y-74373906D01*
X136369976Y-74241242D01*
X136321313Y-74080823D01*
X136304883Y-73914000D01*
X136321313Y-73747177D01*
X136369976Y-73586758D01*
X136448995Y-73438924D01*
X136448996Y-73438922D01*
X136555341Y-73309341D01*
X136684922Y-73202996D01*
X136700094Y-73194886D01*
X136832758Y-73123976D01*
X136993177Y-73075313D01*
X137118196Y-73063000D01*
X137201804Y-73063000D01*
X137326823Y-73075313D01*
X137326823Y-73075313D01*
G37*
G36*
X144946823Y-73075313D02*
G01*
X145107242Y-73123976D01*
X145239906Y-73194886D01*
X145255078Y-73202996D01*
X145384659Y-73309341D01*
X145491004Y-73438922D01*
X145491005Y-73438924D01*
X145570024Y-73586758D01*
X145618687Y-73747177D01*
X145635117Y-73914000D01*
X145618687Y-74080823D01*
X145570024Y-74241242D01*
X145499114Y-74373906D01*
X145491004Y-74389078D01*
X145384659Y-74518659D01*
X145255078Y-74625004D01*
X145255076Y-74625005D01*
X145107242Y-74704024D01*
X144946823Y-74752687D01*
X144821804Y-74765000D01*
X144738196Y-74765000D01*
X144613177Y-74752687D01*
X144452758Y-74704024D01*
X144304924Y-74625005D01*
X144304922Y-74625004D01*
X144175341Y-74518659D01*
X144068996Y-74389078D01*
X144060886Y-74373906D01*
X143989976Y-74241242D01*
X143941313Y-74080823D01*
X143924883Y-73914000D01*
X143941313Y-73747177D01*
X143989976Y-73586758D01*
X144068995Y-73438924D01*
X144068996Y-73438922D01*
X144175341Y-73309341D01*
X144304922Y-73202996D01*
X144320094Y-73194886D01*
X144452758Y-73123976D01*
X144613177Y-73075313D01*
X144738196Y-73063000D01*
X144821804Y-73063000D01*
X144946823Y-73075313D01*
X144946823Y-73075313D01*
G37*
G36*
X137326823Y-70535313D02*
G01*
X137487242Y-70583976D01*
X137619906Y-70654886D01*
X137635078Y-70662996D01*
X137764659Y-70769341D01*
X137871004Y-70898922D01*
X137871005Y-70898924D01*
X137950024Y-71046758D01*
X137998687Y-71207177D01*
X138015117Y-71374000D01*
X137998687Y-71540823D01*
X137950024Y-71701242D01*
X137879114Y-71833906D01*
X137871004Y-71849078D01*
X137764659Y-71978659D01*
X137635078Y-72085004D01*
X137635076Y-72085005D01*
X137487242Y-72164024D01*
X137326823Y-72212687D01*
X137201804Y-72225000D01*
X137118196Y-72225000D01*
X136993177Y-72212687D01*
X136832758Y-72164024D01*
X136684924Y-72085005D01*
X136684922Y-72085004D01*
X136555341Y-71978659D01*
X136448996Y-71849078D01*
X136440886Y-71833906D01*
X136369976Y-71701242D01*
X136321313Y-71540823D01*
X136304883Y-71374000D01*
X136321313Y-71207177D01*
X136369976Y-71046758D01*
X136448995Y-70898924D01*
X136448996Y-70898922D01*
X136555341Y-70769341D01*
X136684922Y-70662996D01*
X136700094Y-70654886D01*
X136832758Y-70583976D01*
X136993177Y-70535313D01*
X137118196Y-70523000D01*
X137201804Y-70523000D01*
X137326823Y-70535313D01*
X137326823Y-70535313D01*
G37*
G36*
X144946823Y-70535313D02*
G01*
X145107242Y-70583976D01*
X145239906Y-70654886D01*
X145255078Y-70662996D01*
X145384659Y-70769341D01*
X145491004Y-70898922D01*
X145491005Y-70898924D01*
X145570024Y-71046758D01*
X145618687Y-71207177D01*
X145635117Y-71374000D01*
X145618687Y-71540823D01*
X145570024Y-71701242D01*
X145499114Y-71833906D01*
X145491004Y-71849078D01*
X145384659Y-71978659D01*
X145255078Y-72085004D01*
X145255076Y-72085005D01*
X145107242Y-72164024D01*
X144946823Y-72212687D01*
X144821804Y-72225000D01*
X144738196Y-72225000D01*
X144613177Y-72212687D01*
X144452758Y-72164024D01*
X144304924Y-72085005D01*
X144304922Y-72085004D01*
X144175341Y-71978659D01*
X144068996Y-71849078D01*
X144060886Y-71833906D01*
X143989976Y-71701242D01*
X143941313Y-71540823D01*
X143924883Y-71374000D01*
X143941313Y-71207177D01*
X143989976Y-71046758D01*
X144068995Y-70898924D01*
X144068996Y-70898922D01*
X144175341Y-70769341D01*
X144304922Y-70662996D01*
X144320094Y-70654886D01*
X144452758Y-70583976D01*
X144613177Y-70535313D01*
X144738196Y-70523000D01*
X144821804Y-70523000D01*
X144946823Y-70535313D01*
X144946823Y-70535313D01*
G37*
G36*
X185586823Y-70535313D02*
G01*
X185747242Y-70583976D01*
X185879906Y-70654886D01*
X185895078Y-70662996D01*
X186024659Y-70769341D01*
X186131004Y-70898922D01*
X186131005Y-70898924D01*
X186210024Y-71046758D01*
X186258687Y-71207177D01*
X186275117Y-71374000D01*
X186258687Y-71540823D01*
X186210024Y-71701242D01*
X186139114Y-71833906D01*
X186131004Y-71849078D01*
X186024659Y-71978659D01*
X185895078Y-72085004D01*
X185895076Y-72085005D01*
X185747242Y-72164024D01*
X185586823Y-72212687D01*
X185461804Y-72225000D01*
X185378196Y-72225000D01*
X185253177Y-72212687D01*
X185092758Y-72164024D01*
X184944924Y-72085005D01*
X184944922Y-72085004D01*
X184815341Y-71978659D01*
X184708996Y-71849078D01*
X184700886Y-71833906D01*
X184629976Y-71701242D01*
X184581313Y-71540823D01*
X184564883Y-71374000D01*
X184581313Y-71207177D01*
X184629976Y-71046758D01*
X184708995Y-70898924D01*
X184708996Y-70898922D01*
X184815341Y-70769341D01*
X184944922Y-70662996D01*
X184960094Y-70654886D01*
X185092758Y-70583976D01*
X185253177Y-70535313D01*
X185378196Y-70523000D01*
X185461804Y-70523000D01*
X185586823Y-70535313D01*
X185586823Y-70535313D01*
G37*
G36*
X177966823Y-70535313D02*
G01*
X178127242Y-70583976D01*
X178259906Y-70654886D01*
X178275078Y-70662996D01*
X178404659Y-70769341D01*
X178511004Y-70898922D01*
X178511005Y-70898924D01*
X178590024Y-71046758D01*
X178638687Y-71207177D01*
X178655117Y-71374000D01*
X178638687Y-71540823D01*
X178590024Y-71701242D01*
X178519114Y-71833906D01*
X178511004Y-71849078D01*
X178404659Y-71978659D01*
X178275078Y-72085004D01*
X178275076Y-72085005D01*
X178127242Y-72164024D01*
X177966823Y-72212687D01*
X177841804Y-72225000D01*
X177758196Y-72225000D01*
X177633177Y-72212687D01*
X177472758Y-72164024D01*
X177324924Y-72085005D01*
X177324922Y-72085004D01*
X177195341Y-71978659D01*
X177088996Y-71849078D01*
X177080886Y-71833906D01*
X177009976Y-71701242D01*
X176961313Y-71540823D01*
X176944883Y-71374000D01*
X176961313Y-71207177D01*
X177009976Y-71046758D01*
X177088995Y-70898924D01*
X177088996Y-70898922D01*
X177195341Y-70769341D01*
X177324922Y-70662996D01*
X177340094Y-70654886D01*
X177472758Y-70583976D01*
X177633177Y-70535313D01*
X177758196Y-70523000D01*
X177841804Y-70523000D01*
X177966823Y-70535313D01*
X177966823Y-70535313D01*
G37*
G36*
X177966823Y-67995313D02*
G01*
X178127242Y-68043976D01*
X178259906Y-68114886D01*
X178275078Y-68122996D01*
X178404659Y-68229341D01*
X178511004Y-68358922D01*
X178511005Y-68358924D01*
X178590024Y-68506758D01*
X178638687Y-68667177D01*
X178655117Y-68834000D01*
X178638687Y-69000823D01*
X178590024Y-69161242D01*
X178519114Y-69293906D01*
X178511004Y-69309078D01*
X178404659Y-69438659D01*
X178275078Y-69545004D01*
X178275076Y-69545005D01*
X178127242Y-69624024D01*
X177966823Y-69672687D01*
X177841804Y-69685000D01*
X177758196Y-69685000D01*
X177633177Y-69672687D01*
X177472758Y-69624024D01*
X177324924Y-69545005D01*
X177324922Y-69545004D01*
X177195341Y-69438659D01*
X177088996Y-69309078D01*
X177080886Y-69293906D01*
X177009976Y-69161242D01*
X176961313Y-69000823D01*
X176944883Y-68834000D01*
X176961313Y-68667177D01*
X177009976Y-68506758D01*
X177088995Y-68358924D01*
X177088996Y-68358922D01*
X177195341Y-68229341D01*
X177324922Y-68122996D01*
X177340094Y-68114886D01*
X177472758Y-68043976D01*
X177633177Y-67995313D01*
X177758196Y-67983000D01*
X177841804Y-67983000D01*
X177966823Y-67995313D01*
X177966823Y-67995313D01*
G37*
G36*
X185586823Y-67995313D02*
G01*
X185747242Y-68043976D01*
X185879906Y-68114886D01*
X185895078Y-68122996D01*
X186024659Y-68229341D01*
X186131004Y-68358922D01*
X186131005Y-68358924D01*
X186210024Y-68506758D01*
X186258687Y-68667177D01*
X186275117Y-68834000D01*
X186258687Y-69000823D01*
X186210024Y-69161242D01*
X186139114Y-69293906D01*
X186131004Y-69309078D01*
X186024659Y-69438659D01*
X185895078Y-69545004D01*
X185895076Y-69545005D01*
X185747242Y-69624024D01*
X185586823Y-69672687D01*
X185461804Y-69685000D01*
X185378196Y-69685000D01*
X185253177Y-69672687D01*
X185092758Y-69624024D01*
X184944924Y-69545005D01*
X184944922Y-69545004D01*
X184815341Y-69438659D01*
X184708996Y-69309078D01*
X184700886Y-69293906D01*
X184629976Y-69161242D01*
X184581313Y-69000823D01*
X184564883Y-68834000D01*
X184581313Y-68667177D01*
X184629976Y-68506758D01*
X184708995Y-68358924D01*
X184708996Y-68358922D01*
X184815341Y-68229341D01*
X184944922Y-68122996D01*
X184960094Y-68114886D01*
X185092758Y-68043976D01*
X185253177Y-67995313D01*
X185378196Y-67983000D01*
X185461804Y-67983000D01*
X185586823Y-67995313D01*
X185586823Y-67995313D01*
G37*
G36*
X144946823Y-67995313D02*
G01*
X145107242Y-68043976D01*
X145239906Y-68114886D01*
X145255078Y-68122996D01*
X145384659Y-68229341D01*
X145491004Y-68358922D01*
X145491005Y-68358924D01*
X145570024Y-68506758D01*
X145618687Y-68667177D01*
X145635117Y-68834000D01*
X145618687Y-69000823D01*
X145570024Y-69161242D01*
X145499114Y-69293906D01*
X145491004Y-69309078D01*
X145384659Y-69438659D01*
X145255078Y-69545004D01*
X145255076Y-69545005D01*
X145107242Y-69624024D01*
X144946823Y-69672687D01*
X144821804Y-69685000D01*
X144738196Y-69685000D01*
X144613177Y-69672687D01*
X144452758Y-69624024D01*
X144304924Y-69545005D01*
X144304922Y-69545004D01*
X144175341Y-69438659D01*
X144068996Y-69309078D01*
X144060886Y-69293906D01*
X143989976Y-69161242D01*
X143941313Y-69000823D01*
X143924883Y-68834000D01*
X143941313Y-68667177D01*
X143989976Y-68506758D01*
X144068995Y-68358924D01*
X144068996Y-68358922D01*
X144175341Y-68229341D01*
X144304922Y-68122996D01*
X144320094Y-68114886D01*
X144452758Y-68043976D01*
X144613177Y-67995313D01*
X144738196Y-67983000D01*
X144821804Y-67983000D01*
X144946823Y-67995313D01*
X144946823Y-67995313D01*
G37*
G36*
X137326823Y-67995313D02*
G01*
X137487242Y-68043976D01*
X137619906Y-68114886D01*
X137635078Y-68122996D01*
X137764659Y-68229341D01*
X137871004Y-68358922D01*
X137871005Y-68358924D01*
X137950024Y-68506758D01*
X137998687Y-68667177D01*
X138015117Y-68834000D01*
X137998687Y-69000823D01*
X137950024Y-69161242D01*
X137879114Y-69293906D01*
X137871004Y-69309078D01*
X137764659Y-69438659D01*
X137635078Y-69545004D01*
X137635076Y-69545005D01*
X137487242Y-69624024D01*
X137326823Y-69672687D01*
X137201804Y-69685000D01*
X137118196Y-69685000D01*
X136993177Y-69672687D01*
X136832758Y-69624024D01*
X136684924Y-69545005D01*
X136684922Y-69545004D01*
X136555341Y-69438659D01*
X136448996Y-69309078D01*
X136440886Y-69293906D01*
X136369976Y-69161242D01*
X136321313Y-69000823D01*
X136304883Y-68834000D01*
X136321313Y-68667177D01*
X136369976Y-68506758D01*
X136448995Y-68358924D01*
X136448996Y-68358922D01*
X136555341Y-68229341D01*
X136684922Y-68122996D01*
X136700094Y-68114886D01*
X136832758Y-68043976D01*
X136993177Y-67995313D01*
X137118196Y-67983000D01*
X137201804Y-67983000D01*
X137326823Y-67995313D01*
X137326823Y-67995313D01*
G37*
G36*
X178651000Y-67145000D02*
G01*
X176949000Y-67145000D01*
X176949000Y-65443000D01*
X178651000Y-65443000D01*
X178651000Y-67145000D01*
X178651000Y-67145000D01*
G37*
G36*
X185586823Y-65455313D02*
G01*
X185747242Y-65503976D01*
X185879906Y-65574886D01*
X185895078Y-65582996D01*
X186024659Y-65689341D01*
X186131004Y-65818922D01*
X186131005Y-65818924D01*
X186210024Y-65966758D01*
X186258687Y-66127177D01*
X186275117Y-66294000D01*
X186258687Y-66460823D01*
X186210024Y-66621242D01*
X186139114Y-66753906D01*
X186131004Y-66769078D01*
X186024659Y-66898659D01*
X185895078Y-67005004D01*
X185895076Y-67005005D01*
X185747242Y-67084024D01*
X185586823Y-67132687D01*
X185461804Y-67145000D01*
X185378196Y-67145000D01*
X185253177Y-67132687D01*
X185092758Y-67084024D01*
X184944924Y-67005005D01*
X184944922Y-67005004D01*
X184815341Y-66898659D01*
X184708996Y-66769078D01*
X184700886Y-66753906D01*
X184629976Y-66621242D01*
X184581313Y-66460823D01*
X184564883Y-66294000D01*
X184581313Y-66127177D01*
X184629976Y-65966758D01*
X184708995Y-65818924D01*
X184708996Y-65818922D01*
X184815341Y-65689341D01*
X184944922Y-65582996D01*
X184960094Y-65574886D01*
X185092758Y-65503976D01*
X185253177Y-65455313D01*
X185378196Y-65443000D01*
X185461804Y-65443000D01*
X185586823Y-65455313D01*
X185586823Y-65455313D01*
G37*
G36*
X144946823Y-65455313D02*
G01*
X145107242Y-65503976D01*
X145239906Y-65574886D01*
X145255078Y-65582996D01*
X145384659Y-65689341D01*
X145491004Y-65818922D01*
X145491005Y-65818924D01*
X145570024Y-65966758D01*
X145618687Y-66127177D01*
X145635117Y-66294000D01*
X145618687Y-66460823D01*
X145570024Y-66621242D01*
X145499114Y-66753906D01*
X145491004Y-66769078D01*
X145384659Y-66898659D01*
X145255078Y-67005004D01*
X145255076Y-67005005D01*
X145107242Y-67084024D01*
X144946823Y-67132687D01*
X144821804Y-67145000D01*
X144738196Y-67145000D01*
X144613177Y-67132687D01*
X144452758Y-67084024D01*
X144304924Y-67005005D01*
X144304922Y-67005004D01*
X144175341Y-66898659D01*
X144068996Y-66769078D01*
X144060886Y-66753906D01*
X143989976Y-66621242D01*
X143941313Y-66460823D01*
X143924883Y-66294000D01*
X143941313Y-66127177D01*
X143989976Y-65966758D01*
X144068995Y-65818924D01*
X144068996Y-65818922D01*
X144175341Y-65689341D01*
X144304922Y-65582996D01*
X144320094Y-65574886D01*
X144452758Y-65503976D01*
X144613177Y-65455313D01*
X144738196Y-65443000D01*
X144821804Y-65443000D01*
X144946823Y-65455313D01*
X144946823Y-65455313D01*
G37*
G36*
X138011000Y-67145000D02*
G01*
X136309000Y-67145000D01*
X136309000Y-65443000D01*
X138011000Y-65443000D01*
X138011000Y-67145000D01*
X138011000Y-67145000D01*
G37*
G36*
X153301000Y-64655000D02*
G01*
X151499000Y-64655000D01*
X151499000Y-62853000D01*
X153301000Y-62853000D01*
X153301000Y-64655000D01*
X153301000Y-64655000D01*
G37*
G36*
X170290442Y-62859518D02*
G01*
X170356627Y-62866037D01*
X170526466Y-62917557D01*
X170682991Y-63001222D01*
X170718729Y-63030552D01*
X170820186Y-63113814D01*
X170903448Y-63215271D01*
X170932778Y-63251009D01*
X171016443Y-63407534D01*
X171067963Y-63577373D01*
X171085359Y-63754000D01*
X171067963Y-63930627D01*
X171016443Y-64100466D01*
X170932778Y-64256991D01*
X170903448Y-64292729D01*
X170820186Y-64394186D01*
X170718729Y-64477448D01*
X170682991Y-64506778D01*
X170526466Y-64590443D01*
X170356627Y-64641963D01*
X170290442Y-64648482D01*
X170224260Y-64655000D01*
X170135740Y-64655000D01*
X170069558Y-64648482D01*
X170003373Y-64641963D01*
X169833534Y-64590443D01*
X169677009Y-64506778D01*
X169641271Y-64477448D01*
X169539814Y-64394186D01*
X169456552Y-64292729D01*
X169427222Y-64256991D01*
X169343557Y-64100466D01*
X169292037Y-63930627D01*
X169274641Y-63754000D01*
X169292037Y-63577373D01*
X169343557Y-63407534D01*
X169427222Y-63251009D01*
X169456552Y-63215271D01*
X169539814Y-63113814D01*
X169641271Y-63030552D01*
X169677009Y-63001222D01*
X169833534Y-62917557D01*
X170003373Y-62866037D01*
X170069558Y-62859518D01*
X170135740Y-62853000D01*
X170224260Y-62853000D01*
X170290442Y-62859518D01*
X170290442Y-62859518D01*
G37*
G36*
X167750442Y-62859518D02*
G01*
X167816627Y-62866037D01*
X167986466Y-62917557D01*
X168142991Y-63001222D01*
X168178729Y-63030552D01*
X168280186Y-63113814D01*
X168363448Y-63215271D01*
X168392778Y-63251009D01*
X168476443Y-63407534D01*
X168527963Y-63577373D01*
X168545359Y-63754000D01*
X168527963Y-63930627D01*
X168476443Y-64100466D01*
X168392778Y-64256991D01*
X168363448Y-64292729D01*
X168280186Y-64394186D01*
X168178729Y-64477448D01*
X168142991Y-64506778D01*
X167986466Y-64590443D01*
X167816627Y-64641963D01*
X167750442Y-64648482D01*
X167684260Y-64655000D01*
X167595740Y-64655000D01*
X167529558Y-64648482D01*
X167463373Y-64641963D01*
X167293534Y-64590443D01*
X167137009Y-64506778D01*
X167101271Y-64477448D01*
X166999814Y-64394186D01*
X166916552Y-64292729D01*
X166887222Y-64256991D01*
X166803557Y-64100466D01*
X166752037Y-63930627D01*
X166734641Y-63754000D01*
X166752037Y-63577373D01*
X166803557Y-63407534D01*
X166887222Y-63251009D01*
X166916552Y-63215271D01*
X166999814Y-63113814D01*
X167101271Y-63030552D01*
X167137009Y-63001222D01*
X167293534Y-62917557D01*
X167463373Y-62866037D01*
X167529558Y-62859518D01*
X167595740Y-62853000D01*
X167684260Y-62853000D01*
X167750442Y-62859518D01*
X167750442Y-62859518D01*
G37*
G36*
X155050442Y-62859518D02*
G01*
X155116627Y-62866037D01*
X155286466Y-62917557D01*
X155442991Y-63001222D01*
X155478729Y-63030552D01*
X155580186Y-63113814D01*
X155663448Y-63215271D01*
X155692778Y-63251009D01*
X155776443Y-63407534D01*
X155827963Y-63577373D01*
X155845359Y-63754000D01*
X155827963Y-63930627D01*
X155776443Y-64100466D01*
X155692778Y-64256991D01*
X155663448Y-64292729D01*
X155580186Y-64394186D01*
X155478729Y-64477448D01*
X155442991Y-64506778D01*
X155286466Y-64590443D01*
X155116627Y-64641963D01*
X155050442Y-64648482D01*
X154984260Y-64655000D01*
X154895740Y-64655000D01*
X154829558Y-64648482D01*
X154763373Y-64641963D01*
X154593534Y-64590443D01*
X154437009Y-64506778D01*
X154401271Y-64477448D01*
X154299814Y-64394186D01*
X154216552Y-64292729D01*
X154187222Y-64256991D01*
X154103557Y-64100466D01*
X154052037Y-63930627D01*
X154034641Y-63754000D01*
X154052037Y-63577373D01*
X154103557Y-63407534D01*
X154187222Y-63251009D01*
X154216552Y-63215271D01*
X154299814Y-63113814D01*
X154401271Y-63030552D01*
X154437009Y-63001222D01*
X154593534Y-62917557D01*
X154763373Y-62866037D01*
X154829558Y-62859518D01*
X154895740Y-62853000D01*
X154984260Y-62853000D01*
X155050442Y-62859518D01*
X155050442Y-62859518D01*
G37*
G36*
X165210442Y-62859518D02*
G01*
X165276627Y-62866037D01*
X165446466Y-62917557D01*
X165602991Y-63001222D01*
X165638729Y-63030552D01*
X165740186Y-63113814D01*
X165823448Y-63215271D01*
X165852778Y-63251009D01*
X165936443Y-63407534D01*
X165987963Y-63577373D01*
X166005359Y-63754000D01*
X165987963Y-63930627D01*
X165936443Y-64100466D01*
X165852778Y-64256991D01*
X165823448Y-64292729D01*
X165740186Y-64394186D01*
X165638729Y-64477448D01*
X165602991Y-64506778D01*
X165446466Y-64590443D01*
X165276627Y-64641963D01*
X165210442Y-64648482D01*
X165144260Y-64655000D01*
X165055740Y-64655000D01*
X164989558Y-64648482D01*
X164923373Y-64641963D01*
X164753534Y-64590443D01*
X164597009Y-64506778D01*
X164561271Y-64477448D01*
X164459814Y-64394186D01*
X164376552Y-64292729D01*
X164347222Y-64256991D01*
X164263557Y-64100466D01*
X164212037Y-63930627D01*
X164194641Y-63754000D01*
X164212037Y-63577373D01*
X164263557Y-63407534D01*
X164347222Y-63251009D01*
X164376552Y-63215271D01*
X164459814Y-63113814D01*
X164561271Y-63030552D01*
X164597009Y-63001222D01*
X164753534Y-62917557D01*
X164923373Y-62866037D01*
X164989558Y-62859518D01*
X165055740Y-62853000D01*
X165144260Y-62853000D01*
X165210442Y-62859518D01*
X165210442Y-62859518D01*
G37*
G36*
X162670442Y-62859518D02*
G01*
X162736627Y-62866037D01*
X162906466Y-62917557D01*
X163062991Y-63001222D01*
X163098729Y-63030552D01*
X163200186Y-63113814D01*
X163283448Y-63215271D01*
X163312778Y-63251009D01*
X163396443Y-63407534D01*
X163447963Y-63577373D01*
X163465359Y-63754000D01*
X163447963Y-63930627D01*
X163396443Y-64100466D01*
X163312778Y-64256991D01*
X163283448Y-64292729D01*
X163200186Y-64394186D01*
X163098729Y-64477448D01*
X163062991Y-64506778D01*
X162906466Y-64590443D01*
X162736627Y-64641963D01*
X162670442Y-64648482D01*
X162604260Y-64655000D01*
X162515740Y-64655000D01*
X162449558Y-64648482D01*
X162383373Y-64641963D01*
X162213534Y-64590443D01*
X162057009Y-64506778D01*
X162021271Y-64477448D01*
X161919814Y-64394186D01*
X161836552Y-64292729D01*
X161807222Y-64256991D01*
X161723557Y-64100466D01*
X161672037Y-63930627D01*
X161654641Y-63754000D01*
X161672037Y-63577373D01*
X161723557Y-63407534D01*
X161807222Y-63251009D01*
X161836552Y-63215271D01*
X161919814Y-63113814D01*
X162021271Y-63030552D01*
X162057009Y-63001222D01*
X162213534Y-62917557D01*
X162383373Y-62866037D01*
X162449558Y-62859518D01*
X162515740Y-62853000D01*
X162604260Y-62853000D01*
X162670442Y-62859518D01*
X162670442Y-62859518D01*
G37*
G36*
X157590442Y-62859518D02*
G01*
X157656627Y-62866037D01*
X157826466Y-62917557D01*
X157982991Y-63001222D01*
X158018729Y-63030552D01*
X158120186Y-63113814D01*
X158203448Y-63215271D01*
X158232778Y-63251009D01*
X158316443Y-63407534D01*
X158367963Y-63577373D01*
X158385359Y-63754000D01*
X158367963Y-63930627D01*
X158316443Y-64100466D01*
X158232778Y-64256991D01*
X158203448Y-64292729D01*
X158120186Y-64394186D01*
X158018729Y-64477448D01*
X157982991Y-64506778D01*
X157826466Y-64590443D01*
X157656627Y-64641963D01*
X157590442Y-64648482D01*
X157524260Y-64655000D01*
X157435740Y-64655000D01*
X157369558Y-64648482D01*
X157303373Y-64641963D01*
X157133534Y-64590443D01*
X156977009Y-64506778D01*
X156941271Y-64477448D01*
X156839814Y-64394186D01*
X156756552Y-64292729D01*
X156727222Y-64256991D01*
X156643557Y-64100466D01*
X156592037Y-63930627D01*
X156574641Y-63754000D01*
X156592037Y-63577373D01*
X156643557Y-63407534D01*
X156727222Y-63251009D01*
X156756552Y-63215271D01*
X156839814Y-63113814D01*
X156941271Y-63030552D01*
X156977009Y-63001222D01*
X157133534Y-62917557D01*
X157303373Y-62866037D01*
X157369558Y-62859518D01*
X157435740Y-62853000D01*
X157524260Y-62853000D01*
X157590442Y-62859518D01*
X157590442Y-62859518D01*
G37*
G36*
X160130442Y-62859518D02*
G01*
X160196627Y-62866037D01*
X160366466Y-62917557D01*
X160522991Y-63001222D01*
X160558729Y-63030552D01*
X160660186Y-63113814D01*
X160743448Y-63215271D01*
X160772778Y-63251009D01*
X160856443Y-63407534D01*
X160907963Y-63577373D01*
X160925359Y-63754000D01*
X160907963Y-63930627D01*
X160856443Y-64100466D01*
X160772778Y-64256991D01*
X160743448Y-64292729D01*
X160660186Y-64394186D01*
X160558729Y-64477448D01*
X160522991Y-64506778D01*
X160366466Y-64590443D01*
X160196627Y-64641963D01*
X160130442Y-64648482D01*
X160064260Y-64655000D01*
X159975740Y-64655000D01*
X159909558Y-64648482D01*
X159843373Y-64641963D01*
X159673534Y-64590443D01*
X159517009Y-64506778D01*
X159481271Y-64477448D01*
X159379814Y-64394186D01*
X159296552Y-64292729D01*
X159267222Y-64256991D01*
X159183557Y-64100466D01*
X159132037Y-63930627D01*
X159114641Y-63754000D01*
X159132037Y-63577373D01*
X159183557Y-63407534D01*
X159267222Y-63251009D01*
X159296552Y-63215271D01*
X159379814Y-63113814D01*
X159481271Y-63030552D01*
X159517009Y-63001222D01*
X159673534Y-62917557D01*
X159843373Y-62866037D01*
X159909558Y-62859518D01*
X159975740Y-62853000D01*
X160064260Y-62853000D01*
X160130442Y-62859518D01*
X160130442Y-62859518D01*
G37*
G36*
X167750442Y-60319518D02*
G01*
X167816627Y-60326037D01*
X167986466Y-60377557D01*
X168142991Y-60461222D01*
X168178729Y-60490552D01*
X168280186Y-60573814D01*
X168363448Y-60675271D01*
X168392778Y-60711009D01*
X168476443Y-60867534D01*
X168527963Y-61037373D01*
X168545359Y-61214000D01*
X168527963Y-61390627D01*
X168476443Y-61560466D01*
X168392778Y-61716991D01*
X168363448Y-61752729D01*
X168280186Y-61854186D01*
X168178729Y-61937448D01*
X168142991Y-61966778D01*
X167986466Y-62050443D01*
X167816627Y-62101963D01*
X167750442Y-62108482D01*
X167684260Y-62115000D01*
X167595740Y-62115000D01*
X167529558Y-62108482D01*
X167463373Y-62101963D01*
X167293534Y-62050443D01*
X167137009Y-61966778D01*
X167101271Y-61937448D01*
X166999814Y-61854186D01*
X166916552Y-61752729D01*
X166887222Y-61716991D01*
X166803557Y-61560466D01*
X166752037Y-61390627D01*
X166734641Y-61214000D01*
X166752037Y-61037373D01*
X166803557Y-60867534D01*
X166887222Y-60711009D01*
X166916552Y-60675271D01*
X166999814Y-60573814D01*
X167101271Y-60490552D01*
X167137009Y-60461222D01*
X167293534Y-60377557D01*
X167463373Y-60326037D01*
X167529558Y-60319518D01*
X167595740Y-60313000D01*
X167684260Y-60313000D01*
X167750442Y-60319518D01*
X167750442Y-60319518D01*
G37*
G36*
X155050442Y-60319518D02*
G01*
X155116627Y-60326037D01*
X155286466Y-60377557D01*
X155442991Y-60461222D01*
X155478729Y-60490552D01*
X155580186Y-60573814D01*
X155663448Y-60675271D01*
X155692778Y-60711009D01*
X155776443Y-60867534D01*
X155827963Y-61037373D01*
X155845359Y-61214000D01*
X155827963Y-61390627D01*
X155776443Y-61560466D01*
X155692778Y-61716991D01*
X155663448Y-61752729D01*
X155580186Y-61854186D01*
X155478729Y-61937448D01*
X155442991Y-61966778D01*
X155286466Y-62050443D01*
X155116627Y-62101963D01*
X155050442Y-62108482D01*
X154984260Y-62115000D01*
X154895740Y-62115000D01*
X154829558Y-62108482D01*
X154763373Y-62101963D01*
X154593534Y-62050443D01*
X154437009Y-61966778D01*
X154401271Y-61937448D01*
X154299814Y-61854186D01*
X154216552Y-61752729D01*
X154187222Y-61716991D01*
X154103557Y-61560466D01*
X154052037Y-61390627D01*
X154034641Y-61214000D01*
X154052037Y-61037373D01*
X154103557Y-60867534D01*
X154187222Y-60711009D01*
X154216552Y-60675271D01*
X154299814Y-60573814D01*
X154401271Y-60490552D01*
X154437009Y-60461222D01*
X154593534Y-60377557D01*
X154763373Y-60326037D01*
X154829558Y-60319518D01*
X154895740Y-60313000D01*
X154984260Y-60313000D01*
X155050442Y-60319518D01*
X155050442Y-60319518D01*
G37*
G36*
X152510442Y-60319518D02*
G01*
X152576627Y-60326037D01*
X152746466Y-60377557D01*
X152902991Y-60461222D01*
X152938729Y-60490552D01*
X153040186Y-60573814D01*
X153123448Y-60675271D01*
X153152778Y-60711009D01*
X153236443Y-60867534D01*
X153287963Y-61037373D01*
X153305359Y-61214000D01*
X153287963Y-61390627D01*
X153236443Y-61560466D01*
X153152778Y-61716991D01*
X153123448Y-61752729D01*
X153040186Y-61854186D01*
X152938729Y-61937448D01*
X152902991Y-61966778D01*
X152746466Y-62050443D01*
X152576627Y-62101963D01*
X152510442Y-62108482D01*
X152444260Y-62115000D01*
X152355740Y-62115000D01*
X152289558Y-62108482D01*
X152223373Y-62101963D01*
X152053534Y-62050443D01*
X151897009Y-61966778D01*
X151861271Y-61937448D01*
X151759814Y-61854186D01*
X151676552Y-61752729D01*
X151647222Y-61716991D01*
X151563557Y-61560466D01*
X151512037Y-61390627D01*
X151494641Y-61214000D01*
X151512037Y-61037373D01*
X151563557Y-60867534D01*
X151647222Y-60711009D01*
X151676552Y-60675271D01*
X151759814Y-60573814D01*
X151861271Y-60490552D01*
X151897009Y-60461222D01*
X152053534Y-60377557D01*
X152223373Y-60326037D01*
X152289558Y-60319518D01*
X152355740Y-60313000D01*
X152444260Y-60313000D01*
X152510442Y-60319518D01*
X152510442Y-60319518D01*
G37*
G36*
X170290442Y-60319518D02*
G01*
X170356627Y-60326037D01*
X170526466Y-60377557D01*
X170682991Y-60461222D01*
X170718729Y-60490552D01*
X170820186Y-60573814D01*
X170903448Y-60675271D01*
X170932778Y-60711009D01*
X171016443Y-60867534D01*
X171067963Y-61037373D01*
X171085359Y-61214000D01*
X171067963Y-61390627D01*
X171016443Y-61560466D01*
X170932778Y-61716991D01*
X170903448Y-61752729D01*
X170820186Y-61854186D01*
X170718729Y-61937448D01*
X170682991Y-61966778D01*
X170526466Y-62050443D01*
X170356627Y-62101963D01*
X170290442Y-62108482D01*
X170224260Y-62115000D01*
X170135740Y-62115000D01*
X170069558Y-62108482D01*
X170003373Y-62101963D01*
X169833534Y-62050443D01*
X169677009Y-61966778D01*
X169641271Y-61937448D01*
X169539814Y-61854186D01*
X169456552Y-61752729D01*
X169427222Y-61716991D01*
X169343557Y-61560466D01*
X169292037Y-61390627D01*
X169274641Y-61214000D01*
X169292037Y-61037373D01*
X169343557Y-60867534D01*
X169427222Y-60711009D01*
X169456552Y-60675271D01*
X169539814Y-60573814D01*
X169641271Y-60490552D01*
X169677009Y-60461222D01*
X169833534Y-60377557D01*
X170003373Y-60326037D01*
X170069558Y-60319518D01*
X170135740Y-60313000D01*
X170224260Y-60313000D01*
X170290442Y-60319518D01*
X170290442Y-60319518D01*
G37*
G36*
X157590442Y-60319518D02*
G01*
X157656627Y-60326037D01*
X157826466Y-60377557D01*
X157982991Y-60461222D01*
X158018729Y-60490552D01*
X158120186Y-60573814D01*
X158203448Y-60675271D01*
X158232778Y-60711009D01*
X158316443Y-60867534D01*
X158367963Y-61037373D01*
X158385359Y-61214000D01*
X158367963Y-61390627D01*
X158316443Y-61560466D01*
X158232778Y-61716991D01*
X158203448Y-61752729D01*
X158120186Y-61854186D01*
X158018729Y-61937448D01*
X157982991Y-61966778D01*
X157826466Y-62050443D01*
X157656627Y-62101963D01*
X157590442Y-62108482D01*
X157524260Y-62115000D01*
X157435740Y-62115000D01*
X157369558Y-62108482D01*
X157303373Y-62101963D01*
X157133534Y-62050443D01*
X156977009Y-61966778D01*
X156941271Y-61937448D01*
X156839814Y-61854186D01*
X156756552Y-61752729D01*
X156727222Y-61716991D01*
X156643557Y-61560466D01*
X156592037Y-61390627D01*
X156574641Y-61214000D01*
X156592037Y-61037373D01*
X156643557Y-60867534D01*
X156727222Y-60711009D01*
X156756552Y-60675271D01*
X156839814Y-60573814D01*
X156941271Y-60490552D01*
X156977009Y-60461222D01*
X157133534Y-60377557D01*
X157303373Y-60326037D01*
X157369558Y-60319518D01*
X157435740Y-60313000D01*
X157524260Y-60313000D01*
X157590442Y-60319518D01*
X157590442Y-60319518D01*
G37*
G36*
X165210442Y-60319518D02*
G01*
X165276627Y-60326037D01*
X165446466Y-60377557D01*
X165602991Y-60461222D01*
X165638729Y-60490552D01*
X165740186Y-60573814D01*
X165823448Y-60675271D01*
X165852778Y-60711009D01*
X165936443Y-60867534D01*
X165987963Y-61037373D01*
X166005359Y-61214000D01*
X165987963Y-61390627D01*
X165936443Y-61560466D01*
X165852778Y-61716991D01*
X165823448Y-61752729D01*
X165740186Y-61854186D01*
X165638729Y-61937448D01*
X165602991Y-61966778D01*
X165446466Y-62050443D01*
X165276627Y-62101963D01*
X165210442Y-62108482D01*
X165144260Y-62115000D01*
X165055740Y-62115000D01*
X164989558Y-62108482D01*
X164923373Y-62101963D01*
X164753534Y-62050443D01*
X164597009Y-61966778D01*
X164561271Y-61937448D01*
X164459814Y-61854186D01*
X164376552Y-61752729D01*
X164347222Y-61716991D01*
X164263557Y-61560466D01*
X164212037Y-61390627D01*
X164194641Y-61214000D01*
X164212037Y-61037373D01*
X164263557Y-60867534D01*
X164347222Y-60711009D01*
X164376552Y-60675271D01*
X164459814Y-60573814D01*
X164561271Y-60490552D01*
X164597009Y-60461222D01*
X164753534Y-60377557D01*
X164923373Y-60326037D01*
X164989558Y-60319518D01*
X165055740Y-60313000D01*
X165144260Y-60313000D01*
X165210442Y-60319518D01*
X165210442Y-60319518D01*
G37*
G36*
X162670442Y-60319518D02*
G01*
X162736627Y-60326037D01*
X162906466Y-60377557D01*
X163062991Y-60461222D01*
X163098729Y-60490552D01*
X163200186Y-60573814D01*
X163283448Y-60675271D01*
X163312778Y-60711009D01*
X163396443Y-60867534D01*
X163447963Y-61037373D01*
X163465359Y-61214000D01*
X163447963Y-61390627D01*
X163396443Y-61560466D01*
X163312778Y-61716991D01*
X163283448Y-61752729D01*
X163200186Y-61854186D01*
X163098729Y-61937448D01*
X163062991Y-61966778D01*
X162906466Y-62050443D01*
X162736627Y-62101963D01*
X162670442Y-62108482D01*
X162604260Y-62115000D01*
X162515740Y-62115000D01*
X162449558Y-62108482D01*
X162383373Y-62101963D01*
X162213534Y-62050443D01*
X162057009Y-61966778D01*
X162021271Y-61937448D01*
X161919814Y-61854186D01*
X161836552Y-61752729D01*
X161807222Y-61716991D01*
X161723557Y-61560466D01*
X161672037Y-61390627D01*
X161654641Y-61214000D01*
X161672037Y-61037373D01*
X161723557Y-60867534D01*
X161807222Y-60711009D01*
X161836552Y-60675271D01*
X161919814Y-60573814D01*
X162021271Y-60490552D01*
X162057009Y-60461222D01*
X162213534Y-60377557D01*
X162383373Y-60326037D01*
X162449558Y-60319518D01*
X162515740Y-60313000D01*
X162604260Y-60313000D01*
X162670442Y-60319518D01*
X162670442Y-60319518D01*
G37*
G36*
X160130442Y-60319518D02*
G01*
X160196627Y-60326037D01*
X160366466Y-60377557D01*
X160522991Y-60461222D01*
X160558729Y-60490552D01*
X160660186Y-60573814D01*
X160743448Y-60675271D01*
X160772778Y-60711009D01*
X160856443Y-60867534D01*
X160907963Y-61037373D01*
X160925359Y-61214000D01*
X160907963Y-61390627D01*
X160856443Y-61560466D01*
X160772778Y-61716991D01*
X160743448Y-61752729D01*
X160660186Y-61854186D01*
X160558729Y-61937448D01*
X160522991Y-61966778D01*
X160366466Y-62050443D01*
X160196627Y-62101963D01*
X160130442Y-62108482D01*
X160064260Y-62115000D01*
X159975740Y-62115000D01*
X159909558Y-62108482D01*
X159843373Y-62101963D01*
X159673534Y-62050443D01*
X159517009Y-61966778D01*
X159481271Y-61937448D01*
X159379814Y-61854186D01*
X159296552Y-61752729D01*
X159267222Y-61716991D01*
X159183557Y-61560466D01*
X159132037Y-61390627D01*
X159114641Y-61214000D01*
X159132037Y-61037373D01*
X159183557Y-60867534D01*
X159267222Y-60711009D01*
X159296552Y-60675271D01*
X159379814Y-60573814D01*
X159481271Y-60490552D01*
X159517009Y-60461222D01*
X159673534Y-60377557D01*
X159843373Y-60326037D01*
X159909558Y-60319518D01*
X159975740Y-60313000D01*
X160064260Y-60313000D01*
X160130442Y-60319518D01*
X160130442Y-60319518D01*
G37*
G36*
X137326823Y-55295313D02*
G01*
X137487242Y-55343976D01*
X137619906Y-55414886D01*
X137635078Y-55422996D01*
X137764659Y-55529341D01*
X137871004Y-55658922D01*
X137871005Y-55658924D01*
X137950024Y-55806758D01*
X137998687Y-55967177D01*
X138015117Y-56134000D01*
X137998687Y-56300823D01*
X137950024Y-56461242D01*
X137879114Y-56593906D01*
X137871004Y-56609078D01*
X137764659Y-56738659D01*
X137635078Y-56845004D01*
X137635076Y-56845005D01*
X137487242Y-56924024D01*
X137326823Y-56972687D01*
X137201804Y-56985000D01*
X137118196Y-56985000D01*
X136993177Y-56972687D01*
X136832758Y-56924024D01*
X136684924Y-56845005D01*
X136684922Y-56845004D01*
X136555341Y-56738659D01*
X136448996Y-56609078D01*
X136440886Y-56593906D01*
X136369976Y-56461242D01*
X136321313Y-56300823D01*
X136304883Y-56134000D01*
X136321313Y-55967177D01*
X136369976Y-55806758D01*
X136448995Y-55658924D01*
X136448996Y-55658922D01*
X136555341Y-55529341D01*
X136684922Y-55422996D01*
X136700094Y-55414886D01*
X136832758Y-55343976D01*
X136993177Y-55295313D01*
X137118196Y-55283000D01*
X137201804Y-55283000D01*
X137326823Y-55295313D01*
X137326823Y-55295313D01*
G37*
G36*
X177966823Y-55295313D02*
G01*
X178127242Y-55343976D01*
X178259906Y-55414886D01*
X178275078Y-55422996D01*
X178404659Y-55529341D01*
X178511004Y-55658922D01*
X178511005Y-55658924D01*
X178590024Y-55806758D01*
X178638687Y-55967177D01*
X178655117Y-56134000D01*
X178638687Y-56300823D01*
X178590024Y-56461242D01*
X178519114Y-56593906D01*
X178511004Y-56609078D01*
X178404659Y-56738659D01*
X178275078Y-56845004D01*
X178275076Y-56845005D01*
X178127242Y-56924024D01*
X177966823Y-56972687D01*
X177841804Y-56985000D01*
X177758196Y-56985000D01*
X177633177Y-56972687D01*
X177472758Y-56924024D01*
X177324924Y-56845005D01*
X177324922Y-56845004D01*
X177195341Y-56738659D01*
X177088996Y-56609078D01*
X177080886Y-56593906D01*
X177009976Y-56461242D01*
X176961313Y-56300823D01*
X176944883Y-56134000D01*
X176961313Y-55967177D01*
X177009976Y-55806758D01*
X177088995Y-55658924D01*
X177088996Y-55658922D01*
X177195341Y-55529341D01*
X177324922Y-55422996D01*
X177340094Y-55414886D01*
X177472758Y-55343976D01*
X177633177Y-55295313D01*
X177758196Y-55283000D01*
X177841804Y-55283000D01*
X177966823Y-55295313D01*
X177966823Y-55295313D01*
G37*
G36*
X144946823Y-55295313D02*
G01*
X145107242Y-55343976D01*
X145239906Y-55414886D01*
X145255078Y-55422996D01*
X145384659Y-55529341D01*
X145491004Y-55658922D01*
X145491005Y-55658924D01*
X145570024Y-55806758D01*
X145618687Y-55967177D01*
X145635117Y-56134000D01*
X145618687Y-56300823D01*
X145570024Y-56461242D01*
X145499114Y-56593906D01*
X145491004Y-56609078D01*
X145384659Y-56738659D01*
X145255078Y-56845004D01*
X145255076Y-56845005D01*
X145107242Y-56924024D01*
X144946823Y-56972687D01*
X144821804Y-56985000D01*
X144738196Y-56985000D01*
X144613177Y-56972687D01*
X144452758Y-56924024D01*
X144304924Y-56845005D01*
X144304922Y-56845004D01*
X144175341Y-56738659D01*
X144068996Y-56609078D01*
X144060886Y-56593906D01*
X143989976Y-56461242D01*
X143941313Y-56300823D01*
X143924883Y-56134000D01*
X143941313Y-55967177D01*
X143989976Y-55806758D01*
X144068995Y-55658924D01*
X144068996Y-55658922D01*
X144175341Y-55529341D01*
X144304922Y-55422996D01*
X144320094Y-55414886D01*
X144452758Y-55343976D01*
X144613177Y-55295313D01*
X144738196Y-55283000D01*
X144821804Y-55283000D01*
X144946823Y-55295313D01*
X144946823Y-55295313D01*
G37*
G36*
X185586823Y-55295313D02*
G01*
X185747242Y-55343976D01*
X185879906Y-55414886D01*
X185895078Y-55422996D01*
X186024659Y-55529341D01*
X186131004Y-55658922D01*
X186131005Y-55658924D01*
X186210024Y-55806758D01*
X186258687Y-55967177D01*
X186275117Y-56134000D01*
X186258687Y-56300823D01*
X186210024Y-56461242D01*
X186139114Y-56593906D01*
X186131004Y-56609078D01*
X186024659Y-56738659D01*
X185895078Y-56845004D01*
X185895076Y-56845005D01*
X185747242Y-56924024D01*
X185586823Y-56972687D01*
X185461804Y-56985000D01*
X185378196Y-56985000D01*
X185253177Y-56972687D01*
X185092758Y-56924024D01*
X184944924Y-56845005D01*
X184944922Y-56845004D01*
X184815341Y-56738659D01*
X184708996Y-56609078D01*
X184700886Y-56593906D01*
X184629976Y-56461242D01*
X184581313Y-56300823D01*
X184564883Y-56134000D01*
X184581313Y-55967177D01*
X184629976Y-55806758D01*
X184708995Y-55658924D01*
X184708996Y-55658922D01*
X184815341Y-55529341D01*
X184944922Y-55422996D01*
X184960094Y-55414886D01*
X185092758Y-55343976D01*
X185253177Y-55295313D01*
X185378196Y-55283000D01*
X185461804Y-55283000D01*
X185586823Y-55295313D01*
X185586823Y-55295313D01*
G37*
G36*
X185586823Y-52755313D02*
G01*
X185747242Y-52803976D01*
X185879906Y-52874886D01*
X185895078Y-52882996D01*
X186024659Y-52989341D01*
X186131004Y-53118922D01*
X186131005Y-53118924D01*
X186210024Y-53266758D01*
X186258687Y-53427177D01*
X186275117Y-53594000D01*
X186258687Y-53760823D01*
X186210024Y-53921242D01*
X186139114Y-54053906D01*
X186131004Y-54069078D01*
X186024659Y-54198659D01*
X185895078Y-54305004D01*
X185895076Y-54305005D01*
X185747242Y-54384024D01*
X185586823Y-54432687D01*
X185461804Y-54445000D01*
X185378196Y-54445000D01*
X185253177Y-54432687D01*
X185092758Y-54384024D01*
X184944924Y-54305005D01*
X184944922Y-54305004D01*
X184815341Y-54198659D01*
X184708996Y-54069078D01*
X184700886Y-54053906D01*
X184629976Y-53921242D01*
X184581313Y-53760823D01*
X184564883Y-53594000D01*
X184581313Y-53427177D01*
X184629976Y-53266758D01*
X184708995Y-53118924D01*
X184708996Y-53118922D01*
X184815341Y-52989341D01*
X184944922Y-52882996D01*
X184960094Y-52874886D01*
X185092758Y-52803976D01*
X185253177Y-52755313D01*
X185378196Y-52743000D01*
X185461804Y-52743000D01*
X185586823Y-52755313D01*
X185586823Y-52755313D01*
G37*
G36*
X137326823Y-52755313D02*
G01*
X137487242Y-52803976D01*
X137619906Y-52874886D01*
X137635078Y-52882996D01*
X137764659Y-52989341D01*
X137871004Y-53118922D01*
X137871005Y-53118924D01*
X137950024Y-53266758D01*
X137998687Y-53427177D01*
X138015117Y-53594000D01*
X137998687Y-53760823D01*
X137950024Y-53921242D01*
X137879114Y-54053906D01*
X137871004Y-54069078D01*
X137764659Y-54198659D01*
X137635078Y-54305004D01*
X137635076Y-54305005D01*
X137487242Y-54384024D01*
X137326823Y-54432687D01*
X137201804Y-54445000D01*
X137118196Y-54445000D01*
X136993177Y-54432687D01*
X136832758Y-54384024D01*
X136684924Y-54305005D01*
X136684922Y-54305004D01*
X136555341Y-54198659D01*
X136448996Y-54069078D01*
X136440886Y-54053906D01*
X136369976Y-53921242D01*
X136321313Y-53760823D01*
X136304883Y-53594000D01*
X136321313Y-53427177D01*
X136369976Y-53266758D01*
X136448995Y-53118924D01*
X136448996Y-53118922D01*
X136555341Y-52989341D01*
X136684922Y-52882996D01*
X136700094Y-52874886D01*
X136832758Y-52803976D01*
X136993177Y-52755313D01*
X137118196Y-52743000D01*
X137201804Y-52743000D01*
X137326823Y-52755313D01*
X137326823Y-52755313D01*
G37*
G36*
X177966823Y-52755313D02*
G01*
X178127242Y-52803976D01*
X178259906Y-52874886D01*
X178275078Y-52882996D01*
X178404659Y-52989341D01*
X178511004Y-53118922D01*
X178511005Y-53118924D01*
X178590024Y-53266758D01*
X178638687Y-53427177D01*
X178655117Y-53594000D01*
X178638687Y-53760823D01*
X178590024Y-53921242D01*
X178519114Y-54053906D01*
X178511004Y-54069078D01*
X178404659Y-54198659D01*
X178275078Y-54305004D01*
X178275076Y-54305005D01*
X178127242Y-54384024D01*
X177966823Y-54432687D01*
X177841804Y-54445000D01*
X177758196Y-54445000D01*
X177633177Y-54432687D01*
X177472758Y-54384024D01*
X177324924Y-54305005D01*
X177324922Y-54305004D01*
X177195341Y-54198659D01*
X177088996Y-54069078D01*
X177080886Y-54053906D01*
X177009976Y-53921242D01*
X176961313Y-53760823D01*
X176944883Y-53594000D01*
X176961313Y-53427177D01*
X177009976Y-53266758D01*
X177088995Y-53118924D01*
X177088996Y-53118922D01*
X177195341Y-52989341D01*
X177324922Y-52882996D01*
X177340094Y-52874886D01*
X177472758Y-52803976D01*
X177633177Y-52755313D01*
X177758196Y-52743000D01*
X177841804Y-52743000D01*
X177966823Y-52755313D01*
X177966823Y-52755313D01*
G37*
G36*
X144946823Y-52755313D02*
G01*
X145107242Y-52803976D01*
X145239906Y-52874886D01*
X145255078Y-52882996D01*
X145384659Y-52989341D01*
X145491004Y-53118922D01*
X145491005Y-53118924D01*
X145570024Y-53266758D01*
X145618687Y-53427177D01*
X145635117Y-53594000D01*
X145618687Y-53760823D01*
X145570024Y-53921242D01*
X145499114Y-54053906D01*
X145491004Y-54069078D01*
X145384659Y-54198659D01*
X145255078Y-54305004D01*
X145255076Y-54305005D01*
X145107242Y-54384024D01*
X144946823Y-54432687D01*
X144821804Y-54445000D01*
X144738196Y-54445000D01*
X144613177Y-54432687D01*
X144452758Y-54384024D01*
X144304924Y-54305005D01*
X144304922Y-54305004D01*
X144175341Y-54198659D01*
X144068996Y-54069078D01*
X144060886Y-54053906D01*
X143989976Y-53921242D01*
X143941313Y-53760823D01*
X143924883Y-53594000D01*
X143941313Y-53427177D01*
X143989976Y-53266758D01*
X144068995Y-53118924D01*
X144068996Y-53118922D01*
X144175341Y-52989341D01*
X144304922Y-52882996D01*
X144320094Y-52874886D01*
X144452758Y-52803976D01*
X144613177Y-52755313D01*
X144738196Y-52743000D01*
X144821804Y-52743000D01*
X144946823Y-52755313D01*
X144946823Y-52755313D01*
G37*
G36*
X177966823Y-50215313D02*
G01*
X178127242Y-50263976D01*
X178259906Y-50334886D01*
X178275078Y-50342996D01*
X178404659Y-50449341D01*
X178511004Y-50578922D01*
X178511005Y-50578924D01*
X178590024Y-50726758D01*
X178638687Y-50887177D01*
X178655117Y-51054000D01*
X178638687Y-51220823D01*
X178590024Y-51381242D01*
X178519114Y-51513906D01*
X178511004Y-51529078D01*
X178404659Y-51658659D01*
X178275078Y-51765004D01*
X178275076Y-51765005D01*
X178127242Y-51844024D01*
X177966823Y-51892687D01*
X177841804Y-51905000D01*
X177758196Y-51905000D01*
X177633177Y-51892687D01*
X177472758Y-51844024D01*
X177324924Y-51765005D01*
X177324922Y-51765004D01*
X177195341Y-51658659D01*
X177088996Y-51529078D01*
X177080886Y-51513906D01*
X177009976Y-51381242D01*
X176961313Y-51220823D01*
X176944883Y-51054000D01*
X176961313Y-50887177D01*
X177009976Y-50726758D01*
X177088995Y-50578924D01*
X177088996Y-50578922D01*
X177195341Y-50449341D01*
X177324922Y-50342996D01*
X177340094Y-50334886D01*
X177472758Y-50263976D01*
X177633177Y-50215313D01*
X177758196Y-50203000D01*
X177841804Y-50203000D01*
X177966823Y-50215313D01*
X177966823Y-50215313D01*
G37*
G36*
X185586823Y-50215313D02*
G01*
X185747242Y-50263976D01*
X185879906Y-50334886D01*
X185895078Y-50342996D01*
X186024659Y-50449341D01*
X186131004Y-50578922D01*
X186131005Y-50578924D01*
X186210024Y-50726758D01*
X186258687Y-50887177D01*
X186275117Y-51054000D01*
X186258687Y-51220823D01*
X186210024Y-51381242D01*
X186139114Y-51513906D01*
X186131004Y-51529078D01*
X186024659Y-51658659D01*
X185895078Y-51765004D01*
X185895076Y-51765005D01*
X185747242Y-51844024D01*
X185586823Y-51892687D01*
X185461804Y-51905000D01*
X185378196Y-51905000D01*
X185253177Y-51892687D01*
X185092758Y-51844024D01*
X184944924Y-51765005D01*
X184944922Y-51765004D01*
X184815341Y-51658659D01*
X184708996Y-51529078D01*
X184700886Y-51513906D01*
X184629976Y-51381242D01*
X184581313Y-51220823D01*
X184564883Y-51054000D01*
X184581313Y-50887177D01*
X184629976Y-50726758D01*
X184708995Y-50578924D01*
X184708996Y-50578922D01*
X184815341Y-50449341D01*
X184944922Y-50342996D01*
X184960094Y-50334886D01*
X185092758Y-50263976D01*
X185253177Y-50215313D01*
X185378196Y-50203000D01*
X185461804Y-50203000D01*
X185586823Y-50215313D01*
X185586823Y-50215313D01*
G37*
G36*
X144946823Y-50215313D02*
G01*
X145107242Y-50263976D01*
X145239906Y-50334886D01*
X145255078Y-50342996D01*
X145384659Y-50449341D01*
X145491004Y-50578922D01*
X145491005Y-50578924D01*
X145570024Y-50726758D01*
X145618687Y-50887177D01*
X145635117Y-51054000D01*
X145618687Y-51220823D01*
X145570024Y-51381242D01*
X145499114Y-51513906D01*
X145491004Y-51529078D01*
X145384659Y-51658659D01*
X145255078Y-51765004D01*
X145255076Y-51765005D01*
X145107242Y-51844024D01*
X144946823Y-51892687D01*
X144821804Y-51905000D01*
X144738196Y-51905000D01*
X144613177Y-51892687D01*
X144452758Y-51844024D01*
X144304924Y-51765005D01*
X144304922Y-51765004D01*
X144175341Y-51658659D01*
X144068996Y-51529078D01*
X144060886Y-51513906D01*
X143989976Y-51381242D01*
X143941313Y-51220823D01*
X143924883Y-51054000D01*
X143941313Y-50887177D01*
X143989976Y-50726758D01*
X144068995Y-50578924D01*
X144068996Y-50578922D01*
X144175341Y-50449341D01*
X144304922Y-50342996D01*
X144320094Y-50334886D01*
X144452758Y-50263976D01*
X144613177Y-50215313D01*
X144738196Y-50203000D01*
X144821804Y-50203000D01*
X144946823Y-50215313D01*
X144946823Y-50215313D01*
G37*
G36*
X137326823Y-50215313D02*
G01*
X137487242Y-50263976D01*
X137619906Y-50334886D01*
X137635078Y-50342996D01*
X137764659Y-50449341D01*
X137871004Y-50578922D01*
X137871005Y-50578924D01*
X137950024Y-50726758D01*
X137998687Y-50887177D01*
X138015117Y-51054000D01*
X137998687Y-51220823D01*
X137950024Y-51381242D01*
X137879114Y-51513906D01*
X137871004Y-51529078D01*
X137764659Y-51658659D01*
X137635078Y-51765004D01*
X137635076Y-51765005D01*
X137487242Y-51844024D01*
X137326823Y-51892687D01*
X137201804Y-51905000D01*
X137118196Y-51905000D01*
X136993177Y-51892687D01*
X136832758Y-51844024D01*
X136684924Y-51765005D01*
X136684922Y-51765004D01*
X136555341Y-51658659D01*
X136448996Y-51529078D01*
X136440886Y-51513906D01*
X136369976Y-51381242D01*
X136321313Y-51220823D01*
X136304883Y-51054000D01*
X136321313Y-50887177D01*
X136369976Y-50726758D01*
X136448995Y-50578924D01*
X136448996Y-50578922D01*
X136555341Y-50449341D01*
X136684922Y-50342996D01*
X136700094Y-50334886D01*
X136832758Y-50263976D01*
X136993177Y-50215313D01*
X137118196Y-50203000D01*
X137201804Y-50203000D01*
X137326823Y-50215313D01*
X137326823Y-50215313D01*
G37*
G36*
X144946823Y-47675313D02*
G01*
X145107242Y-47723976D01*
X145239906Y-47794886D01*
X145255078Y-47802996D01*
X145384659Y-47909341D01*
X145491004Y-48038922D01*
X145491005Y-48038924D01*
X145570024Y-48186758D01*
X145618687Y-48347177D01*
X145635117Y-48514000D01*
X145618687Y-48680823D01*
X145570024Y-48841242D01*
X145499114Y-48973906D01*
X145491004Y-48989078D01*
X145384659Y-49118659D01*
X145255078Y-49225004D01*
X145255076Y-49225005D01*
X145107242Y-49304024D01*
X144946823Y-49352687D01*
X144821804Y-49365000D01*
X144738196Y-49365000D01*
X144613177Y-49352687D01*
X144452758Y-49304024D01*
X144304924Y-49225005D01*
X144304922Y-49225004D01*
X144175341Y-49118659D01*
X144068996Y-48989078D01*
X144060886Y-48973906D01*
X143989976Y-48841242D01*
X143941313Y-48680823D01*
X143924883Y-48514000D01*
X143941313Y-48347177D01*
X143989976Y-48186758D01*
X144068995Y-48038924D01*
X144068996Y-48038922D01*
X144175341Y-47909341D01*
X144304922Y-47802996D01*
X144320094Y-47794886D01*
X144452758Y-47723976D01*
X144613177Y-47675313D01*
X144738196Y-47663000D01*
X144821804Y-47663000D01*
X144946823Y-47675313D01*
X144946823Y-47675313D01*
G37*
G36*
X177966823Y-47675313D02*
G01*
X178127242Y-47723976D01*
X178259906Y-47794886D01*
X178275078Y-47802996D01*
X178404659Y-47909341D01*
X178511004Y-48038922D01*
X178511005Y-48038924D01*
X178590024Y-48186758D01*
X178638687Y-48347177D01*
X178655117Y-48514000D01*
X178638687Y-48680823D01*
X178590024Y-48841242D01*
X178519114Y-48973906D01*
X178511004Y-48989078D01*
X178404659Y-49118659D01*
X178275078Y-49225004D01*
X178275076Y-49225005D01*
X178127242Y-49304024D01*
X177966823Y-49352687D01*
X177841804Y-49365000D01*
X177758196Y-49365000D01*
X177633177Y-49352687D01*
X177472758Y-49304024D01*
X177324924Y-49225005D01*
X177324922Y-49225004D01*
X177195341Y-49118659D01*
X177088996Y-48989078D01*
X177080886Y-48973906D01*
X177009976Y-48841242D01*
X176961313Y-48680823D01*
X176944883Y-48514000D01*
X176961313Y-48347177D01*
X177009976Y-48186758D01*
X177088995Y-48038924D01*
X177088996Y-48038922D01*
X177195341Y-47909341D01*
X177324922Y-47802996D01*
X177340094Y-47794886D01*
X177472758Y-47723976D01*
X177633177Y-47675313D01*
X177758196Y-47663000D01*
X177841804Y-47663000D01*
X177966823Y-47675313D01*
X177966823Y-47675313D01*
G37*
G36*
X137326823Y-47675313D02*
G01*
X137487242Y-47723976D01*
X137619906Y-47794886D01*
X137635078Y-47802996D01*
X137764659Y-47909341D01*
X137871004Y-48038922D01*
X137871005Y-48038924D01*
X137950024Y-48186758D01*
X137998687Y-48347177D01*
X138015117Y-48514000D01*
X137998687Y-48680823D01*
X137950024Y-48841242D01*
X137879114Y-48973906D01*
X137871004Y-48989078D01*
X137764659Y-49118659D01*
X137635078Y-49225004D01*
X137635076Y-49225005D01*
X137487242Y-49304024D01*
X137326823Y-49352687D01*
X137201804Y-49365000D01*
X137118196Y-49365000D01*
X136993177Y-49352687D01*
X136832758Y-49304024D01*
X136684924Y-49225005D01*
X136684922Y-49225004D01*
X136555341Y-49118659D01*
X136448996Y-48989078D01*
X136440886Y-48973906D01*
X136369976Y-48841242D01*
X136321313Y-48680823D01*
X136304883Y-48514000D01*
X136321313Y-48347177D01*
X136369976Y-48186758D01*
X136448995Y-48038924D01*
X136448996Y-48038922D01*
X136555341Y-47909341D01*
X136684922Y-47802996D01*
X136700094Y-47794886D01*
X136832758Y-47723976D01*
X136993177Y-47675313D01*
X137118196Y-47663000D01*
X137201804Y-47663000D01*
X137326823Y-47675313D01*
X137326823Y-47675313D01*
G37*
G36*
X185586823Y-47675313D02*
G01*
X185747242Y-47723976D01*
X185879906Y-47794886D01*
X185895078Y-47802996D01*
X186024659Y-47909341D01*
X186131004Y-48038922D01*
X186131005Y-48038924D01*
X186210024Y-48186758D01*
X186258687Y-48347177D01*
X186275117Y-48514000D01*
X186258687Y-48680823D01*
X186210024Y-48841242D01*
X186139114Y-48973906D01*
X186131004Y-48989078D01*
X186024659Y-49118659D01*
X185895078Y-49225004D01*
X185895076Y-49225005D01*
X185747242Y-49304024D01*
X185586823Y-49352687D01*
X185461804Y-49365000D01*
X185378196Y-49365000D01*
X185253177Y-49352687D01*
X185092758Y-49304024D01*
X184944924Y-49225005D01*
X184944922Y-49225004D01*
X184815341Y-49118659D01*
X184708996Y-48989078D01*
X184700886Y-48973906D01*
X184629976Y-48841242D01*
X184581313Y-48680823D01*
X184564883Y-48514000D01*
X184581313Y-48347177D01*
X184629976Y-48186758D01*
X184708995Y-48038924D01*
X184708996Y-48038922D01*
X184815341Y-47909341D01*
X184944922Y-47802996D01*
X184960094Y-47794886D01*
X185092758Y-47723976D01*
X185253177Y-47675313D01*
X185378196Y-47663000D01*
X185461804Y-47663000D01*
X185586823Y-47675313D01*
X185586823Y-47675313D01*
G37*
G36*
X137326823Y-45135313D02*
G01*
X137487242Y-45183976D01*
X137619906Y-45254886D01*
X137635078Y-45262996D01*
X137764659Y-45369341D01*
X137871004Y-45498922D01*
X137871005Y-45498924D01*
X137950024Y-45646758D01*
X137998687Y-45807177D01*
X138015117Y-45974000D01*
X137998687Y-46140823D01*
X137950024Y-46301242D01*
X137879114Y-46433906D01*
X137871004Y-46449078D01*
X137764659Y-46578659D01*
X137635078Y-46685004D01*
X137635076Y-46685005D01*
X137487242Y-46764024D01*
X137326823Y-46812687D01*
X137201804Y-46825000D01*
X137118196Y-46825000D01*
X136993177Y-46812687D01*
X136832758Y-46764024D01*
X136684924Y-46685005D01*
X136684922Y-46685004D01*
X136555341Y-46578659D01*
X136448996Y-46449078D01*
X136440886Y-46433906D01*
X136369976Y-46301242D01*
X136321313Y-46140823D01*
X136304883Y-45974000D01*
X136321313Y-45807177D01*
X136369976Y-45646758D01*
X136448995Y-45498924D01*
X136448996Y-45498922D01*
X136555341Y-45369341D01*
X136684922Y-45262996D01*
X136700094Y-45254886D01*
X136832758Y-45183976D01*
X136993177Y-45135313D01*
X137118196Y-45123000D01*
X137201804Y-45123000D01*
X137326823Y-45135313D01*
X137326823Y-45135313D01*
G37*
G36*
X185586823Y-45135313D02*
G01*
X185747242Y-45183976D01*
X185879906Y-45254886D01*
X185895078Y-45262996D01*
X186024659Y-45369341D01*
X186131004Y-45498922D01*
X186131005Y-45498924D01*
X186210024Y-45646758D01*
X186258687Y-45807177D01*
X186275117Y-45974000D01*
X186258687Y-46140823D01*
X186210024Y-46301242D01*
X186139114Y-46433906D01*
X186131004Y-46449078D01*
X186024659Y-46578659D01*
X185895078Y-46685004D01*
X185895076Y-46685005D01*
X185747242Y-46764024D01*
X185586823Y-46812687D01*
X185461804Y-46825000D01*
X185378196Y-46825000D01*
X185253177Y-46812687D01*
X185092758Y-46764024D01*
X184944924Y-46685005D01*
X184944922Y-46685004D01*
X184815341Y-46578659D01*
X184708996Y-46449078D01*
X184700886Y-46433906D01*
X184629976Y-46301242D01*
X184581313Y-46140823D01*
X184564883Y-45974000D01*
X184581313Y-45807177D01*
X184629976Y-45646758D01*
X184708995Y-45498924D01*
X184708996Y-45498922D01*
X184815341Y-45369341D01*
X184944922Y-45262996D01*
X184960094Y-45254886D01*
X185092758Y-45183976D01*
X185253177Y-45135313D01*
X185378196Y-45123000D01*
X185461804Y-45123000D01*
X185586823Y-45135313D01*
X185586823Y-45135313D01*
G37*
G36*
X177966823Y-45135313D02*
G01*
X178127242Y-45183976D01*
X178259906Y-45254886D01*
X178275078Y-45262996D01*
X178404659Y-45369341D01*
X178511004Y-45498922D01*
X178511005Y-45498924D01*
X178590024Y-45646758D01*
X178638687Y-45807177D01*
X178655117Y-45974000D01*
X178638687Y-46140823D01*
X178590024Y-46301242D01*
X178519114Y-46433906D01*
X178511004Y-46449078D01*
X178404659Y-46578659D01*
X178275078Y-46685004D01*
X178275076Y-46685005D01*
X178127242Y-46764024D01*
X177966823Y-46812687D01*
X177841804Y-46825000D01*
X177758196Y-46825000D01*
X177633177Y-46812687D01*
X177472758Y-46764024D01*
X177324924Y-46685005D01*
X177324922Y-46685004D01*
X177195341Y-46578659D01*
X177088996Y-46449078D01*
X177080886Y-46433906D01*
X177009976Y-46301242D01*
X176961313Y-46140823D01*
X176944883Y-45974000D01*
X176961313Y-45807177D01*
X177009976Y-45646758D01*
X177088995Y-45498924D01*
X177088996Y-45498922D01*
X177195341Y-45369341D01*
X177324922Y-45262996D01*
X177340094Y-45254886D01*
X177472758Y-45183976D01*
X177633177Y-45135313D01*
X177758196Y-45123000D01*
X177841804Y-45123000D01*
X177966823Y-45135313D01*
X177966823Y-45135313D01*
G37*
G36*
X144946823Y-45135313D02*
G01*
X145107242Y-45183976D01*
X145239906Y-45254886D01*
X145255078Y-45262996D01*
X145384659Y-45369341D01*
X145491004Y-45498922D01*
X145491005Y-45498924D01*
X145570024Y-45646758D01*
X145618687Y-45807177D01*
X145635117Y-45974000D01*
X145618687Y-46140823D01*
X145570024Y-46301242D01*
X145499114Y-46433906D01*
X145491004Y-46449078D01*
X145384659Y-46578659D01*
X145255078Y-46685004D01*
X145255076Y-46685005D01*
X145107242Y-46764024D01*
X144946823Y-46812687D01*
X144821804Y-46825000D01*
X144738196Y-46825000D01*
X144613177Y-46812687D01*
X144452758Y-46764024D01*
X144304924Y-46685005D01*
X144304922Y-46685004D01*
X144175341Y-46578659D01*
X144068996Y-46449078D01*
X144060886Y-46433906D01*
X143989976Y-46301242D01*
X143941313Y-46140823D01*
X143924883Y-45974000D01*
X143941313Y-45807177D01*
X143989976Y-45646758D01*
X144068995Y-45498924D01*
X144068996Y-45498922D01*
X144175341Y-45369341D01*
X144304922Y-45262996D01*
X144320094Y-45254886D01*
X144452758Y-45183976D01*
X144613177Y-45135313D01*
X144738196Y-45123000D01*
X144821804Y-45123000D01*
X144946823Y-45135313D01*
X144946823Y-45135313D01*
G37*
G36*
X177966823Y-42595313D02*
G01*
X178127242Y-42643976D01*
X178259906Y-42714886D01*
X178275078Y-42722996D01*
X178404659Y-42829341D01*
X178511004Y-42958922D01*
X178511005Y-42958924D01*
X178590024Y-43106758D01*
X178638687Y-43267177D01*
X178655117Y-43434000D01*
X178638687Y-43600823D01*
X178590024Y-43761242D01*
X178519114Y-43893906D01*
X178511004Y-43909078D01*
X178404659Y-44038659D01*
X178275078Y-44145004D01*
X178275076Y-44145005D01*
X178127242Y-44224024D01*
X177966823Y-44272687D01*
X177841804Y-44285000D01*
X177758196Y-44285000D01*
X177633177Y-44272687D01*
X177472758Y-44224024D01*
X177324924Y-44145005D01*
X177324922Y-44145004D01*
X177195341Y-44038659D01*
X177088996Y-43909078D01*
X177080886Y-43893906D01*
X177009976Y-43761242D01*
X176961313Y-43600823D01*
X176944883Y-43434000D01*
X176961313Y-43267177D01*
X177009976Y-43106758D01*
X177088995Y-42958924D01*
X177088996Y-42958922D01*
X177195341Y-42829341D01*
X177324922Y-42722996D01*
X177340094Y-42714886D01*
X177472758Y-42643976D01*
X177633177Y-42595313D01*
X177758196Y-42583000D01*
X177841804Y-42583000D01*
X177966823Y-42595313D01*
X177966823Y-42595313D01*
G37*
G36*
X185586823Y-42595313D02*
G01*
X185747242Y-42643976D01*
X185879906Y-42714886D01*
X185895078Y-42722996D01*
X186024659Y-42829341D01*
X186131004Y-42958922D01*
X186131005Y-42958924D01*
X186210024Y-43106758D01*
X186258687Y-43267177D01*
X186275117Y-43434000D01*
X186258687Y-43600823D01*
X186210024Y-43761242D01*
X186139114Y-43893906D01*
X186131004Y-43909078D01*
X186024659Y-44038659D01*
X185895078Y-44145004D01*
X185895076Y-44145005D01*
X185747242Y-44224024D01*
X185586823Y-44272687D01*
X185461804Y-44285000D01*
X185378196Y-44285000D01*
X185253177Y-44272687D01*
X185092758Y-44224024D01*
X184944924Y-44145005D01*
X184944922Y-44145004D01*
X184815341Y-44038659D01*
X184708996Y-43909078D01*
X184700886Y-43893906D01*
X184629976Y-43761242D01*
X184581313Y-43600823D01*
X184564883Y-43434000D01*
X184581313Y-43267177D01*
X184629976Y-43106758D01*
X184708995Y-42958924D01*
X184708996Y-42958922D01*
X184815341Y-42829341D01*
X184944922Y-42722996D01*
X184960094Y-42714886D01*
X185092758Y-42643976D01*
X185253177Y-42595313D01*
X185378196Y-42583000D01*
X185461804Y-42583000D01*
X185586823Y-42595313D01*
X185586823Y-42595313D01*
G37*
G36*
X137326823Y-42595313D02*
G01*
X137487242Y-42643976D01*
X137619906Y-42714886D01*
X137635078Y-42722996D01*
X137764659Y-42829341D01*
X137871004Y-42958922D01*
X137871005Y-42958924D01*
X137950024Y-43106758D01*
X137998687Y-43267177D01*
X138015117Y-43434000D01*
X137998687Y-43600823D01*
X137950024Y-43761242D01*
X137879114Y-43893906D01*
X137871004Y-43909078D01*
X137764659Y-44038659D01*
X137635078Y-44145004D01*
X137635076Y-44145005D01*
X137487242Y-44224024D01*
X137326823Y-44272687D01*
X137201804Y-44285000D01*
X137118196Y-44285000D01*
X136993177Y-44272687D01*
X136832758Y-44224024D01*
X136684924Y-44145005D01*
X136684922Y-44145004D01*
X136555341Y-44038659D01*
X136448996Y-43909078D01*
X136440886Y-43893906D01*
X136369976Y-43761242D01*
X136321313Y-43600823D01*
X136304883Y-43434000D01*
X136321313Y-43267177D01*
X136369976Y-43106758D01*
X136448995Y-42958924D01*
X136448996Y-42958922D01*
X136555341Y-42829341D01*
X136684922Y-42722996D01*
X136700094Y-42714886D01*
X136832758Y-42643976D01*
X136993177Y-42595313D01*
X137118196Y-42583000D01*
X137201804Y-42583000D01*
X137326823Y-42595313D01*
X137326823Y-42595313D01*
G37*
G36*
X144946823Y-42595313D02*
G01*
X145107242Y-42643976D01*
X145239906Y-42714886D01*
X145255078Y-42722996D01*
X145384659Y-42829341D01*
X145491004Y-42958922D01*
X145491005Y-42958924D01*
X145570024Y-43106758D01*
X145618687Y-43267177D01*
X145635117Y-43434000D01*
X145618687Y-43600823D01*
X145570024Y-43761242D01*
X145499114Y-43893906D01*
X145491004Y-43909078D01*
X145384659Y-44038659D01*
X145255078Y-44145004D01*
X145255076Y-44145005D01*
X145107242Y-44224024D01*
X144946823Y-44272687D01*
X144821804Y-44285000D01*
X144738196Y-44285000D01*
X144613177Y-44272687D01*
X144452758Y-44224024D01*
X144304924Y-44145005D01*
X144304922Y-44145004D01*
X144175341Y-44038659D01*
X144068996Y-43909078D01*
X144060886Y-43893906D01*
X143989976Y-43761242D01*
X143941313Y-43600823D01*
X143924883Y-43434000D01*
X143941313Y-43267177D01*
X143989976Y-43106758D01*
X144068995Y-42958924D01*
X144068996Y-42958922D01*
X144175341Y-42829341D01*
X144304922Y-42722996D01*
X144320094Y-42714886D01*
X144452758Y-42643976D01*
X144613177Y-42595313D01*
X144738196Y-42583000D01*
X144821804Y-42583000D01*
X144946823Y-42595313D01*
X144946823Y-42595313D01*
G37*
G36*
X177966823Y-40055313D02*
G01*
X178127242Y-40103976D01*
X178259906Y-40174886D01*
X178275078Y-40182996D01*
X178404659Y-40289341D01*
X178511004Y-40418922D01*
X178511005Y-40418924D01*
X178590024Y-40566758D01*
X178638687Y-40727177D01*
X178655117Y-40894000D01*
X178638687Y-41060823D01*
X178590024Y-41221242D01*
X178519114Y-41353906D01*
X178511004Y-41369078D01*
X178404659Y-41498659D01*
X178275078Y-41605004D01*
X178275076Y-41605005D01*
X178127242Y-41684024D01*
X177966823Y-41732687D01*
X177841804Y-41745000D01*
X177758196Y-41745000D01*
X177633177Y-41732687D01*
X177472758Y-41684024D01*
X177324924Y-41605005D01*
X177324922Y-41605004D01*
X177195341Y-41498659D01*
X177088996Y-41369078D01*
X177080886Y-41353906D01*
X177009976Y-41221242D01*
X176961313Y-41060823D01*
X176944883Y-40894000D01*
X176961313Y-40727177D01*
X177009976Y-40566758D01*
X177088995Y-40418924D01*
X177088996Y-40418922D01*
X177195341Y-40289341D01*
X177324922Y-40182996D01*
X177340094Y-40174886D01*
X177472758Y-40103976D01*
X177633177Y-40055313D01*
X177758196Y-40043000D01*
X177841804Y-40043000D01*
X177966823Y-40055313D01*
X177966823Y-40055313D01*
G37*
G36*
X144946823Y-40055313D02*
G01*
X145107242Y-40103976D01*
X145239906Y-40174886D01*
X145255078Y-40182996D01*
X145384659Y-40289341D01*
X145491004Y-40418922D01*
X145491005Y-40418924D01*
X145570024Y-40566758D01*
X145618687Y-40727177D01*
X145635117Y-40894000D01*
X145618687Y-41060823D01*
X145570024Y-41221242D01*
X145499114Y-41353906D01*
X145491004Y-41369078D01*
X145384659Y-41498659D01*
X145255078Y-41605004D01*
X145255076Y-41605005D01*
X145107242Y-41684024D01*
X144946823Y-41732687D01*
X144821804Y-41745000D01*
X144738196Y-41745000D01*
X144613177Y-41732687D01*
X144452758Y-41684024D01*
X144304924Y-41605005D01*
X144304922Y-41605004D01*
X144175341Y-41498659D01*
X144068996Y-41369078D01*
X144060886Y-41353906D01*
X143989976Y-41221242D01*
X143941313Y-41060823D01*
X143924883Y-40894000D01*
X143941313Y-40727177D01*
X143989976Y-40566758D01*
X144068995Y-40418924D01*
X144068996Y-40418922D01*
X144175341Y-40289341D01*
X144304922Y-40182996D01*
X144320094Y-40174886D01*
X144452758Y-40103976D01*
X144613177Y-40055313D01*
X144738196Y-40043000D01*
X144821804Y-40043000D01*
X144946823Y-40055313D01*
X144946823Y-40055313D01*
G37*
G36*
X137326823Y-40055313D02*
G01*
X137487242Y-40103976D01*
X137619906Y-40174886D01*
X137635078Y-40182996D01*
X137764659Y-40289341D01*
X137871004Y-40418922D01*
X137871005Y-40418924D01*
X137950024Y-40566758D01*
X137998687Y-40727177D01*
X138015117Y-40894000D01*
X137998687Y-41060823D01*
X137950024Y-41221242D01*
X137879114Y-41353906D01*
X137871004Y-41369078D01*
X137764659Y-41498659D01*
X137635078Y-41605004D01*
X137635076Y-41605005D01*
X137487242Y-41684024D01*
X137326823Y-41732687D01*
X137201804Y-41745000D01*
X137118196Y-41745000D01*
X136993177Y-41732687D01*
X136832758Y-41684024D01*
X136684924Y-41605005D01*
X136684922Y-41605004D01*
X136555341Y-41498659D01*
X136448996Y-41369078D01*
X136440886Y-41353906D01*
X136369976Y-41221242D01*
X136321313Y-41060823D01*
X136304883Y-40894000D01*
X136321313Y-40727177D01*
X136369976Y-40566758D01*
X136448995Y-40418924D01*
X136448996Y-40418922D01*
X136555341Y-40289341D01*
X136684922Y-40182996D01*
X136700094Y-40174886D01*
X136832758Y-40103976D01*
X136993177Y-40055313D01*
X137118196Y-40043000D01*
X137201804Y-40043000D01*
X137326823Y-40055313D01*
X137326823Y-40055313D01*
G37*
G36*
X185586823Y-40055313D02*
G01*
X185747242Y-40103976D01*
X185879906Y-40174886D01*
X185895078Y-40182996D01*
X186024659Y-40289341D01*
X186131004Y-40418922D01*
X186131005Y-40418924D01*
X186210024Y-40566758D01*
X186258687Y-40727177D01*
X186275117Y-40894000D01*
X186258687Y-41060823D01*
X186210024Y-41221242D01*
X186139114Y-41353906D01*
X186131004Y-41369078D01*
X186024659Y-41498659D01*
X185895078Y-41605004D01*
X185895076Y-41605005D01*
X185747242Y-41684024D01*
X185586823Y-41732687D01*
X185461804Y-41745000D01*
X185378196Y-41745000D01*
X185253177Y-41732687D01*
X185092758Y-41684024D01*
X184944924Y-41605005D01*
X184944922Y-41605004D01*
X184815341Y-41498659D01*
X184708996Y-41369078D01*
X184700886Y-41353906D01*
X184629976Y-41221242D01*
X184581313Y-41060823D01*
X184564883Y-40894000D01*
X184581313Y-40727177D01*
X184629976Y-40566758D01*
X184708995Y-40418924D01*
X184708996Y-40418922D01*
X184815341Y-40289341D01*
X184944922Y-40182996D01*
X184960094Y-40174886D01*
X185092758Y-40103976D01*
X185253177Y-40055313D01*
X185378196Y-40043000D01*
X185461804Y-40043000D01*
X185586823Y-40055313D01*
X185586823Y-40055313D01*
G37*
G36*
X144946823Y-37515313D02*
G01*
X145107242Y-37563976D01*
X145239906Y-37634886D01*
X145255078Y-37642996D01*
X145384659Y-37749341D01*
X145491004Y-37878922D01*
X145491005Y-37878924D01*
X145570024Y-38026758D01*
X145618687Y-38187177D01*
X145635117Y-38354000D01*
X145618687Y-38520823D01*
X145570024Y-38681242D01*
X145499114Y-38813906D01*
X145491004Y-38829078D01*
X145384659Y-38958659D01*
X145255078Y-39065004D01*
X145255076Y-39065005D01*
X145107242Y-39144024D01*
X144946823Y-39192687D01*
X144821804Y-39205000D01*
X144738196Y-39205000D01*
X144613177Y-39192687D01*
X144452758Y-39144024D01*
X144304924Y-39065005D01*
X144304922Y-39065004D01*
X144175341Y-38958659D01*
X144068996Y-38829078D01*
X144060886Y-38813906D01*
X143989976Y-38681242D01*
X143941313Y-38520823D01*
X143924883Y-38354000D01*
X143941313Y-38187177D01*
X143989976Y-38026758D01*
X144068995Y-37878924D01*
X144068996Y-37878922D01*
X144175341Y-37749341D01*
X144304922Y-37642996D01*
X144320094Y-37634886D01*
X144452758Y-37563976D01*
X144613177Y-37515313D01*
X144738196Y-37503000D01*
X144821804Y-37503000D01*
X144946823Y-37515313D01*
X144946823Y-37515313D01*
G37*
G36*
X137326823Y-37515313D02*
G01*
X137487242Y-37563976D01*
X137619906Y-37634886D01*
X137635078Y-37642996D01*
X137764659Y-37749341D01*
X137871004Y-37878922D01*
X137871005Y-37878924D01*
X137950024Y-38026758D01*
X137998687Y-38187177D01*
X138015117Y-38354000D01*
X137998687Y-38520823D01*
X137950024Y-38681242D01*
X137879114Y-38813906D01*
X137871004Y-38829078D01*
X137764659Y-38958659D01*
X137635078Y-39065004D01*
X137635076Y-39065005D01*
X137487242Y-39144024D01*
X137326823Y-39192687D01*
X137201804Y-39205000D01*
X137118196Y-39205000D01*
X136993177Y-39192687D01*
X136832758Y-39144024D01*
X136684924Y-39065005D01*
X136684922Y-39065004D01*
X136555341Y-38958659D01*
X136448996Y-38829078D01*
X136440886Y-38813906D01*
X136369976Y-38681242D01*
X136321313Y-38520823D01*
X136304883Y-38354000D01*
X136321313Y-38187177D01*
X136369976Y-38026758D01*
X136448995Y-37878924D01*
X136448996Y-37878922D01*
X136555341Y-37749341D01*
X136684922Y-37642996D01*
X136700094Y-37634886D01*
X136832758Y-37563976D01*
X136993177Y-37515313D01*
X137118196Y-37503000D01*
X137201804Y-37503000D01*
X137326823Y-37515313D01*
X137326823Y-37515313D01*
G37*
G36*
X185586823Y-37515313D02*
G01*
X185747242Y-37563976D01*
X185879906Y-37634886D01*
X185895078Y-37642996D01*
X186024659Y-37749341D01*
X186131004Y-37878922D01*
X186131005Y-37878924D01*
X186210024Y-38026758D01*
X186258687Y-38187177D01*
X186275117Y-38354000D01*
X186258687Y-38520823D01*
X186210024Y-38681242D01*
X186139114Y-38813906D01*
X186131004Y-38829078D01*
X186024659Y-38958659D01*
X185895078Y-39065004D01*
X185895076Y-39065005D01*
X185747242Y-39144024D01*
X185586823Y-39192687D01*
X185461804Y-39205000D01*
X185378196Y-39205000D01*
X185253177Y-39192687D01*
X185092758Y-39144024D01*
X184944924Y-39065005D01*
X184944922Y-39065004D01*
X184815341Y-38958659D01*
X184708996Y-38829078D01*
X184700886Y-38813906D01*
X184629976Y-38681242D01*
X184581313Y-38520823D01*
X184564883Y-38354000D01*
X184581313Y-38187177D01*
X184629976Y-38026758D01*
X184708995Y-37878924D01*
X184708996Y-37878922D01*
X184815341Y-37749341D01*
X184944922Y-37642996D01*
X184960094Y-37634886D01*
X185092758Y-37563976D01*
X185253177Y-37515313D01*
X185378196Y-37503000D01*
X185461804Y-37503000D01*
X185586823Y-37515313D01*
X185586823Y-37515313D01*
G37*
G36*
X177966823Y-37515313D02*
G01*
X178127242Y-37563976D01*
X178259906Y-37634886D01*
X178275078Y-37642996D01*
X178404659Y-37749341D01*
X178511004Y-37878922D01*
X178511005Y-37878924D01*
X178590024Y-38026758D01*
X178638687Y-38187177D01*
X178655117Y-38354000D01*
X178638687Y-38520823D01*
X178590024Y-38681242D01*
X178519114Y-38813906D01*
X178511004Y-38829078D01*
X178404659Y-38958659D01*
X178275078Y-39065004D01*
X178275076Y-39065005D01*
X178127242Y-39144024D01*
X177966823Y-39192687D01*
X177841804Y-39205000D01*
X177758196Y-39205000D01*
X177633177Y-39192687D01*
X177472758Y-39144024D01*
X177324924Y-39065005D01*
X177324922Y-39065004D01*
X177195341Y-38958659D01*
X177088996Y-38829078D01*
X177080886Y-38813906D01*
X177009976Y-38681242D01*
X176961313Y-38520823D01*
X176944883Y-38354000D01*
X176961313Y-38187177D01*
X177009976Y-38026758D01*
X177088995Y-37878924D01*
X177088996Y-37878922D01*
X177195341Y-37749341D01*
X177324922Y-37642996D01*
X177340094Y-37634886D01*
X177472758Y-37563976D01*
X177633177Y-37515313D01*
X177758196Y-37503000D01*
X177841804Y-37503000D01*
X177966823Y-37515313D01*
X177966823Y-37515313D01*
G37*
G36*
X153301000Y-36715000D02*
G01*
X151499000Y-36715000D01*
X151499000Y-34913000D01*
X153301000Y-34913000D01*
X153301000Y-36715000D01*
X153301000Y-36715000D01*
G37*
G36*
X165210442Y-34919518D02*
G01*
X165276627Y-34926037D01*
X165446466Y-34977557D01*
X165602991Y-35061222D01*
X165638729Y-35090552D01*
X165740186Y-35173814D01*
X165823448Y-35275271D01*
X165852778Y-35311009D01*
X165936443Y-35467534D01*
X165987963Y-35637373D01*
X166005359Y-35814000D01*
X165987963Y-35990627D01*
X165936443Y-36160466D01*
X165852778Y-36316991D01*
X165823448Y-36352729D01*
X165740186Y-36454186D01*
X165638729Y-36537448D01*
X165602991Y-36566778D01*
X165446466Y-36650443D01*
X165276627Y-36701963D01*
X165210443Y-36708481D01*
X165144260Y-36715000D01*
X165055740Y-36715000D01*
X164989557Y-36708481D01*
X164923373Y-36701963D01*
X164753534Y-36650443D01*
X164597009Y-36566778D01*
X164561271Y-36537448D01*
X164459814Y-36454186D01*
X164376552Y-36352729D01*
X164347222Y-36316991D01*
X164263557Y-36160466D01*
X164212037Y-35990627D01*
X164194641Y-35814000D01*
X164212037Y-35637373D01*
X164263557Y-35467534D01*
X164347222Y-35311009D01*
X164376552Y-35275271D01*
X164459814Y-35173814D01*
X164561271Y-35090552D01*
X164597009Y-35061222D01*
X164753534Y-34977557D01*
X164923373Y-34926037D01*
X164989558Y-34919518D01*
X165055740Y-34913000D01*
X165144260Y-34913000D01*
X165210442Y-34919518D01*
X165210442Y-34919518D01*
G37*
G36*
X167750442Y-34919518D02*
G01*
X167816627Y-34926037D01*
X167986466Y-34977557D01*
X168142991Y-35061222D01*
X168178729Y-35090552D01*
X168280186Y-35173814D01*
X168363448Y-35275271D01*
X168392778Y-35311009D01*
X168476443Y-35467534D01*
X168527963Y-35637373D01*
X168545359Y-35814000D01*
X168527963Y-35990627D01*
X168476443Y-36160466D01*
X168392778Y-36316991D01*
X168363448Y-36352729D01*
X168280186Y-36454186D01*
X168178729Y-36537448D01*
X168142991Y-36566778D01*
X167986466Y-36650443D01*
X167816627Y-36701963D01*
X167750443Y-36708481D01*
X167684260Y-36715000D01*
X167595740Y-36715000D01*
X167529557Y-36708481D01*
X167463373Y-36701963D01*
X167293534Y-36650443D01*
X167137009Y-36566778D01*
X167101271Y-36537448D01*
X166999814Y-36454186D01*
X166916552Y-36352729D01*
X166887222Y-36316991D01*
X166803557Y-36160466D01*
X166752037Y-35990627D01*
X166734641Y-35814000D01*
X166752037Y-35637373D01*
X166803557Y-35467534D01*
X166887222Y-35311009D01*
X166916552Y-35275271D01*
X166999814Y-35173814D01*
X167101271Y-35090552D01*
X167137009Y-35061222D01*
X167293534Y-34977557D01*
X167463373Y-34926037D01*
X167529558Y-34919518D01*
X167595740Y-34913000D01*
X167684260Y-34913000D01*
X167750442Y-34919518D01*
X167750442Y-34919518D01*
G37*
G36*
X170290442Y-34919518D02*
G01*
X170356627Y-34926037D01*
X170526466Y-34977557D01*
X170682991Y-35061222D01*
X170718729Y-35090552D01*
X170820186Y-35173814D01*
X170903448Y-35275271D01*
X170932778Y-35311009D01*
X171016443Y-35467534D01*
X171067963Y-35637373D01*
X171085359Y-35814000D01*
X171067963Y-35990627D01*
X171016443Y-36160466D01*
X170932778Y-36316991D01*
X170903448Y-36352729D01*
X170820186Y-36454186D01*
X170718729Y-36537448D01*
X170682991Y-36566778D01*
X170526466Y-36650443D01*
X170356627Y-36701963D01*
X170290443Y-36708481D01*
X170224260Y-36715000D01*
X170135740Y-36715000D01*
X170069557Y-36708481D01*
X170003373Y-36701963D01*
X169833534Y-36650443D01*
X169677009Y-36566778D01*
X169641271Y-36537448D01*
X169539814Y-36454186D01*
X169456552Y-36352729D01*
X169427222Y-36316991D01*
X169343557Y-36160466D01*
X169292037Y-35990627D01*
X169274641Y-35814000D01*
X169292037Y-35637373D01*
X169343557Y-35467534D01*
X169427222Y-35311009D01*
X169456552Y-35275271D01*
X169539814Y-35173814D01*
X169641271Y-35090552D01*
X169677009Y-35061222D01*
X169833534Y-34977557D01*
X170003373Y-34926037D01*
X170069558Y-34919518D01*
X170135740Y-34913000D01*
X170224260Y-34913000D01*
X170290442Y-34919518D01*
X170290442Y-34919518D01*
G37*
G36*
X155050442Y-34919518D02*
G01*
X155116627Y-34926037D01*
X155286466Y-34977557D01*
X155442991Y-35061222D01*
X155478729Y-35090552D01*
X155580186Y-35173814D01*
X155663448Y-35275271D01*
X155692778Y-35311009D01*
X155776443Y-35467534D01*
X155827963Y-35637373D01*
X155845359Y-35814000D01*
X155827963Y-35990627D01*
X155776443Y-36160466D01*
X155692778Y-36316991D01*
X155663448Y-36352729D01*
X155580186Y-36454186D01*
X155478729Y-36537448D01*
X155442991Y-36566778D01*
X155286466Y-36650443D01*
X155116627Y-36701963D01*
X155050443Y-36708481D01*
X154984260Y-36715000D01*
X154895740Y-36715000D01*
X154829557Y-36708481D01*
X154763373Y-36701963D01*
X154593534Y-36650443D01*
X154437009Y-36566778D01*
X154401271Y-36537448D01*
X154299814Y-36454186D01*
X154216552Y-36352729D01*
X154187222Y-36316991D01*
X154103557Y-36160466D01*
X154052037Y-35990627D01*
X154034641Y-35814000D01*
X154052037Y-35637373D01*
X154103557Y-35467534D01*
X154187222Y-35311009D01*
X154216552Y-35275271D01*
X154299814Y-35173814D01*
X154401271Y-35090552D01*
X154437009Y-35061222D01*
X154593534Y-34977557D01*
X154763373Y-34926037D01*
X154829558Y-34919518D01*
X154895740Y-34913000D01*
X154984260Y-34913000D01*
X155050442Y-34919518D01*
X155050442Y-34919518D01*
G37*
G36*
X162670442Y-34919518D02*
G01*
X162736627Y-34926037D01*
X162906466Y-34977557D01*
X163062991Y-35061222D01*
X163098729Y-35090552D01*
X163200186Y-35173814D01*
X163283448Y-35275271D01*
X163312778Y-35311009D01*
X163396443Y-35467534D01*
X163447963Y-35637373D01*
X163465359Y-35814000D01*
X163447963Y-35990627D01*
X163396443Y-36160466D01*
X163312778Y-36316991D01*
X163283448Y-36352729D01*
X163200186Y-36454186D01*
X163098729Y-36537448D01*
X163062991Y-36566778D01*
X162906466Y-36650443D01*
X162736627Y-36701963D01*
X162670443Y-36708481D01*
X162604260Y-36715000D01*
X162515740Y-36715000D01*
X162449557Y-36708481D01*
X162383373Y-36701963D01*
X162213534Y-36650443D01*
X162057009Y-36566778D01*
X162021271Y-36537448D01*
X161919814Y-36454186D01*
X161836552Y-36352729D01*
X161807222Y-36316991D01*
X161723557Y-36160466D01*
X161672037Y-35990627D01*
X161654641Y-35814000D01*
X161672037Y-35637373D01*
X161723557Y-35467534D01*
X161807222Y-35311009D01*
X161836552Y-35275271D01*
X161919814Y-35173814D01*
X162021271Y-35090552D01*
X162057009Y-35061222D01*
X162213534Y-34977557D01*
X162383373Y-34926037D01*
X162449558Y-34919518D01*
X162515740Y-34913000D01*
X162604260Y-34913000D01*
X162670442Y-34919518D01*
X162670442Y-34919518D01*
G37*
G36*
X157590442Y-34919518D02*
G01*
X157656627Y-34926037D01*
X157826466Y-34977557D01*
X157982991Y-35061222D01*
X158018729Y-35090552D01*
X158120186Y-35173814D01*
X158203448Y-35275271D01*
X158232778Y-35311009D01*
X158316443Y-35467534D01*
X158367963Y-35637373D01*
X158385359Y-35814000D01*
X158367963Y-35990627D01*
X158316443Y-36160466D01*
X158232778Y-36316991D01*
X158203448Y-36352729D01*
X158120186Y-36454186D01*
X158018729Y-36537448D01*
X157982991Y-36566778D01*
X157826466Y-36650443D01*
X157656627Y-36701963D01*
X157590443Y-36708481D01*
X157524260Y-36715000D01*
X157435740Y-36715000D01*
X157369557Y-36708481D01*
X157303373Y-36701963D01*
X157133534Y-36650443D01*
X156977009Y-36566778D01*
X156941271Y-36537448D01*
X156839814Y-36454186D01*
X156756552Y-36352729D01*
X156727222Y-36316991D01*
X156643557Y-36160466D01*
X156592037Y-35990627D01*
X156574641Y-35814000D01*
X156592037Y-35637373D01*
X156643557Y-35467534D01*
X156727222Y-35311009D01*
X156756552Y-35275271D01*
X156839814Y-35173814D01*
X156941271Y-35090552D01*
X156977009Y-35061222D01*
X157133534Y-34977557D01*
X157303373Y-34926037D01*
X157369558Y-34919518D01*
X157435740Y-34913000D01*
X157524260Y-34913000D01*
X157590442Y-34919518D01*
X157590442Y-34919518D01*
G37*
G36*
X160130442Y-34919518D02*
G01*
X160196627Y-34926037D01*
X160366466Y-34977557D01*
X160522991Y-35061222D01*
X160558729Y-35090552D01*
X160660186Y-35173814D01*
X160743448Y-35275271D01*
X160772778Y-35311009D01*
X160856443Y-35467534D01*
X160907963Y-35637373D01*
X160925359Y-35814000D01*
X160907963Y-35990627D01*
X160856443Y-36160466D01*
X160772778Y-36316991D01*
X160743448Y-36352729D01*
X160660186Y-36454186D01*
X160558729Y-36537448D01*
X160522991Y-36566778D01*
X160366466Y-36650443D01*
X160196627Y-36701963D01*
X160130443Y-36708481D01*
X160064260Y-36715000D01*
X159975740Y-36715000D01*
X159909557Y-36708481D01*
X159843373Y-36701963D01*
X159673534Y-36650443D01*
X159517009Y-36566778D01*
X159481271Y-36537448D01*
X159379814Y-36454186D01*
X159296552Y-36352729D01*
X159267222Y-36316991D01*
X159183557Y-36160466D01*
X159132037Y-35990627D01*
X159114641Y-35814000D01*
X159132037Y-35637373D01*
X159183557Y-35467534D01*
X159267222Y-35311009D01*
X159296552Y-35275271D01*
X159379814Y-35173814D01*
X159481271Y-35090552D01*
X159517009Y-35061222D01*
X159673534Y-34977557D01*
X159843373Y-34926037D01*
X159909558Y-34919518D01*
X159975740Y-34913000D01*
X160064260Y-34913000D01*
X160130442Y-34919518D01*
X160130442Y-34919518D01*
G37*
G36*
X177966823Y-34975313D02*
G01*
X178127242Y-35023976D01*
X178196922Y-35061221D01*
X178275078Y-35102996D01*
X178404659Y-35209341D01*
X178511004Y-35338922D01*
X178511005Y-35338924D01*
X178590024Y-35486758D01*
X178638687Y-35647177D01*
X178655117Y-35814000D01*
X178638687Y-35980823D01*
X178590024Y-36141242D01*
X178579747Y-36160468D01*
X178511004Y-36289078D01*
X178404659Y-36418659D01*
X178275078Y-36525004D01*
X178275076Y-36525005D01*
X178127242Y-36604024D01*
X177966823Y-36652687D01*
X177841804Y-36665000D01*
X177758196Y-36665000D01*
X177633177Y-36652687D01*
X177472758Y-36604024D01*
X177324924Y-36525005D01*
X177324922Y-36525004D01*
X177195341Y-36418659D01*
X177088996Y-36289078D01*
X177020253Y-36160468D01*
X177009976Y-36141242D01*
X176961313Y-35980823D01*
X176944883Y-35814000D01*
X176961313Y-35647177D01*
X177009976Y-35486758D01*
X177088995Y-35338924D01*
X177088996Y-35338922D01*
X177195341Y-35209341D01*
X177324922Y-35102996D01*
X177403078Y-35061221D01*
X177472758Y-35023976D01*
X177633177Y-34975313D01*
X177758196Y-34963000D01*
X177841804Y-34963000D01*
X177966823Y-34975313D01*
X177966823Y-34975313D01*
G37*
G36*
X185586823Y-34975313D02*
G01*
X185747242Y-35023976D01*
X185816922Y-35061221D01*
X185895078Y-35102996D01*
X186024659Y-35209341D01*
X186131004Y-35338922D01*
X186131005Y-35338924D01*
X186210024Y-35486758D01*
X186258687Y-35647177D01*
X186275117Y-35814000D01*
X186258687Y-35980823D01*
X186210024Y-36141242D01*
X186199747Y-36160468D01*
X186131004Y-36289078D01*
X186024659Y-36418659D01*
X185895078Y-36525004D01*
X185895076Y-36525005D01*
X185747242Y-36604024D01*
X185586823Y-36652687D01*
X185461804Y-36665000D01*
X185378196Y-36665000D01*
X185253177Y-36652687D01*
X185092758Y-36604024D01*
X184944924Y-36525005D01*
X184944922Y-36525004D01*
X184815341Y-36418659D01*
X184708996Y-36289078D01*
X184640253Y-36160468D01*
X184629976Y-36141242D01*
X184581313Y-35980823D01*
X184564883Y-35814000D01*
X184581313Y-35647177D01*
X184629976Y-35486758D01*
X184708995Y-35338924D01*
X184708996Y-35338922D01*
X184815341Y-35209341D01*
X184944922Y-35102996D01*
X185023078Y-35061221D01*
X185092758Y-35023976D01*
X185253177Y-34975313D01*
X185378196Y-34963000D01*
X185461804Y-34963000D01*
X185586823Y-34975313D01*
X185586823Y-34975313D01*
G37*
G36*
X137326823Y-34975313D02*
G01*
X137487242Y-35023976D01*
X137556922Y-35061221D01*
X137635078Y-35102996D01*
X137764659Y-35209341D01*
X137871004Y-35338922D01*
X137871005Y-35338924D01*
X137950024Y-35486758D01*
X137998687Y-35647177D01*
X138015117Y-35814000D01*
X137998687Y-35980823D01*
X137950024Y-36141242D01*
X137939747Y-36160468D01*
X137871004Y-36289078D01*
X137764659Y-36418659D01*
X137635078Y-36525004D01*
X137635076Y-36525005D01*
X137487242Y-36604024D01*
X137326823Y-36652687D01*
X137201804Y-36665000D01*
X137118196Y-36665000D01*
X136993177Y-36652687D01*
X136832758Y-36604024D01*
X136684924Y-36525005D01*
X136684922Y-36525004D01*
X136555341Y-36418659D01*
X136448996Y-36289078D01*
X136380253Y-36160468D01*
X136369976Y-36141242D01*
X136321313Y-35980823D01*
X136304883Y-35814000D01*
X136321313Y-35647177D01*
X136369976Y-35486758D01*
X136448995Y-35338924D01*
X136448996Y-35338922D01*
X136555341Y-35209341D01*
X136684922Y-35102996D01*
X136763078Y-35061221D01*
X136832758Y-35023976D01*
X136993177Y-34975313D01*
X137118196Y-34963000D01*
X137201804Y-34963000D01*
X137326823Y-34975313D01*
X137326823Y-34975313D01*
G37*
G36*
X144946823Y-34975313D02*
G01*
X145107242Y-35023976D01*
X145176922Y-35061221D01*
X145255078Y-35102996D01*
X145384659Y-35209341D01*
X145491004Y-35338922D01*
X145491005Y-35338924D01*
X145570024Y-35486758D01*
X145618687Y-35647177D01*
X145635117Y-35814000D01*
X145618687Y-35980823D01*
X145570024Y-36141242D01*
X145559747Y-36160468D01*
X145491004Y-36289078D01*
X145384659Y-36418659D01*
X145255078Y-36525004D01*
X145255076Y-36525005D01*
X145107242Y-36604024D01*
X144946823Y-36652687D01*
X144821804Y-36665000D01*
X144738196Y-36665000D01*
X144613177Y-36652687D01*
X144452758Y-36604024D01*
X144304924Y-36525005D01*
X144304922Y-36525004D01*
X144175341Y-36418659D01*
X144068996Y-36289078D01*
X144000253Y-36160468D01*
X143989976Y-36141242D01*
X143941313Y-35980823D01*
X143924883Y-35814000D01*
X143941313Y-35647177D01*
X143989976Y-35486758D01*
X144068995Y-35338924D01*
X144068996Y-35338922D01*
X144175341Y-35209341D01*
X144304922Y-35102996D01*
X144383078Y-35061221D01*
X144452758Y-35023976D01*
X144613177Y-34975313D01*
X144738196Y-34963000D01*
X144821804Y-34963000D01*
X144946823Y-34975313D01*
X144946823Y-34975313D01*
G37*
G36*
X170290442Y-32379518D02*
G01*
X170356627Y-32386037D01*
X170526466Y-32437557D01*
X170682991Y-32521222D01*
X170718729Y-32550552D01*
X170820186Y-32633814D01*
X170903448Y-32735271D01*
X170932778Y-32771009D01*
X171016443Y-32927534D01*
X171067963Y-33097373D01*
X171085359Y-33274000D01*
X171067963Y-33450627D01*
X171016443Y-33620466D01*
X170932778Y-33776991D01*
X170903448Y-33812729D01*
X170820186Y-33914186D01*
X170718729Y-33997448D01*
X170682991Y-34026778D01*
X170526466Y-34110443D01*
X170356627Y-34161963D01*
X170290442Y-34168482D01*
X170224260Y-34175000D01*
X170135740Y-34175000D01*
X170069558Y-34168482D01*
X170003373Y-34161963D01*
X169833534Y-34110443D01*
X169677009Y-34026778D01*
X169641271Y-33997448D01*
X169539814Y-33914186D01*
X169456552Y-33812729D01*
X169427222Y-33776991D01*
X169343557Y-33620466D01*
X169292037Y-33450627D01*
X169274641Y-33274000D01*
X169292037Y-33097373D01*
X169343557Y-32927534D01*
X169427222Y-32771009D01*
X169456552Y-32735271D01*
X169539814Y-32633814D01*
X169641271Y-32550552D01*
X169677009Y-32521222D01*
X169833534Y-32437557D01*
X170003373Y-32386037D01*
X170069558Y-32379518D01*
X170135740Y-32373000D01*
X170224260Y-32373000D01*
X170290442Y-32379518D01*
X170290442Y-32379518D01*
G37*
G36*
X160130442Y-32379518D02*
G01*
X160196627Y-32386037D01*
X160366466Y-32437557D01*
X160522991Y-32521222D01*
X160558729Y-32550552D01*
X160660186Y-32633814D01*
X160743448Y-32735271D01*
X160772778Y-32771009D01*
X160856443Y-32927534D01*
X160907963Y-33097373D01*
X160925359Y-33274000D01*
X160907963Y-33450627D01*
X160856443Y-33620466D01*
X160772778Y-33776991D01*
X160743448Y-33812729D01*
X160660186Y-33914186D01*
X160558729Y-33997448D01*
X160522991Y-34026778D01*
X160366466Y-34110443D01*
X160196627Y-34161963D01*
X160130442Y-34168482D01*
X160064260Y-34175000D01*
X159975740Y-34175000D01*
X159909558Y-34168482D01*
X159843373Y-34161963D01*
X159673534Y-34110443D01*
X159517009Y-34026778D01*
X159481271Y-33997448D01*
X159379814Y-33914186D01*
X159296552Y-33812729D01*
X159267222Y-33776991D01*
X159183557Y-33620466D01*
X159132037Y-33450627D01*
X159114641Y-33274000D01*
X159132037Y-33097373D01*
X159183557Y-32927534D01*
X159267222Y-32771009D01*
X159296552Y-32735271D01*
X159379814Y-32633814D01*
X159481271Y-32550552D01*
X159517009Y-32521222D01*
X159673534Y-32437557D01*
X159843373Y-32386037D01*
X159909558Y-32379518D01*
X159975740Y-32373000D01*
X160064260Y-32373000D01*
X160130442Y-32379518D01*
X160130442Y-32379518D01*
G37*
G36*
X162670442Y-32379518D02*
G01*
X162736627Y-32386037D01*
X162906466Y-32437557D01*
X163062991Y-32521222D01*
X163098729Y-32550552D01*
X163200186Y-32633814D01*
X163283448Y-32735271D01*
X163312778Y-32771009D01*
X163396443Y-32927534D01*
X163447963Y-33097373D01*
X163465359Y-33274000D01*
X163447963Y-33450627D01*
X163396443Y-33620466D01*
X163312778Y-33776991D01*
X163283448Y-33812729D01*
X163200186Y-33914186D01*
X163098729Y-33997448D01*
X163062991Y-34026778D01*
X162906466Y-34110443D01*
X162736627Y-34161963D01*
X162670442Y-34168482D01*
X162604260Y-34175000D01*
X162515740Y-34175000D01*
X162449558Y-34168482D01*
X162383373Y-34161963D01*
X162213534Y-34110443D01*
X162057009Y-34026778D01*
X162021271Y-33997448D01*
X161919814Y-33914186D01*
X161836552Y-33812729D01*
X161807222Y-33776991D01*
X161723557Y-33620466D01*
X161672037Y-33450627D01*
X161654641Y-33274000D01*
X161672037Y-33097373D01*
X161723557Y-32927534D01*
X161807222Y-32771009D01*
X161836552Y-32735271D01*
X161919814Y-32633814D01*
X162021271Y-32550552D01*
X162057009Y-32521222D01*
X162213534Y-32437557D01*
X162383373Y-32386037D01*
X162449558Y-32379518D01*
X162515740Y-32373000D01*
X162604260Y-32373000D01*
X162670442Y-32379518D01*
X162670442Y-32379518D01*
G37*
G36*
X165210442Y-32379518D02*
G01*
X165276627Y-32386037D01*
X165446466Y-32437557D01*
X165602991Y-32521222D01*
X165638729Y-32550552D01*
X165740186Y-32633814D01*
X165823448Y-32735271D01*
X165852778Y-32771009D01*
X165936443Y-32927534D01*
X165987963Y-33097373D01*
X166005359Y-33274000D01*
X165987963Y-33450627D01*
X165936443Y-33620466D01*
X165852778Y-33776991D01*
X165823448Y-33812729D01*
X165740186Y-33914186D01*
X165638729Y-33997448D01*
X165602991Y-34026778D01*
X165446466Y-34110443D01*
X165276627Y-34161963D01*
X165210442Y-34168482D01*
X165144260Y-34175000D01*
X165055740Y-34175000D01*
X164989558Y-34168482D01*
X164923373Y-34161963D01*
X164753534Y-34110443D01*
X164597009Y-34026778D01*
X164561271Y-33997448D01*
X164459814Y-33914186D01*
X164376552Y-33812729D01*
X164347222Y-33776991D01*
X164263557Y-33620466D01*
X164212037Y-33450627D01*
X164194641Y-33274000D01*
X164212037Y-33097373D01*
X164263557Y-32927534D01*
X164347222Y-32771009D01*
X164376552Y-32735271D01*
X164459814Y-32633814D01*
X164561271Y-32550552D01*
X164597009Y-32521222D01*
X164753534Y-32437557D01*
X164923373Y-32386037D01*
X164989558Y-32379518D01*
X165055740Y-32373000D01*
X165144260Y-32373000D01*
X165210442Y-32379518D01*
X165210442Y-32379518D01*
G37*
G36*
X167750442Y-32379518D02*
G01*
X167816627Y-32386037D01*
X167986466Y-32437557D01*
X168142991Y-32521222D01*
X168178729Y-32550552D01*
X168280186Y-32633814D01*
X168363448Y-32735271D01*
X168392778Y-32771009D01*
X168476443Y-32927534D01*
X168527963Y-33097373D01*
X168545359Y-33274000D01*
X168527963Y-33450627D01*
X168476443Y-33620466D01*
X168392778Y-33776991D01*
X168363448Y-33812729D01*
X168280186Y-33914186D01*
X168178729Y-33997448D01*
X168142991Y-34026778D01*
X167986466Y-34110443D01*
X167816627Y-34161963D01*
X167750442Y-34168482D01*
X167684260Y-34175000D01*
X167595740Y-34175000D01*
X167529558Y-34168482D01*
X167463373Y-34161963D01*
X167293534Y-34110443D01*
X167137009Y-34026778D01*
X167101271Y-33997448D01*
X166999814Y-33914186D01*
X166916552Y-33812729D01*
X166887222Y-33776991D01*
X166803557Y-33620466D01*
X166752037Y-33450627D01*
X166734641Y-33274000D01*
X166752037Y-33097373D01*
X166803557Y-32927534D01*
X166887222Y-32771009D01*
X166916552Y-32735271D01*
X166999814Y-32633814D01*
X167101271Y-32550552D01*
X167137009Y-32521222D01*
X167293534Y-32437557D01*
X167463373Y-32386037D01*
X167529558Y-32379518D01*
X167595740Y-32373000D01*
X167684260Y-32373000D01*
X167750442Y-32379518D01*
X167750442Y-32379518D01*
G37*
G36*
X155050442Y-32379518D02*
G01*
X155116627Y-32386037D01*
X155286466Y-32437557D01*
X155442991Y-32521222D01*
X155478729Y-32550552D01*
X155580186Y-32633814D01*
X155663448Y-32735271D01*
X155692778Y-32771009D01*
X155776443Y-32927534D01*
X155827963Y-33097373D01*
X155845359Y-33274000D01*
X155827963Y-33450627D01*
X155776443Y-33620466D01*
X155692778Y-33776991D01*
X155663448Y-33812729D01*
X155580186Y-33914186D01*
X155478729Y-33997448D01*
X155442991Y-34026778D01*
X155286466Y-34110443D01*
X155116627Y-34161963D01*
X155050442Y-34168482D01*
X154984260Y-34175000D01*
X154895740Y-34175000D01*
X154829558Y-34168482D01*
X154763373Y-34161963D01*
X154593534Y-34110443D01*
X154437009Y-34026778D01*
X154401271Y-33997448D01*
X154299814Y-33914186D01*
X154216552Y-33812729D01*
X154187222Y-33776991D01*
X154103557Y-33620466D01*
X154052037Y-33450627D01*
X154034641Y-33274000D01*
X154052037Y-33097373D01*
X154103557Y-32927534D01*
X154187222Y-32771009D01*
X154216552Y-32735271D01*
X154299814Y-32633814D01*
X154401271Y-32550552D01*
X154437009Y-32521222D01*
X154593534Y-32437557D01*
X154763373Y-32386037D01*
X154829558Y-32379518D01*
X154895740Y-32373000D01*
X154984260Y-32373000D01*
X155050442Y-32379518D01*
X155050442Y-32379518D01*
G37*
G36*
X152510442Y-32379518D02*
G01*
X152576627Y-32386037D01*
X152746466Y-32437557D01*
X152902991Y-32521222D01*
X152938729Y-32550552D01*
X153040186Y-32633814D01*
X153123448Y-32735271D01*
X153152778Y-32771009D01*
X153236443Y-32927534D01*
X153287963Y-33097373D01*
X153305359Y-33274000D01*
X153287963Y-33450627D01*
X153236443Y-33620466D01*
X153152778Y-33776991D01*
X153123448Y-33812729D01*
X153040186Y-33914186D01*
X152938729Y-33997448D01*
X152902991Y-34026778D01*
X152746466Y-34110443D01*
X152576627Y-34161963D01*
X152510442Y-34168482D01*
X152444260Y-34175000D01*
X152355740Y-34175000D01*
X152289558Y-34168482D01*
X152223373Y-34161963D01*
X152053534Y-34110443D01*
X151897009Y-34026778D01*
X151861271Y-33997448D01*
X151759814Y-33914186D01*
X151676552Y-33812729D01*
X151647222Y-33776991D01*
X151563557Y-33620466D01*
X151512037Y-33450627D01*
X151494641Y-33274000D01*
X151512037Y-33097373D01*
X151563557Y-32927534D01*
X151647222Y-32771009D01*
X151676552Y-32735271D01*
X151759814Y-32633814D01*
X151861271Y-32550552D01*
X151897009Y-32521222D01*
X152053534Y-32437557D01*
X152223373Y-32386037D01*
X152289558Y-32379518D01*
X152355740Y-32373000D01*
X152444260Y-32373000D01*
X152510442Y-32379518D01*
X152510442Y-32379518D01*
G37*
G36*
X157590442Y-32379518D02*
G01*
X157656627Y-32386037D01*
X157826466Y-32437557D01*
X157982991Y-32521222D01*
X158018729Y-32550552D01*
X158120186Y-32633814D01*
X158203448Y-32735271D01*
X158232778Y-32771009D01*
X158316443Y-32927534D01*
X158367963Y-33097373D01*
X158385359Y-33274000D01*
X158367963Y-33450627D01*
X158316443Y-33620466D01*
X158232778Y-33776991D01*
X158203448Y-33812729D01*
X158120186Y-33914186D01*
X158018729Y-33997448D01*
X157982991Y-34026778D01*
X157826466Y-34110443D01*
X157656627Y-34161963D01*
X157590442Y-34168482D01*
X157524260Y-34175000D01*
X157435740Y-34175000D01*
X157369558Y-34168482D01*
X157303373Y-34161963D01*
X157133534Y-34110443D01*
X156977009Y-34026778D01*
X156941271Y-33997448D01*
X156839814Y-33914186D01*
X156756552Y-33812729D01*
X156727222Y-33776991D01*
X156643557Y-33620466D01*
X156592037Y-33450627D01*
X156574641Y-33274000D01*
X156592037Y-33097373D01*
X156643557Y-32927534D01*
X156727222Y-32771009D01*
X156756552Y-32735271D01*
X156839814Y-32633814D01*
X156941271Y-32550552D01*
X156977009Y-32521222D01*
X157133534Y-32437557D01*
X157303373Y-32386037D01*
X157369558Y-32379518D01*
X157435740Y-32373000D01*
X157524260Y-32373000D01*
X157590442Y-32379518D01*
X157590442Y-32379518D01*
G37*
G36*
X185586823Y-32435313D02*
G01*
X185747242Y-32483976D01*
X185816922Y-32521221D01*
X185895078Y-32562996D01*
X186024659Y-32669341D01*
X186131004Y-32798922D01*
X186131005Y-32798924D01*
X186210024Y-32946758D01*
X186258687Y-33107177D01*
X186275117Y-33274000D01*
X186258687Y-33440823D01*
X186210024Y-33601242D01*
X186199747Y-33620468D01*
X186131004Y-33749078D01*
X186024659Y-33878659D01*
X185895078Y-33985004D01*
X185895076Y-33985005D01*
X185747242Y-34064024D01*
X185586823Y-34112687D01*
X185461804Y-34125000D01*
X185378196Y-34125000D01*
X185253177Y-34112687D01*
X185092758Y-34064024D01*
X184944924Y-33985005D01*
X184944922Y-33985004D01*
X184815341Y-33878659D01*
X184708996Y-33749078D01*
X184640253Y-33620468D01*
X184629976Y-33601242D01*
X184581313Y-33440823D01*
X184564883Y-33274000D01*
X184581313Y-33107177D01*
X184629976Y-32946758D01*
X184708995Y-32798924D01*
X184708996Y-32798922D01*
X184815341Y-32669341D01*
X184944922Y-32562996D01*
X185023078Y-32521221D01*
X185092758Y-32483976D01*
X185253177Y-32435313D01*
X185378196Y-32423000D01*
X185461804Y-32423000D01*
X185586823Y-32435313D01*
X185586823Y-32435313D01*
G37*
G36*
X178651000Y-34125000D02*
G01*
X176949000Y-34125000D01*
X176949000Y-32423000D01*
X178651000Y-32423000D01*
X178651000Y-34125000D01*
X178651000Y-34125000D01*
G37*
G36*
X144946823Y-32435313D02*
G01*
X145107242Y-32483976D01*
X145176922Y-32521221D01*
X145255078Y-32562996D01*
X145384659Y-32669341D01*
X145491004Y-32798922D01*
X145491005Y-32798924D01*
X145570024Y-32946758D01*
X145618687Y-33107177D01*
X145635117Y-33274000D01*
X145618687Y-33440823D01*
X145570024Y-33601242D01*
X145559747Y-33620468D01*
X145491004Y-33749078D01*
X145384659Y-33878659D01*
X145255078Y-33985004D01*
X145255076Y-33985005D01*
X145107242Y-34064024D01*
X144946823Y-34112687D01*
X144821804Y-34125000D01*
X144738196Y-34125000D01*
X144613177Y-34112687D01*
X144452758Y-34064024D01*
X144304924Y-33985005D01*
X144304922Y-33985004D01*
X144175341Y-33878659D01*
X144068996Y-33749078D01*
X144000253Y-33620468D01*
X143989976Y-33601242D01*
X143941313Y-33440823D01*
X143924883Y-33274000D01*
X143941313Y-33107177D01*
X143989976Y-32946758D01*
X144068995Y-32798924D01*
X144068996Y-32798922D01*
X144175341Y-32669341D01*
X144304922Y-32562996D01*
X144383078Y-32521221D01*
X144452758Y-32483976D01*
X144613177Y-32435313D01*
X144738196Y-32423000D01*
X144821804Y-32423000D01*
X144946823Y-32435313D01*
X144946823Y-32435313D01*
G37*
G36*
X138011000Y-34125000D02*
G01*
X136309000Y-34125000D01*
X136309000Y-32423000D01*
X138011000Y-32423000D01*
X138011000Y-34125000D01*
X138011000Y-34125000D01*
G37*
G36*
X188558564Y-21745099D02*
G01*
X188800126Y-21793149D01*
X189482765Y-22075907D01*
X190097123Y-22486408D01*
X190619592Y-23008877D01*
X191030093Y-23623235D01*
X191312851Y-24305874D01*
X191352622Y-24505814D01*
X191457000Y-25030557D01*
X191457000Y-25769443D01*
X191414631Y-25982443D01*
X191312851Y-26494126D01*
X191030093Y-27176765D01*
X190619592Y-27791123D01*
X190097123Y-28313592D01*
X189482765Y-28724093D01*
X188800126Y-29006851D01*
X188558564Y-29054901D01*
X188075443Y-29151000D01*
X187336557Y-29151000D01*
X186853436Y-29054901D01*
X186611874Y-29006851D01*
X185929235Y-28724093D01*
X185314877Y-28313592D01*
X184792408Y-27791123D01*
X184381907Y-27176765D01*
X184099149Y-26494126D01*
X183997369Y-25982443D01*
X183955000Y-25769443D01*
X183955000Y-25030557D01*
X184059378Y-24505814D01*
X184099149Y-24305874D01*
X184381907Y-23623235D01*
X184792408Y-23008877D01*
X185314877Y-22486408D01*
X185929235Y-22075907D01*
X186611874Y-21793149D01*
X186853436Y-21745099D01*
X187336557Y-21649000D01*
X188075443Y-21649000D01*
X188558564Y-21745099D01*
X188558564Y-21745099D01*
G37*
G36*
X132678564Y-21745099D02*
G01*
X132920126Y-21793149D01*
X133602765Y-22075907D01*
X134217123Y-22486408D01*
X134739592Y-23008877D01*
X135150093Y-23623235D01*
X135432851Y-24305874D01*
X135472622Y-24505814D01*
X135577000Y-25030557D01*
X135577000Y-25769443D01*
X135534631Y-25982443D01*
X135432851Y-26494126D01*
X135150093Y-27176765D01*
X134739592Y-27791123D01*
X134217123Y-28313592D01*
X133602765Y-28724093D01*
X132920126Y-29006851D01*
X132678564Y-29054901D01*
X132195443Y-29151000D01*
X131456557Y-29151000D01*
X130973436Y-29054901D01*
X130731874Y-29006851D01*
X130049235Y-28724093D01*
X129434877Y-28313592D01*
X128912408Y-27791123D01*
X128501907Y-27176765D01*
X128219149Y-26494126D01*
X128117369Y-25982443D01*
X128075000Y-25769443D01*
X128075000Y-25030557D01*
X128179378Y-24505814D01*
X128219149Y-24305874D01*
X128501907Y-23623235D01*
X128912408Y-23008877D01*
X129434877Y-22486408D01*
X130049235Y-22075907D01*
X130731874Y-21793149D01*
X130973436Y-21745099D01*
X131456557Y-21649000D01*
X132195443Y-21649000D01*
X132678564Y-21745099D01*
X132678564Y-21745099D01*
G37*
G36*
X181466443Y-24251519D02*
G01*
X181532627Y-24258037D01*
X181702466Y-24309557D01*
X181858991Y-24393222D01*
X181894729Y-24422552D01*
X181996186Y-24505814D01*
X182079448Y-24607271D01*
X182108778Y-24643009D01*
X182192443Y-24799534D01*
X182243963Y-24969373D01*
X182261359Y-25146000D01*
X182243963Y-25322627D01*
X182192443Y-25492466D01*
X182108778Y-25648991D01*
X182079448Y-25684729D01*
X181996186Y-25786186D01*
X181894729Y-25869448D01*
X181858991Y-25898778D01*
X181702466Y-25982443D01*
X181532627Y-26033963D01*
X181466442Y-26040482D01*
X181400260Y-26047000D01*
X181311740Y-26047000D01*
X181245558Y-26040482D01*
X181179373Y-26033963D01*
X181009534Y-25982443D01*
X180853009Y-25898778D01*
X180817271Y-25869448D01*
X180715814Y-25786186D01*
X180632552Y-25684729D01*
X180603222Y-25648991D01*
X180519557Y-25492466D01*
X180468037Y-25322627D01*
X180450641Y-25146000D01*
X180468037Y-24969373D01*
X180519557Y-24799534D01*
X180603222Y-24643009D01*
X180632552Y-24607271D01*
X180715814Y-24505814D01*
X180817271Y-24422552D01*
X180853009Y-24393222D01*
X181009534Y-24309557D01*
X181179373Y-24258037D01*
X181245557Y-24251519D01*
X181311740Y-24245000D01*
X181400260Y-24245000D01*
X181466443Y-24251519D01*
X181466443Y-24251519D01*
G37*
G36*
X178926443Y-24251519D02*
G01*
X178992627Y-24258037D01*
X179162466Y-24309557D01*
X179318991Y-24393222D01*
X179354729Y-24422552D01*
X179456186Y-24505814D01*
X179539448Y-24607271D01*
X179568778Y-24643009D01*
X179652443Y-24799534D01*
X179703963Y-24969373D01*
X179721359Y-25146000D01*
X179703963Y-25322627D01*
X179652443Y-25492466D01*
X179568778Y-25648991D01*
X179539448Y-25684729D01*
X179456186Y-25786186D01*
X179354729Y-25869448D01*
X179318991Y-25898778D01*
X179162466Y-25982443D01*
X178992627Y-26033963D01*
X178926442Y-26040482D01*
X178860260Y-26047000D01*
X178771740Y-26047000D01*
X178705558Y-26040482D01*
X178639373Y-26033963D01*
X178469534Y-25982443D01*
X178313009Y-25898778D01*
X178277271Y-25869448D01*
X178175814Y-25786186D01*
X178092552Y-25684729D01*
X178063222Y-25648991D01*
X177979557Y-25492466D01*
X177928037Y-25322627D01*
X177910641Y-25146000D01*
X177928037Y-24969373D01*
X177979557Y-24799534D01*
X178063222Y-24643009D01*
X178092552Y-24607271D01*
X178175814Y-24505814D01*
X178277271Y-24422552D01*
X178313009Y-24393222D01*
X178469534Y-24309557D01*
X178639373Y-24258037D01*
X178705557Y-24251519D01*
X178771740Y-24245000D01*
X178860260Y-24245000D01*
X178926443Y-24251519D01*
X178926443Y-24251519D01*
G37*
G36*
X177177000Y-26047000D02*
G01*
X175375000Y-26047000D01*
X175375000Y-24245000D01*
X177177000Y-24245000D01*
X177177000Y-26047000D01*
X177177000Y-26047000D01*
G37*
M02*
