M48
; DRILL file {KiCad (5.1.2-1)-1} date Sunday, August 11, 2019 at 06:03:32 PM
; FORMAT={-:-/ absolute / inch / decimal}
; #@! TF.CreationDate,2019-08-11T18:03:32-06:00
; #@! TF.GenerationSoftware,Kicad,Pcbnew,(5.1.2-1)-1
; #@! TF.FileFunction,Plated,1,2,PTH
FMAT,2
INCH
T1C0.0157
T2C0.0315
T3C0.0394
T4C0.1457
%
G90
G05
T1
X5.34Y-4.2
X5.7Y-4.24
X5.8811Y-4.2257
X6.0Y-4.37
X6.1039Y-4.2661
X6.2023Y-4.2788
X6.3Y-4.332
X6.4Y-4.39
X6.5Y-4.41
X6.5544Y-4.332
X6.65Y-4.38
X6.73Y-4.2965
X6.8043Y-4.208
X6.87Y-2.18
X6.9Y-4.2
X7.0Y-4.2611
X7.1Y-4.18
X7.2Y-3.67
X7.21Y-3.77
X7.22Y-3.87
X7.371Y-3.8631
X7.4Y-3.7677
X7.44Y-3.67
T2
X7.0Y-1.31
X7.0Y-1.41
X7.0Y-1.51
X7.0Y-1.61
X7.0Y-1.71
X7.0Y-1.81
X7.0Y-1.91
X7.0Y-2.01
X7.0Y-2.11
X7.0Y-2.21
X7.3Y-1.31
X7.3Y-1.41
X7.3Y-1.51
X7.3Y-1.61
X7.3Y-1.71
X7.3Y-1.81
X7.3Y-1.91
X7.3Y-2.01
X7.3Y-2.11
X7.3Y-2.21
X7.0Y-2.61
X7.0Y-2.71
X7.0Y-2.81
X7.0Y-2.91
X7.0Y-3.01
X7.0Y-3.11
X7.0Y-3.21
X7.0Y-3.31
X7.0Y-3.41
X7.0Y-3.51
X7.3Y-2.61
X7.3Y-2.71
X7.3Y-2.81
X7.3Y-2.91
X7.3Y-3.01
X7.3Y-3.11
X7.3Y-3.21
X7.3Y-3.31
X7.3Y-3.41
X7.3Y-3.51
X5.4Y-2.61
X5.4Y-2.71
X5.4Y-2.81
X5.4Y-2.91
X5.4Y-3.01
X5.4Y-3.11
X5.4Y-3.21
X5.4Y-3.31
X5.4Y-3.41
X5.4Y-3.51
X5.7Y-2.61
X5.7Y-2.71
X5.7Y-2.81
X5.7Y-2.91
X5.7Y-3.01
X5.7Y-3.11
X5.7Y-3.21
X5.7Y-3.31
X5.7Y-3.41
X5.7Y-3.51
X5.4Y-1.31
X5.4Y-1.41
X5.4Y-1.51
X5.4Y-1.61
X5.4Y-1.71
X5.4Y-1.81
X5.4Y-1.91
X5.4Y-2.01
X5.4Y-2.11
X5.4Y-2.21
X5.7Y-1.31
X5.7Y-1.41
X5.7Y-1.51
X5.7Y-1.61
X5.7Y-1.71
X5.7Y-1.81
X5.7Y-1.91
X5.7Y-2.01
X5.7Y-2.11
X5.7Y-2.21
T3
X5.4Y-3.98
X5.4Y-4.08
X5.5Y-3.98
X5.5Y-4.08
X5.6Y-3.98
X5.6Y-4.08
X5.7Y-3.98
X5.7Y-4.08
X5.8Y-3.98
X5.8Y-4.08
X5.9Y-3.98
X5.9Y-4.08
X6.0Y-3.98
X6.0Y-4.08
X6.1Y-3.98
X6.1Y-4.08
X6.2Y-3.98
X6.2Y-4.08
X6.3Y-3.98
X6.3Y-4.08
X6.4Y-3.98
X6.4Y-4.08
X6.5Y-3.98
X6.5Y-4.08
X6.6Y-3.98
X6.6Y-4.08
X6.7Y-3.98
X6.7Y-4.08
X6.8Y-3.98
X6.8Y-4.08
X6.9Y-3.98
X6.9Y-4.08
X7.0Y-3.98
X7.0Y-4.08
X7.1Y-3.98
X7.1Y-4.08
X7.2Y-3.98
X7.2Y-4.08
X7.3Y-3.98
X7.3Y-4.08
X6.0Y-1.31
X6.0Y-1.41
X6.1Y-1.31
X6.1Y-1.41
X6.2Y-1.31
X6.2Y-1.41
X6.3Y-1.31
X6.3Y-1.41
X6.4Y-1.31
X6.4Y-1.41
X6.5Y-1.31
X6.5Y-1.41
X6.6Y-1.31
X6.6Y-1.41
X6.7Y-1.31
X6.7Y-1.41
X6.0Y-3.41
X6.0Y-3.51
X6.1Y-3.41
X6.1Y-3.51
X6.2Y-3.41
X6.2Y-3.51
X6.3Y-3.41
X6.3Y-3.51
X6.4Y-3.41
X6.4Y-3.51
X6.5Y-3.41
X6.5Y-3.51
X6.6Y-3.41
X6.6Y-3.51
X6.7Y-3.41
X6.7Y-3.51
X6.94Y-0.99
X7.04Y-0.99
X7.14Y-0.99
X6.0Y-2.41
X6.0Y-2.51
X6.1Y-2.41
X6.1Y-2.51
X6.2Y-2.41
X6.2Y-2.51
X6.3Y-2.41
X6.3Y-2.51
X6.4Y-2.41
X6.4Y-2.51
X6.5Y-2.41
X6.5Y-2.51
X6.6Y-2.41
X6.6Y-2.51
X6.7Y-2.41
X6.7Y-2.51
T4
X5.19Y-1.0
X7.39Y-1.0
T0
M30
